<svg width="212" height="93" viewBox="0 0 212 93" fill="none" xmlns="http://www.w3.org/2000/svg">
<path d="M1.73438 44.0874L7.24219 21.2358C7.73047 19.2632 8.76562 17.6812 10.3477 16.4897C11.9297 15.2983 13.7363 14.7026 15.7676 14.7026H18.5508L11.5781 43.7944C11.5195 44.1655 11.6074 44.4878 11.8418 44.7612C12.0762 45.0347 12.3789 45.1714 12.75 45.1714L35.9238 45.2007C35.8457 45.4937 35.748 45.8745 35.6309 46.3433C35.416 47.2222 35.1719 48.2183 34.8984 49.3315C34.6445 50.4448 34.4004 51.4604 34.166 52.3784C33.9512 53.2964 33.8047 53.9116 33.7266 54.2241H10.2305C7.41797 54.2241 5.15234 53.1987 3.43359 51.1479C1.69531 49.1167 1.12891 46.7632 1.73438 44.0874ZM129.908 23.7554C130.396 23.7554 131.92 23.7554 134.479 23.7554C137.037 23.7554 139.879 23.7554 143.004 23.7554C146.148 23.7554 148.883 23.7554 151.207 23.7554C153.531 23.7554 154.811 23.7554 155.045 23.7554C155.104 23.4624 155.24 22.8472 155.455 21.9097C155.689 20.9722 155.943 19.9565 156.217 18.8628C156.49 17.7495 156.725 16.7827 156.92 15.9624C157.115 15.1226 157.213 14.7026 157.213 14.7026C156.666 14.7026 154.938 14.7026 152.027 14.7026C149.117 14.7026 145.885 14.7026 142.33 14.7026C138.795 14.7026 135.709 14.7026 133.072 14.7026C130.436 14.7026 128.98 14.7026 128.707 14.7026C128.668 14.7026 128.639 14.7026 128.619 14.7026C124.713 14.7026 121.93 16.8315 120.27 21.0894C120.191 21.4019 120.025 22.0659 119.771 23.0815C119.537 24.0776 119.283 25.103 119.01 26.1577C118.756 27.2124 118.57 27.9644 118.453 28.4136C118.414 28.5894 118.395 28.6772 118.395 28.6772C118.395 28.7163 118.395 28.7456 118.395 28.7651C117.77 31.4995 118.258 33.8726 119.859 35.8843C121.441 37.896 123.561 38.9019 126.217 38.9019C126.529 38.9019 127.418 38.9019 128.883 38.9019C130.348 38.9019 131.969 38.9019 133.746 38.9019C135.523 38.9019 137.066 38.9019 138.375 38.9019C139.703 38.9019 140.436 38.9019 140.572 38.9019C140.611 38.9019 140.641 38.9019 140.66 38.9019C140.66 38.9019 140.65 38.9019 140.631 38.9019C140.982 38.9019 141.266 39.0483 141.48 39.3413C141.695 39.6343 141.734 39.9565 141.598 40.3081C141.559 40.4644 141.49 40.7476 141.393 41.1577C141.295 41.5483 141.188 41.978 141.07 42.4468C140.973 42.9155 140.875 43.3257 140.777 43.6772C140.699 44.0288 140.66 44.2046 140.66 44.2046C140.445 44.771 140.064 45.0542 139.518 45.0542C139.029 45.0542 137.506 45.0542 134.947 45.0542C132.389 45.0542 129.537 45.0542 126.393 45.0542C123.268 45.0542 120.543 45.0542 118.219 45.0542C115.914 45.0542 114.645 45.0542 114.41 45.0542C114.352 45.3472 114.215 45.9722 114 46.9292C113.766 47.8667 113.512 48.9019 113.238 50.0347C112.965 51.1479 112.73 52.1245 112.535 52.9644C112.34 53.8042 112.242 54.2241 112.242 54.2241C112.789 54.2241 114.508 54.2241 117.398 54.2241C120.309 54.2241 123.541 54.2241 127.096 54.2241C130.65 54.2241 133.736 54.2241 136.354 54.2241C138.99 54.2241 140.445 54.2241 140.719 54.2241C140.758 54.2241 140.787 54.2241 140.807 54.2241C142.838 54.2241 144.615 53.6187 146.139 52.4077C147.662 51.1772 148.688 49.5952 149.215 47.6616C149.254 47.4272 149.371 46.9194 149.566 46.1382C149.762 45.3569 149.967 44.5073 150.182 43.5894C150.416 42.6714 150.611 41.8804 150.768 41.2163C150.943 40.5327 151.031 40.1714 151.031 40.1323C151.051 40.0933 151.061 40.064 151.061 40.0444C151.666 37.3687 151.178 35.0054 149.596 32.9546C148.014 30.8843 145.904 29.8491 143.268 29.8491C142.936 29.8491 142.037 29.8491 140.572 29.8491C139.107 29.8491 137.486 29.8491 135.709 29.8491C133.932 29.8491 132.389 29.8491 131.08 29.8491C129.791 29.8491 129.078 29.8491 128.941 29.8491C128.59 29.8491 128.307 29.7124 128.092 29.439C127.877 29.1655 127.799 28.8433 127.857 28.4722C127.896 28.3159 127.965 28.0425 128.062 27.6519C128.16 27.2417 128.258 26.8022 128.355 26.3335C128.473 25.8647 128.57 25.4546 128.648 25.103C128.746 24.7515 128.795 24.5757 128.795 24.5757C128.873 24.3608 129.01 24.1655 129.205 23.9897C129.4 23.8335 129.635 23.7554 129.908 23.7554ZM179.596 54.2241L187.33 23.6968H174.264L176.461 14.7026H211.441L209.215 23.6968H196.559L188.941 54.2241H179.596Z" fill="#2DB0DE"/>
<path d="M72.2925 58.3921L77.4671 59.6823L73.8264 74.2842L68.6518 72.9941L72.2925 58.3921Z" fill="#2699C2"/>
<path d="M72.749 84.3952L65.1119 82.4918C64.8248 82.4185 64.5786 82.2342 64.4273 81.9795C64.276 81.7248 64.232 81.4205 64.305 81.1333L66.14 73.7706C69.4061 74.5816 72.6715 75.3957 75.9361 76.2131L74.0998 83.5755C74.0292 83.8632 73.8473 84.1111 73.594 84.2648C73.3408 84.4185 73.0368 84.4654 72.749 84.3952Z" fill="#FCB44D"/>
<path d="M72.7484 84.3959L69.9462 83.695L72.0508 75.2452C73.3456 75.5685 74.64 75.8912 75.9341 76.2134L74.0991 83.5761C74.0285 83.8638 73.8466 84.1118 73.5934 84.2655C73.3401 84.4192 73.0362 84.4661 72.7484 84.3959Z" fill="#FB9927"/>
<path d="M65.6828 75.6049L75.479 78.0473L76.0365 75.8026C76.1606 75.3119 76.085 74.792 75.8265 74.357C75.5679 73.9219 75.1473 73.6071 74.657 73.4815L68.5548 71.9543C68.3107 71.8948 68.0573 71.8841 67.8091 71.9226C67.5608 71.9612 67.3226 72.0483 67.1081 72.1789C66.8935 72.3096 66.7068 72.4813 66.5586 72.6841C66.4104 72.887 66.3037 73.117 66.2444 73.3612L65.6828 75.6049Z" fill="#FB5532"/>
<path d="M72.1539 74.8319L71.5938 77.0782L75.4777 78.0473L76.0381 75.7996C76.1619 75.309 76.0862 74.7892 75.8277 74.3542C75.5692 73.9192 75.1488 73.6043 74.6586 73.4786L70.7753 72.5045C71.2667 72.6304 71.688 72.9463 71.9465 73.3828C72.205 73.8192 72.2796 74.3405 72.1539 74.8319Z" fill="#EC462E"/>
<path d="M72.5942 60.3635C84.905 63.4329 97.3731 55.9413 100.442 43.6306C103.512 31.3198 96.0203 18.8517 83.7095 15.7823C71.3988 12.7129 58.9307 20.2045 55.8613 32.5152C52.7919 44.826 60.2834 57.2941 72.5942 60.3635Z" fill="#2DB0DE"/>
<path d="M93.4191 42.0929C92.5566 45.549 90.5503 48.6118 87.7263 50.7829C84.9023 52.9541 81.4268 54.106 77.8651 54.0512L79.641 46.9283L76.8349 46.2287L74.9639 53.7329C74.7411 53.687 74.5187 53.6363 74.2968 53.581C71.2698 52.8261 68.5345 51.1905 66.437 48.881C64.3395 46.5715 62.9739 43.6919 62.513 40.6064C62.0521 37.5208 62.5164 34.3679 63.8474 31.5462C65.1784 28.7246 67.3162 26.361 69.9905 24.7544C72.6648 23.1477 75.7555 22.3702 78.8717 22.52C81.9879 22.6699 84.9897 23.7405 87.4974 25.5964C90.0052 27.4523 91.9063 30.0101 92.9603 32.9465C94.0144 35.8828 94.174 39.0658 93.4191 42.0929Z" fill="white"/>
<path d="M70.1576 51.0029C71.9177 51.4437 73.7407 51.5771 75.5463 51.3972L74.9637 53.7337C74.7409 53.6878 74.5185 53.6372 74.2967 53.5818C71.8935 52.9853 69.6653 51.8294 67.7936 50.2084C68.5595 50.5349 69.35 50.8005 70.1576 51.0029Z" fill="white"/>
<path d="M80.9368 45.9805L78.9288 54.034C77.3722 54.1133 75.8125 53.9612 74.3005 53.5828C74.1889 53.555 74.0783 53.5274 73.9677 53.4999L76.1397 44.7885L80.9368 45.9805Z" fill="#FFC4AF"/>
<path d="M80.9368 45.9805L79.8288 50.4244C79.1279 51.1637 78.2531 51.7157 77.2842 52.03C76.3152 52.3443 75.283 52.411 74.2817 52.2239L76.1367 44.7837L80.9368 45.9805Z" fill="#FCAC8D"/>
<path d="M84.5329 36.91L82.5975 44.6724C82.1509 46.3746 81.0514 47.8323 79.5374 48.7295C78.0234 49.6266 76.2168 49.891 74.5092 49.4652C72.8017 49.0395 71.3306 47.9579 70.415 46.455C69.4994 44.9521 69.213 43.1489 69.6178 41.4362L71.5532 33.6738L84.5329 36.91Z" fill="#FFDBCE"/>
<path d="M84.5321 36.9095L82.7231 44.1654L82.3262 44.0665L82.43 41.0087C82.4312 40.8892 82.4085 40.7707 82.3633 40.6601C82.3181 40.5494 82.2514 40.4489 82.1669 40.3643C82.0825 40.2797 81.982 40.2129 81.8714 40.1675C81.7609 40.1222 81.6424 40.0993 81.5228 40.1003C79.6784 40.1155 74.2122 40.6108 70.234 38.9697L71.5547 33.6729L84.5334 36.9088L84.5321 36.9095Z" fill="#FFC4AF"/>
<path d="M82.6041 44.647L82.5968 44.6761C82.4718 45.1794 82.2884 45.6663 82.0506 46.1271C81.9097 46.0494 81.7759 45.9595 81.6507 45.8584C81.4958 45.7301 81.3972 45.5463 81.376 45.3463C81.3547 45.1463 81.4124 44.9459 81.5368 44.7879C81.6612 44.6298 81.8424 44.5266 82.0418 44.5003C82.2412 44.474 82.443 44.5267 82.6041 44.647Z" fill="#FFC4AF"/>
<path d="M84.3174 37.7785L83.9126 39.4019C83.431 39.5549 83.0066 39.8495 82.6949 40.2474C82.6311 40.3262 82.5524 40.3917 82.4633 40.4401C82.3742 40.4886 82.2765 40.519 82.1757 40.5296C82.0748 40.5403 81.9728 40.531 81.8756 40.5022C81.7784 40.4735 81.6877 40.4258 81.6089 40.3621C81.5301 40.2983 81.4646 40.2196 81.4161 40.1305C81.3677 40.0414 81.3373 39.9436 81.3266 39.8428C81.316 39.742 81.3253 39.64 81.3541 39.5428C81.3828 39.4455 81.4304 39.3549 81.4942 39.2761C82.072 38.5459 82.8854 38.0391 83.7955 37.8422C83.9675 37.8075 84.142 37.7862 84.3174 37.7785Z" fill="#FCAC8D"/>
<path d="M69.439 31.944C69.439 31.944 70.261 28.5851 73.0655 27.9435C73.1318 27.9276 73.1943 27.8987 73.2492 27.8583C73.3041 27.818 73.3504 27.767 73.3854 27.7085C73.4203 27.65 73.4432 27.5851 73.4527 27.5176C73.4622 27.4501 73.4581 27.3814 73.4406 27.3156L73.3915 27.1281C73.3609 27.0108 73.3579 26.888 73.3827 26.7693C73.4075 26.6507 73.4594 26.5393 73.5343 26.4441C73.6093 26.3488 73.7053 26.2721 73.8148 26.2201C73.9243 26.1681 74.0443 26.1421 74.1655 26.1441C75.278 26.1567 76.3903 26.1107 77.4979 26.0062C80.2182 25.7641 88.0139 27.8634 88.4538 33.4405C88.8386 38.3206 84.7323 42.2447 84.7323 42.2447L82.7494 41.8936L82.5888 39.1399C82.5817 39.0205 82.551 38.9037 82.4982 38.7963C82.4455 38.6889 82.3719 38.5931 82.2818 38.5145C82.1916 38.4358 82.0866 38.376 81.9731 38.3384C81.8595 38.3008 81.7395 38.2862 81.6203 38.2956C79.7354 38.444 74.1876 38.7994 70.0696 37.314C69.9677 37.2763 69.8749 37.2175 69.7973 37.1414C69.7197 37.0653 69.6591 36.9737 69.6194 36.8725C69.5797 36.7713 69.5618 36.6629 69.567 36.5543C69.5722 36.4457 69.6002 36.3395 69.6493 36.2425L70.0551 35.4419C70.0911 35.3704 70.1099 35.2914 70.11 35.2112C70.1101 35.1311 70.0914 35.0521 70.0555 34.9804C70.0196 34.9088 69.9674 34.8465 69.9032 34.7986C69.8389 34.7508 69.7644 34.7186 69.6855 34.7046L69.4208 34.6582C69.3099 34.6387 69.2045 34.5951 69.1122 34.5305C69.0198 34.4659 68.9427 34.3819 68.8863 34.2844C68.8299 34.1868 68.7955 34.0781 68.7856 33.9658C68.7757 33.8536 68.7905 33.7405 68.8289 33.6346L69.439 31.944Z" fill="#FCA62F"/>
<path d="M84.7342 42.2452L82.7512 41.8941L82.7394 41.685C83.8804 40.3453 86.1015 37.2321 85.8126 33.588C85.3977 28.3242 78.4285 26.1589 75.3594 26.1378C75.9573 26.1209 76.6717 26.0827 77.4992 26.0086C80.2206 25.7668 88.0163 27.8661 88.4551 33.443C88.8407 38.3201 84.7342 42.2452 84.7342 42.2452Z" fill="#F98824"/>
<path d="M86.07 43.6876C87.0873 42.4291 87.0684 40.727 86.0277 39.8858C84.9871 39.0445 83.3188 39.3828 82.3015 40.6413C81.2842 41.8997 81.3031 43.6019 82.3437 44.4431C83.3843 45.2843 85.0526 44.9461 86.07 43.6876Z" fill="#FFDBCE"/>
<path d="M72.4753 41.3923C72.2769 41.3428 72.1062 41.2165 72.0009 41.0413C71.8956 40.866 71.8642 40.6561 71.9137 40.4577L72.0204 40.0298C72.0756 39.8379 72.2032 39.6749 72.3762 39.5752C72.5491 39.4754 72.7541 39.4467 72.9478 39.495C73.1415 39.5433 73.309 39.6649 73.4149 39.8342C73.5208 40.0034 73.5569 40.2072 73.5156 40.4026L73.4089 40.8305C73.3595 41.0289 73.2332 41.1995 73.0579 41.3048C72.8826 41.4101 72.6727 41.4415 72.4743 41.392L72.4753 41.3923Z" fill="#3F5959"/>
<path d="M77.8576 42.7341C77.6592 42.6846 77.4886 42.5583 77.3832 42.3831C77.2779 42.2078 77.2466 41.9979 77.296 41.7994L77.4027 41.3716C77.458 41.1797 77.5855 41.0167 77.7585 40.917C77.9314 40.8172 78.1364 40.7885 78.3301 40.8368C78.5239 40.8851 78.6913 41.0067 78.7972 41.176C78.9031 41.3452 78.9392 41.549 78.8979 41.7444L78.7913 42.1723C78.7418 42.3707 78.6155 42.5413 78.4402 42.6466C78.265 42.7519 78.055 42.7833 77.8566 42.7338L77.8576 42.7341Z" fill="#3F5959"/>
<path d="M74.6199 46.842C74.1424 46.7228 73.7214 46.4405 73.4299 46.044C73.1383 45.6474 72.9943 45.1615 73.0229 44.6701C73.0404 44.4702 73.1352 44.2849 73.2871 44.1537C73.439 44.0225 73.6361 43.9557 73.8365 43.9676C74.0369 43.9794 74.2247 44.0689 74.3601 44.2171C74.4956 44.3653 74.5678 44.5604 74.5616 44.761C74.5535 44.8937 74.5921 45.0251 74.6707 45.1323C74.7493 45.2396 74.8629 45.3159 74.9919 45.3481C75.1209 45.3802 75.2571 45.3662 75.3768 45.3084C75.4966 45.2506 75.5923 45.1527 75.6474 45.0318C75.6877 44.9369 75.7466 44.851 75.8206 44.7793C75.8946 44.7076 75.9823 44.6514 76.0784 44.6142C76.1745 44.5769 76.2771 44.5593 76.3801 44.5624C76.4832 44.5655 76.5845 44.5892 76.6782 44.6321C76.772 44.6751 76.8561 44.7364 76.9257 44.8124C76.9953 44.8884 77.049 44.9776 77.0835 45.0747C77.1181 45.1718 77.1328 45.2749 77.1268 45.3778C77.1208 45.4807 77.0942 45.5814 77.0487 45.6739C76.8435 46.1211 76.4884 46.4826 76.045 46.6959C75.6015 46.9092 75.0975 46.9609 74.6199 46.842Z" fill="#FCAC8D"/>
<path d="M85.4552 34.8037C85.3118 34.7675 85.1819 34.6908 85.081 34.5829C84.98 34.4749 84.9121 34.3402 84.8855 34.1948C84.4124 31.6157 80.0345 30.5242 78.3851 30.3191C78.2825 30.3093 78.1828 30.2791 78.0921 30.2302C78.0013 30.1813 77.9213 30.1147 77.8568 30.0344C77.7922 29.954 77.7444 29.8615 77.7162 29.7624C77.688 29.6632 77.68 29.5594 77.6926 29.4571C77.7052 29.3548 77.7383 29.2561 77.7897 29.1667C77.8411 29.0774 77.91 28.9993 77.9921 28.937C78.0743 28.8748 78.1681 28.8296 78.268 28.8042C78.3679 28.7789 78.4719 28.7738 78.5738 28.7893C78.8617 28.825 85.6309 29.7047 86.3973 33.9142C86.4203 34.0407 86.4112 34.171 86.371 34.2931C86.3307 34.4152 86.2606 34.5253 86.1669 34.6134C86.0733 34.7015 85.9591 34.7647 85.8347 34.7974C85.7104 34.8301 85.5798 34.8312 85.4549 34.8005L85.4552 34.8037Z" fill="#EF7A22"/>
</svg>
