<svg xmlns="http://www.w3.org/2000/svg" xmlns:xlink="http://www.w3.org/1999/xlink" width="439.655" height="506.465" viewBox="0 0 439.655 506.465">
  <defs>
    <radialGradient id="radial-gradient" cx="0.5" cy="0.5" r="0.673" gradientTransform="matrix(1, 0, 0, 0.46, 0, 0.27)" gradientUnits="objectBoundingBox">
      <stop offset="0" stop-color="#fff" stop-opacity="0.62"/>
      <stop offset="1" stop-color="#fff"/>
    </radialGradient>
  </defs>
  <g id="Group_201" data-name="Group 201" transform="translate(-672.719 -1425.52)">
    <g id="Group_194" data-name="Group 194" transform="translate(673.219 1433.059)">
      <path id="Path_801" data-name="Path 801" d="M111.414,144.815l-.053-64.239,435.745.309-.164,492.756H454.528" transform="translate(-111.361 -80.577)" fill="none" stroke="#243a77" stroke-linecap="round" stroke-linejoin="round" stroke-miterlimit="10" stroke-width="1"/>
      <path id="Path_802" data-name="Path 802" d="M111.4,126.3V556.211H454.195V476.475H512.82V449.252H421.031v78.907H146.607" transform="translate(-111.339 -63.114)" fill="none" stroke="#243a77" stroke-linecap="round" stroke-linejoin="round" stroke-miterlimit="10" stroke-width="1"/>
      <path id="Path_803" data-name="Path 803" d="M535.021,400.285H380.2v79.874H132.5v-189.6H284.015V180.7H164.563" transform="translate(-99.276 -42.339)" fill="none" stroke="#243a77" stroke-linecap="round" stroke-linejoin="round" stroke-miterlimit="10" stroke-width="1"/>
      <path id="Path_804" data-name="Path 804" d="M466.739,320.1H192" transform="translate(-65.258 10.899)" fill="none" stroke="#243a77" stroke-linecap="round" stroke-linejoin="round" stroke-miterlimit="10" stroke-width="1"/>
      <path id="Path_805" data-name="Path 805" d="M324,342.594v53.48H170.6V316.338H356.536V261.2" transform="translate(-77.493 -11.595)" fill="none" stroke="#243a77" stroke-linecap="round" stroke-linejoin="round" stroke-miterlimit="10" stroke-width="1"/>
      <path id="Path_806" data-name="Path 806" d="M337.879,458.83H151V328.378H307.073V160.2H181.806v28.329" transform="translate(-88.699 -50.168)" fill="none" stroke="#243a77" stroke-linecap="round" stroke-linejoin="round" stroke-miterlimit="10" stroke-width="1"/>
      <line id="Line_13" data-name="Line 13" x2="122.752" transform="translate(93.107 358.637)" fill="none" stroke="#243a77" stroke-linecap="round" stroke-linejoin="round" stroke-miterlimit="10" stroke-width="1"/>
      <line id="Line_14" data-name="Line 14" x2="33.635" transform="translate(245.408 278.21)" fill="none" stroke="#243a77" stroke-linecap="round" stroke-linejoin="round" stroke-miterlimit="10" stroke-width="1"/>
      <line id="Line_15" data-name="Line 15" y2="56.105" transform="translate(309.535 274.894)" fill="none" stroke="#243a77" stroke-linecap="round" stroke-linejoin="round" stroke-miterlimit="10" stroke-width="1"/>
      <line id="Line_16" data-name="Line 16" y2="56.105" transform="translate(370.361 274.894)" fill="none" stroke="#243a77" stroke-linecap="round" stroke-linejoin="round" stroke-miterlimit="10" stroke-width="1"/>
      <line id="Line_17" data-name="Line 17" y1="49.196" transform="translate(340.655 249.605)" fill="none" stroke="#243a77" stroke-linecap="round" stroke-linejoin="round" stroke-miterlimit="10" stroke-width="1"/>
      <path id="Path_807" data-name="Path 807" d="M434.321,363.748v-76.7H311.884V229.98H434.321v-55H311.884V121.5H248.7" transform="translate(-32.84 -64.948)" fill="none" stroke="#243a77" stroke-linecap="round" stroke-linejoin="round" stroke-miterlimit="10" stroke-width="1"/>
      <path id="Path_808" data-name="Path 808" d="M193.012,249.812V223.28H131.4V167.036h30.806V142.3H349.085V305.227h152.3" transform="translate(-99.905 -57.004)" fill="none" stroke="#243a77" stroke-linecap="round" stroke-linejoin="round" stroke-miterlimit="10" stroke-width="1"/>
      <line id="Line_18" data-name="Line 18" x1="31.435" transform="translate(0.061 85.296)" fill="none" stroke="#243a77" stroke-linecap="round" stroke-linejoin="round" stroke-miterlimit="10" stroke-width="1"/>
      <line id="Line_19" data-name="Line 19" x1="149.629" transform="translate(0.061 192.808)" fill="none" stroke="#243a77" stroke-linecap="round" stroke-linejoin="round" stroke-miterlimit="10" stroke-width="1"/>
      <line id="Line_20" data-name="Line 20" x1="149.629" transform="translate(34.796 221.276)" fill="none" stroke="#243a77" stroke-linecap="round" stroke-linejoin="round" stroke-miterlimit="10" stroke-width="1"/>
      <line id="Line_21" data-name="Line 21" x1="56.582" transform="translate(127.843 166.829)" fill="none" stroke="#243a77" stroke-linecap="round" stroke-linejoin="round" stroke-miterlimit="10" stroke-width="1"/>
      <line id="Line_22" data-name="Line 22" x2="124.638" transform="translate(311.107 192.808)" fill="none" stroke="#243a77" stroke-linecap="round" stroke-linejoin="round" stroke-miterlimit="10" stroke-width="1"/>
      <line id="Line_23" data-name="Line 23" x2="117.566" transform="translate(249.18 138.361)" fill="none" stroke="#243a77" stroke-linecap="round" stroke-linejoin="round" stroke-miterlimit="10" stroke-width="1"/>
      <path id="Path_809" data-name="Path 809" d="M433.938,157.805H309.3V129.062h90.375V101.7" transform="translate(1.807 -72.509)" fill="none" stroke="#243a77" stroke-linecap="round" stroke-linejoin="round" stroke-miterlimit="10" stroke-width="1"/>
      <path id="Path_810" data-name="Path 810" d="M413.435,101.7H229.7v56.105" transform="translate(-43.703 -72.509)" fill="none" stroke="#243a77" stroke-linecap="round" stroke-linejoin="round" stroke-miterlimit="10" stroke-width="1"/>
      <path id="Path_811" data-name="Path 811" d="M197.92,109.682H170.1v27.362h63.341V80.8" transform="translate(-77.779 -80.491)" fill="none" stroke="#243a77" stroke-linecap="round" stroke-linejoin="round" stroke-miterlimit="10" stroke-width="1"/>
    </g>
    <path id="Path_870" data-name="Path 870" d="M0,0H433.8V506.465H0Z" transform="translate(678.574 1425.52)" fill="url(#radial-gradient)"/>
  </g>
</svg>
