<svg xmlns="http://www.w3.org/2000/svg" xmlns:xlink="http://www.w3.org/1999/xlink" width="429.87" height="506.465" viewBox="0 0 429.87 506.465">
  <defs>
    <radialGradient id="radial-gradient" cx="0.5" cy="0.5" r="0.673" gradientTransform="matrix(1, 0, 0, 0.46, 0, 0.27)" gradientUnits="objectBoundingBox">
      <stop offset="0" stop-color="#fff" stop-opacity="0.71"/>
      <stop offset="1" stop-color="#fff"/>
    </radialGradient>
  </defs>
  <g id="Group_368" data-name="Group 368" transform="translate(1.025 -38.076)">
    <g id="Group_201" data-name="Group 201" transform="translate(-678.574 -1387.444)">
      <g id="Group_194" data-name="Group 194" transform="translate(678.574 1433.059)">
        <path id="Path_801" data-name="Path 801" d="M111.413,144.815l-.052-64.239,428,.309L539.2,573.641H448.429" transform="translate(-111.361 -80.577)" fill="none" stroke="#243a77" stroke-linecap="round" stroke-linejoin="round" stroke-miterlimit="10" stroke-width="1"/>
        <path id="Path_802" data-name="Path 802" d="M111.4,126.3V556.211H448.1V476.475h57.584V449.252H415.528v78.907H145.981" transform="translate(-111.34 -63.114)" fill="none" stroke="#243a77" stroke-linecap="round" stroke-linejoin="round" stroke-miterlimit="10" stroke-width="1"/>
        <path id="Path_803" data-name="Path 803" d="M527.866,400.285H375.8v79.874H132.5v-189.6H281.322V180.7H163.993" transform="translate(-99.866 -42.339)" fill="none" stroke="#243a77" stroke-linecap="round" stroke-linejoin="round" stroke-miterlimit="10" stroke-width="1"/>
        <path id="Path_804" data-name="Path 804" d="M461.855,320.1H192" transform="translate(-67.51 10.899)" fill="none" stroke="#243a77" stroke-linecap="round" stroke-linejoin="round" stroke-miterlimit="10" stroke-width="1"/>
        <path id="Path_805" data-name="Path 805" d="M321.274,342.594v53.48H170.6V316.338H353.231V261.2" transform="translate(-79.148 -11.595)" fill="none" stroke="#243a77" stroke-linecap="round" stroke-linejoin="round" stroke-miterlimit="10" stroke-width="1"/>
        <path id="Path_806" data-name="Path 806" d="M334.557,458.83H151V328.378H304.3V160.2H181.258v28.329" transform="translate(-89.806 -50.168)" fill="none" stroke="#243a77" stroke-linecap="round" stroke-linejoin="round" stroke-miterlimit="10" stroke-width="1"/>
        <line id="Line_13" data-name="Line 13" x2="120.57" transform="translate(91.452 358.637)" fill="none" stroke="#243a77" stroke-linecap="round" stroke-linejoin="round" stroke-miterlimit="10" stroke-width="1"/>
        <line id="Line_14" data-name="Line 14" x2="33.037" transform="translate(241.046 278.21)" fill="none" stroke="#243a77" stroke-linecap="round" stroke-linejoin="round" stroke-miterlimit="10" stroke-width="1"/>
        <line id="Line_15" data-name="Line 15" y2="56.105" transform="translate(304.033 274.894)" fill="none" stroke="#243a77" stroke-linecap="round" stroke-linejoin="round" stroke-miterlimit="10" stroke-width="1"/>
        <line id="Line_16" data-name="Line 16" y2="56.105" transform="translate(363.778 274.894)" fill="none" stroke="#243a77" stroke-linecap="round" stroke-linejoin="round" stroke-miterlimit="10" stroke-width="1"/>
        <line id="Line_17" data-name="Line 17" y1="49.196" transform="translate(334.6 249.605)" fill="none" stroke="#243a77" stroke-linecap="round" stroke-linejoin="round" stroke-miterlimit="10" stroke-width="1"/>
        <path id="Path_807" data-name="Path 807" d="M431.022,363.748v-76.7H310.761V229.98H431.022v-55H310.761V121.5H248.7" transform="translate(-36.677 -64.948)" fill="none" stroke="#243a77" stroke-linecap="round" stroke-linejoin="round" stroke-miterlimit="10" stroke-width="1"/>
        <path id="Path_808" data-name="Path 808" d="M191.917,249.812V223.28H131.4V167.036h30.258V142.3H345.216V305.227H494.81" transform="translate(-100.464 -57.004)" fill="none" stroke="#243a77" stroke-linecap="round" stroke-linejoin="round" stroke-miterlimit="10" stroke-width="1"/>
        <line id="Line_18" data-name="Line 18" x1="30.876" transform="translate(0.06 85.296)" fill="none" stroke="#243a77" stroke-linecap="round" stroke-linejoin="round" stroke-miterlimit="10" stroke-width="1"/>
        <line id="Line_19" data-name="Line 19" x1="146.969" transform="translate(0.06 192.808)" fill="none" stroke="#243a77" stroke-linecap="round" stroke-linejoin="round" stroke-miterlimit="10" stroke-width="1"/>
        <line id="Line_20" data-name="Line 20" x1="146.969" transform="translate(34.178 221.276)" fill="none" stroke="#243a77" stroke-linecap="round" stroke-linejoin="round" stroke-miterlimit="10" stroke-width="1"/>
        <line id="Line_21" data-name="Line 21" x1="55.577" transform="translate(125.57 166.829)" fill="none" stroke="#243a77" stroke-linecap="round" stroke-linejoin="round" stroke-miterlimit="10" stroke-width="1"/>
        <line id="Line_22" data-name="Line 22" x2="122.423" transform="translate(305.577 192.808)" fill="none" stroke="#243a77" stroke-linecap="round" stroke-linejoin="round" stroke-miterlimit="10" stroke-width="1"/>
        <line id="Line_23" data-name="Line 23" x2="115.476" transform="translate(244.751 138.361)" fill="none" stroke="#243a77" stroke-linecap="round" stroke-linejoin="round" stroke-miterlimit="10" stroke-width="1"/>
        <path id="Path_809" data-name="Path 809" d="M431.723,157.805H309.3V129.062h88.768V101.7" transform="translate(-3.723 -72.509)" fill="none" stroke="#243a77" stroke-linecap="round" stroke-linejoin="round" stroke-miterlimit="10" stroke-width="1"/>
        <path id="Path_810" data-name="Path 810" d="M410.17,101.7H229.7v56.105" transform="translate(-47.009 -72.509)" fill="none" stroke="#243a77" stroke-linecap="round" stroke-linejoin="round" stroke-miterlimit="10" stroke-width="1"/>
        <path id="Path_811" data-name="Path 811" d="M197.425,109.682H170.1v27.362h62.215V80.8" transform="translate(-79.419 -80.491)" fill="none" stroke="#243a77" stroke-linecap="round" stroke-linejoin="round" stroke-miterlimit="10" stroke-width="1"/>
      </g>
      <path id="Path_870" data-name="Path 870" d="M0,0H429.87V506.465H0Z" transform="translate(677.549 1425.52)" fill="url(#radial-gradient)"/>
    </g>
    <g id="Group_367" data-name="Group 367">
      <g id="Component_20_6" data-name="Component 20 – 6" transform="translate(70.5 230.07)">
        <path id="Path_726" data-name="Path 726" d="M.32.9,7.848-30.534a11.336,11.336,0,0,1,4.244-6.529A11.938,11.938,0,0,1,19.5-39.521h3.8L13.775.5a1.58,1.58,0,0,0,.36,1.33,1.555,1.555,0,0,0,1.241.564l31.673.04q-.16.6-.4,1.572-.44,1.814-.981,4.111t-1,4.191q-.46,1.894-.621,2.539H11.933a11.5,11.5,0,0,1-9.29-4.232A10.63,10.63,0,0,1,.32.9ZM175.5-27.068H209.86q.12-.6.581-2.539t1.021-4.212q.561-2.277.961-3.99l.4-1.713H173.743q-8.008,0-11.412,8.786-.16.645-.661,2.72t-1.041,4.252q-.541,2.176-.781,3.1l-.08.363v.121a11.061,11.061,0,0,0,2,9.793,10.462,10.462,0,0,0,8.689,4.151h19.7a1.37,1.37,0,0,1,1.161.6,1.32,1.32,0,0,1,.16,1.33q-.08.322-.28,1.149t-.42,1.793q-.22.967-.4,1.693l-.18.725a1.582,1.582,0,0,1-1.562,1.169H154.322q-.12.6-.581,2.559T152.72,9.063q-.561,2.317-.961,4.05l-.4,1.733H190.4a11.322,11.322,0,0,0,7.288-2.5,12.361,12.361,0,0,0,4.2-6.529q.08-.484.48-2.1t.861-3.506q.46-1.894.8-3.285t.34-1.471a.311.311,0,0,0,.04-.121,11.232,11.232,0,0,0-2-9.753,10.316,10.316,0,0,0-8.649-4.272H174.183a1.4,1.4,0,0,1-1.161-.564,1.653,1.653,0,0,1-.32-1.33q.08-.322.28-1.149t.42-1.793q.22-.967.4-1.693l.18-.725a2.009,2.009,0,0,1,.561-.806A1.484,1.484,0,0,1,175.5-27.068Zm67.911,41.914,10.571-41.995H236.128l3-12.373h47.81L283.9-27.149H266.6L256.189,14.846Z" transform="translate(0 48.154)" fill="#2db0de"/>
        <g id="Group_144" data-name="Group 144" transform="translate(80.607 -0.18) rotate(14)">
          <g id="Component_19_2" data-name="Component 19 – 2" transform="translate(0.279 0.116)">
            <g id="Group_136" data-name="Group 136" transform="translate(16.674 36.893)">
              <g id="Group_137" data-name="Group 137" transform="translate(0)">
                <g id="Group_11" data-name="Group 11">
                  <g id="Group_8" data-name="Group 8" transform="translate(0 12.266)">
                    <g id="Group_7" data-name="Group 7" transform="translate(0 0)">
                      <g id="Group_6" data-name="Group 6" transform="translate(0 0)">
                        <g id="Group_5" data-name="Group 5">
                          <g id="Group_4" data-name="Group 4">
                            <g id="Group_3" data-name="Group 3">
                              <g id="Group_2" data-name="Group 2">
                                <path id="Path_2" data-name="Path 2" d="M0,0H10V25.591H0Z" transform="translate(11.032 0)" fill="#2699c2"/>
                                <path id="Path_3" data-name="Path 3" d="M22.387,11.955,11.955,22.387a2,2,0,0,1-2.824.124L.007,13.387Q6.7,6.7,13.387.007L22.511,9.13A2,2,0,0,1,22.387,11.955Z" transform="translate(16.277 18.435) rotate(45)" fill="#fcb44d"/>
                                <path id="Path_4" data-name="Path 4" d="M14.308,11.951l-3.832,3.832L0,5.309Q2.658,2.657,5.309,0l9.124,9.124A2,2,0,0,1,14.308,11.951Z" transform="translate(21.986 24.15) rotate(45)" fill="#fb9927"/>
                                <path id="Path_5" data-name="Path 5" d="M3.689,17.069,17.069,3.689,14.285.9a3.427,3.427,0,0,0-4.832.212L1.116,9.453A3.427,3.427,0,0,0,.9,14.285Z" transform="translate(16.277 16.442) rotate(45)" fill="#fcb44d"/>
                                <path id="Path_6" data-name="Path 6" d="M4.836,6.208,7.924,9.294c1.769-1.769,3.35-3.716,5.118-5.485L10.142.9a3.429,3.429,0,0,0-4.833.212L0,6.42A3.428,3.428,0,0,1,4.836,6.208Z" transform="translate(19.204 19.373) rotate(45)" fill="#fb9927"/>
                              </g>
                            </g>
                          </g>
                        </g>
                      </g>
                    </g>
                  </g>
                  <g id="Group_10" data-name="Group 10" transform="translate(17.522)">
                    <g id="Group_9" data-name="Group 9">
                      <path id="Path_8" data-name="Path 8" d="M223.652,287.73a.356.356,0,0,0,.044,0v0Z" transform="translate(-223.652 -287.728)" fill="#31a7fb"/>
                    </g>
                  </g>
                </g>
              </g>
            </g>
            <g id="Group_142" data-name="Group 142">
              <ellipse id="Ellipse_1" data-name="Ellipse 1" cx="30.922" cy="30.922" rx="30.922" ry="30.922" fill="#2db0de"/>
              <g id="Group_141" data-name="Group 141" transform="translate(9.703 9.992)">
                <g id="Group_143" data-name="Group 143">
                  <g id="Group_140" data-name="Group 140">
                    <g id="Group_14" data-name="Group 14">
                      <g id="Group_13" data-name="Group 13">
                        <path id="Path_11" data-name="Path 11" d="M77.652,57.592A21.241,21.241,0,0,1,61.232,78.276V68.394H57.34V78.8q-.459.019-.921.019A21.233,21.233,0,1,1,77.652,57.592Z" transform="translate(-35.185 -36.359)" fill="#fff"/>
                        <path id="Path_12" data-name="Path 12" d="M125.96,332.026a21.2,21.2,0,0,0,7.167-1.239v3.241q-.459.019-.921.019a21.156,21.156,0,0,1-9.592-2.284A21.333,21.333,0,0,0,125.96,332.026Z" transform="translate(-110.972 -291.582)" fill="#fff"/>
                        <path id="Path_13" data-name="Path 13" d="M237.672,59.3a21.241,21.241,0,0,1-16.418,20.684V75.411a21.241,21.241,0,0,0-1.466-37.077A21.236,21.236,0,0,1,237.672,59.3Z" transform="translate(-195.207 -38.071)" fill="none"/>
                        <path id="Path_14" data-name="Path 14" d="M197.836,264.478v11.171a21.216,21.216,0,0,1-6.2.918c-.155,0-.309,0-.462-.005V264.478Z" transform="translate(-170.406 -234.103)" fill="#ffc4af"/>
                      </g>
                    </g>
                    <g id="Group_139" data-name="Group 139" transform="translate(7.591 4.851)">
                      <path id="Path_15" data-name="Path 15" d="M197.836,264.476v6.164a8.208,8.208,0,0,1-6.658,4.156V264.476h6.658Z" transform="translate(-177.997 -238.952)" fill="#fcac8d"/>
                      <g id="Group_18" data-name="Group 18" transform="translate(3.578 12.508)">
                        <path id="Path_16" data-name="Path 16" d="M137.063,166.723v10.771a9,9,0,0,1-18.006,0V166.723Z" transform="translate(-119.057 -166.723)" fill="#ffdbce"/>
                        <path id="Path_17" data-name="Path 17" d="M137.066,166.722v10.066h-.551l-.86-4.027a1.209,1.209,0,0,0-1.482-.891c-2.4.621-9.381,3.047-15.112,2.2v-7.348h18Z" transform="translate(-119.06 -166.722)" fill="#ffc4af"/>
                        <g id="Group_16" data-name="Group 16" transform="translate(16.555 10.645)">
                          <path id="Path_18" data-name="Path 18" d="M244.837,246.755v.04a8.977,8.977,0,0,1-.241,2.074,3.706,3.706,0,0,1-.61-.221,1.037,1.037,0,0,1,.851-1.892Z" transform="translate(-243.386 -246.668)" fill="#ffc4af"/>
                        </g>
                        <g id="Group_17" data-name="Group 17" transform="translate(14.711 1.205)">
                          <path id="Path_19" data-name="Path 19" d="M232.833,175.772v2.252a3.385,3.385,0,0,0-1.315,1.5,1.038,1.038,0,1,1-1.881-.877,5.408,5.408,0,0,1,2.538-2.623A4.551,4.551,0,0,1,232.833,175.772Z" transform="translate(-229.539 -175.772)" fill="#fcac8d"/>
                        </g>
                      </g>
                      <g id="Group_19" data-name="Group 19">
                        <path id="Path_20" data-name="Path 20" d="M92.443,83.727s-.02-4.655,3.433-6.405a.688.688,0,0,0,.286-.942l-.125-.229a1.058,1.058,0,0,1,.69-1.537,42.63,42.63,0,0,0,4.309-1.265c3.474-1.2,14.339-1,16.73,6.141,2.091,6.248-1.994,12.71-1.994,12.71l-2.7.187-1.107-3.544a1.211,1.211,0,0,0-1.54-.787c-2.413.805-9.543,3.079-15.405,2.479a1.037,1.037,0,0,1-.9-1.262l.265-1.178a.692.692,0,0,0-.722-.842l-.36.025a1.04,1.04,0,0,1-1.106-1.144Z" transform="translate(-92.189 -72.791)" fill="#fca62f"/>
                        <path id="Path_21" data-name="Path 21" d="M155.451,92.2l-2.7.187-.083-.265c1.054-2.122,2.941-6.91,1.377-11.579-2.255-6.739-12.063-7.3-16.078-6.329.775-.217,1.7-.5,2.752-.865,3.475-1.2,14.34-1,16.73,6.141C159.536,85.738,155.451,92.2,155.451,92.2Z" transform="translate(-131.867 -72.792)" fill="#f98824"/>
                      </g>
                      <g id="Group_20" data-name="Group 20" transform="translate(18.22 14.531)">
                        <ellipse id="Ellipse_2" data-name="Ellipse 2" cx="3.942" cy="3.26" rx="3.942" ry="3.26" transform="matrix(0.422, -0.907, 0.907, 0.422, 0, 7.152)" fill="#ffdbce"/>
                      </g>
                      <path id="Path_22" data-name="Path 22" d="M140.227,222.8a1.037,1.037,0,0,1-1.037-1.037v-.594a1.037,1.037,0,0,1,2.075,0v.594A1.037,1.037,0,0,1,140.227,222.8Z" transform="translate(-132.932 -200.516)" fill="#3f5959"/>
                      <path id="Path_23" data-name="Path 23" d="M196.292,222.8a1.037,1.037,0,0,1-1.037-1.037v-.594a1.037,1.037,0,0,1,2.075,0v.594A1.037,1.037,0,0,1,196.292,222.8Z" transform="translate(-181.531 -200.516)" fill="#3f5959"/>
                      <path id="Path_24" data-name="Path 24" d="M163.04,265.285a2.842,2.842,0,0,1-2.792-2.317,1.038,1.038,0,0,1,2.04-.382.766.766,0,0,0,1.506,0,1.037,1.037,0,0,1,2.039.383A2.842,2.842,0,0,1,163.04,265.285Z" transform="translate(-151.169 -236.58)" fill="#fcac8d"/>
                    </g>
                  </g>
                  <g id="Group_27" data-name="Group 27" transform="translate(17.837 8.579)">
                    <path id="Path_25" data-name="Path 25" d="M180.992,106.513a1.038,1.038,0,0,1-.946-.61c-1.453-3.213-7.526-3.213-9.744-2.94a1.037,1.037,0,1,1-.252-2.06c.388-.047,9.514-1.1,11.887,4.145a1.038,1.038,0,0,1-.945,1.465Z" transform="translate(-169.138 -100.786)" fill="#ef7a22"/>
                  </g>
                </g>
              </g>
            </g>
          </g>
        </g>
      </g>
    </g>
  </g>
</svg>
