<svg xmlns="http://www.w3.org/2000/svg" width="232.406" height="216.156" viewBox="0 0 232.406 216.156">
  <g id="Group_322" data-name="Group 322" transform="translate(-97.797 -537.577)">
    <g id="Lost-girl" transform="translate(65.897 484.743)">
      <g id="freepik--Floor--inject-2" transform="translate(31.9 138.565)">
        <g id="freepik--floor--inject-2-2" data-name="freepik--floor--inject-2">
          <ellipse id="freepik--floor--inject-2-3" data-name="freepik--floor--inject-2" cx="112.954" cy="65.212" rx="112.954" ry="65.212" fill="#ebebeb"/>
          <path id="freepik--Road--inject-2" d="M293.753,302.162c-.026-14.953-8.907-29.9-26.639-42l-.952-.64L106.83,351.511h0l.983.484c20.957,10.27,46.919,15.426,72.871,15.442Z" transform="translate(-67.845 -237.013)" fill="#fafafa"/>
        </g>
      </g>
      <g id="freepik--Shadows--inject-2" transform="translate(42.613 144.996)">
        <ellipse id="freepik--shadow--inject-2" cx="29.214" cy="16.868" rx="29.214" ry="16.868" transform="translate(109.665 57.018)" opacity="0.05"/>
      </g>
      <g id="freepik--Trees--inject-2" transform="translate(45.464 52.834)">
        <ellipse id="freepik--Shadow--inject-2-2" data-name="freepik--Shadow--inject-2" cx="19.896" cy="11.488" rx="19.896" ry="11.488" transform="translate(66.731 90.696)" fill="#e0e0e0"/>
        <g id="freepik--Pine--inject-2" transform="translate(56.32)">
          <path id="Path_352" data-name="Path 352" d="M191,143.5v55.67a2.251,2.251,0,0,0,1.327,1.847,7.086,7.086,0,0,0,6.389,0,2.264,2.264,0,0,0,1.327-1.847V143.5Z" transform="translate(-165.277 -97.091)" fill="#b16668"/>
          <path id="Path_353" data-name="Path 353" d="M201.731,136.516l-28-67.616h-3.9l-28,67.637a3.585,3.585,0,0,0,2.6,4.88l.458.088a3.574,3.574,0,0,1,2.851,3.954h0a3.585,3.585,0,0,0,4.6,3.866l1.384-.427a3.574,3.574,0,0,1,4.308,1.941l1.394,3.07a3.579,3.579,0,0,0,5.083,1.6l5.432-3.221a3.564,3.564,0,0,1,3.642,0l5.432,3.221a3.58,3.58,0,0,0,5.083-1.6l1.389-3.07a3.58,3.58,0,0,1,4.313-1.941l1.384.421a3.574,3.574,0,0,0,4.6-3.86h0a3.585,3.585,0,0,1,2.856-3.954l.458-.088a3.58,3.58,0,0,0,2.627-4.9Z" transform="translate(-141.559 -61.304)" fill="#2db0de"/>
          <path id="Path_354" data-name="Path 354" d="M201.731,136.516l-28-67.616h-3.9l-28,67.637a3.585,3.585,0,0,0,2.6,4.88l.458.088a3.574,3.574,0,0,1,2.851,3.954h0a3.585,3.585,0,0,0,4.6,3.866l1.384-.427a3.574,3.574,0,0,1,4.308,1.941l1.394,3.07a3.579,3.579,0,0,0,5.083,1.6l5.432-3.221a3.564,3.564,0,0,1,3.642,0l5.432,3.221a3.58,3.58,0,0,0,5.083-1.6l1.389-3.07a3.58,3.58,0,0,1,4.313-1.941l1.384.421a3.574,3.574,0,0,0,4.6-3.86h0a3.585,3.585,0,0,1,2.856-3.954l.458-.088a3.58,3.58,0,0,0,2.627-4.9Z" transform="translate(-141.559 -61.304)" opacity="0.3"/>
          <path id="Path_355" data-name="Path 355" d="M172.179,76.867,175.3,69.76h3.9L184.374,81.8l16.9,40.806a2.081,2.081,0,0,1-1.764,1.675h0a2.705,2.705,0,0,0-2.248,2.981l.057.52a2.7,2.7,0,0,1-3.642,2.841l-1.384-.52a2.705,2.705,0,0,0-3.434,1.426l-1.717,3.855a2.716,2.716,0,0,1-3.861,1.223l-4.641-3.122a2.705,2.705,0,0,0-2.773,0l-5.177,3.122a2.716,2.716,0,0,1-3.86-1.223l-1.717-3.855a2.705,2.705,0,0,0-3.434-1.426l-1.384.52a2.705,2.705,0,0,1-3.642-2.841l.062-.52a2.705,2.705,0,0,0-2.248-2.981,2.04,2.04,0,0,1-1.5-1Z" transform="translate(-147.033 -61.716)" opacity="0.1"/>
          <path id="Path_356" data-name="Path 356" d="M200.625,114.37,178.872,63.71h-3.9l-22.32,50.66c-.8,1.629-.343,3.569,1.452,3.866a2.705,2.705,0,0,1,2.248,2.981l-.062.52a2.711,2.711,0,0,0,3.642,2.846l1.384-.52a2.705,2.705,0,0,1,3.434,1.426l1.717,3.855a2.705,2.705,0,0,0,3.861,1.223l5.177-3.09a2.705,2.705,0,0,1,2.773,0l4.641,3.09a2.705,2.705,0,0,0,3.861-1.223l1.717-3.855a2.706,2.706,0,0,1,3.434-1.426l1.384.52a2.705,2.705,0,0,0,3.642-2.846l-.057-.52a2.711,2.711,0,0,1,2.248-2.986h0C200.974,117.939,201.432,116,200.625,114.37Z" transform="translate(-146.697 -58.814)" fill="#2db0de"/>
          <path id="Path_357" data-name="Path 357" d="M200.625,114.37,178.872,63.71h-3.9l-22.32,50.66c-.8,1.629-.343,3.569,1.452,3.866a2.705,2.705,0,0,1,2.248,2.981l-.062.52a2.711,2.711,0,0,0,3.642,2.846l1.384-.52a2.705,2.705,0,0,1,3.434,1.426l1.717,3.855a2.705,2.705,0,0,0,3.861,1.223l5.177-3.09a2.705,2.705,0,0,1,2.773,0l4.641,3.09a2.705,2.705,0,0,0,3.861-1.223l1.717-3.855a2.706,2.706,0,0,1,3.434-1.426l1.384.52a2.705,2.705,0,0,0,3.642-2.846l-.057-.52a2.711,2.711,0,0,1,2.248-2.986h0C200.974,117.939,201.432,116,200.625,114.37Z" transform="translate(-146.697 -58.814)" opacity="0.2"/>
          <path id="Path_358" data-name="Path 358" d="M181.034,63.71h3.9l15.853,36.914a2.212,2.212,0,0,1-.4.281l-.12.068a2.456,2.456,0,0,0-1.238,2.336h0a2.435,2.435,0,0,1-3.049,2.565l-.947-.25a2.435,2.435,0,0,0-2.768,1.207l-1.3,2.419a2.445,2.445,0,0,1-3.278,1.009l-3.58-1.873a2.44,2.44,0,0,0-2.258,0l-3.58,1.873A2.445,2.445,0,0,1,175,109.25l-1.3-2.419a2.44,2.44,0,0,0-2.773-1.207l-.942.25a2.435,2.435,0,0,1-3.049-2.565,2.44,2.44,0,0,0-1.238-2.331l-.12-.068a2.461,2.461,0,0,1-.671-.567Z" transform="translate(-152.761 -58.814)" opacity="0.1"/>
          <path id="Path_359" data-name="Path 359" d="M200.74,89.929,184.387,55.554l-.13-.208a2.081,2.081,0,0,0-3.611,0l-.13.213-16.353,34.37a2.435,2.435,0,0,0,.884,3.408l.12.068a2.445,2.445,0,0,1,1.238,2.331,2.435,2.435,0,0,0,3.049,2.565l.942-.25a2.445,2.445,0,0,1,2.773,1.207l1.3,2.419a2.44,2.44,0,0,0,3.278,1.009l3.58-1.868a2.44,2.44,0,0,1,2.258,0l3.58,1.868a2.44,2.44,0,0,0,3.278-1.009l1.3-2.419a2.44,2.44,0,0,1,2.768-1.207l.947.25a2.435,2.435,0,0,0,3.049-2.565h0a2.445,2.445,0,0,1,1.238-2.331l.12-.068a2.435,2.435,0,0,0,.884-3.408Z" transform="translate(-152.228 -54.3)" fill="#2db0de"/>
          <path id="Path_360" data-name="Path 360" d="M200.74,89.929,184.387,55.554l-.13-.208a2.081,2.081,0,0,0-3.611,0l-.13.213-16.353,34.37a2.435,2.435,0,0,0,.884,3.408l.12.068a2.445,2.445,0,0,1,1.238,2.331,2.435,2.435,0,0,0,3.049,2.565l.942-.25a2.445,2.445,0,0,1,2.773,1.207l1.3,2.419a2.44,2.44,0,0,0,3.278,1.009l3.58-1.868a2.44,2.44,0,0,1,2.258,0l3.58,1.868a2.44,2.44,0,0,0,3.278-1.009l1.3-2.419a2.44,2.44,0,0,1,2.768-1.207l.947.25a2.435,2.435,0,0,0,3.049-2.565h0a2.445,2.445,0,0,1,1.238-2.331l.12-.068a2.435,2.435,0,0,0,.884-3.408Z" transform="translate(-152.228 -54.3)" opacity="0.1"/>
          <path id="Path_361" data-name="Path 361" d="M190.341,251.369a2.778,2.778,0,0,0-5.551,0v.156a1.42,1.42,0,0,0,.812,1.041,4.355,4.355,0,0,0,3.928,0,1.431,1.431,0,0,0,.812-1.041v-.156Z" transform="translate(-162.298 -147.562)" fill="#37474f"/>
          <path id="Path_362" data-name="Path 362" d="M189.822,252.874a1.431,1.431,0,0,0,.812-1.041v-.156a2.773,2.773,0,0,0-1.446-2.357c0,.031,1.384,1.743.375,2.888-.7.791-3.122.937-4.162.312a1.877,1.877,0,0,0,.479.369A4.355,4.355,0,0,0,189.822,252.874Z" transform="translate(-162.59 -147.854)" fill="#263238"/>
          <path id="Path_363" data-name="Path 363" d="M183.218,254.795a1.961,1.961,0,0,0-3.918,0v.109a1,1,0,0,0,.572.744,3.064,3.064,0,0,0,2.773,0,1,1,0,0,0,.572-.744.214.214,0,0,0,0-.057.178.178,0,0,0,0-.052Z" transform="translate(-159.664 -149.588)" fill="#455a64"/>
          <path id="Path_364" data-name="Path 364" d="M182.689,256.764a1,1,0,0,0,.572-.744.214.214,0,0,0,0-.057.177.177,0,0,0,0-.052,1.93,1.93,0,0,0-.13-.65c.047.838-.349,1.348-1.587,1.509a2.471,2.471,0,0,1-2.154-.562,1.113,1.113,0,0,0,.52.557,3.064,3.064,0,0,0,2.778,0Z" transform="translate(-159.707 -150.704)" fill="#37474f"/>
          <path id="Path_365" data-name="Path 365" d="M210.875,251.039a1.946,1.946,0,0,0-3.887,0,.177.177,0,0,0,0,.052.212.212,0,0,0,0,.057.978.978,0,0,0,.567.739,3.054,3.054,0,0,0,2.752,0,.994.994,0,0,0,.567-.739Z" transform="translate(-172.946 -147.793)" fill="#455a64"/>
          <path id="Path_366" data-name="Path 366" d="M210.362,252.993a.994.994,0,0,0,.567-.739v-.109a1.874,1.874,0,0,0-.13-.645c.047.832-.349,1.337-1.561,1.493a2.51,2.51,0,0,1-2.138-.552,1.124,1.124,0,0,0,.52.552A3.054,3.054,0,0,0,210.362,252.993Z" transform="translate(-173 -148.9)" fill="#37474f"/>
        </g>
      </g>
      <g id="freepik--Signals--inject-2" transform="translate(219.775 90.543)">
        <g id="freepik--Signal--inject-2">
          <path id="Path_389" data-name="Path 389" d="M435.919,125.083a.994.994,0,0,0-.572-.786,3.122,3.122,0,0,0-2.789,0,1,1,0,0,0-.577.786h0v98.766c0,.614.879,1.113,1.967,1.113s1.972-.52,1.972-1.113h0V125.083Z" transform="translate(-411.699 -123.964)" fill="#37474f"/>
          <ellipse id="Ellipse_8" data-name="Ellipse 8" cx="1.972" cy="1.119" rx="1.972" ry="1.119" transform="translate(20.275)" fill="#455a64"/>
          <path id="Path_390" data-name="Path 390" d="M449.524,178.575l-3.866-6.7L419.946,157.04,418,158.164v8.928l25.712,14.833,1.982-1.093Z" transform="translate(-404.993 -139.829)" fill="#2db0de"/>
          <path id="Path_391" data-name="Path 391" d="M418,159.2l25.712,14.833,3.866,6.7-3.866,2.232L418,168.128Z" transform="translate(-404.993 -140.865)" fill="#2db0de"/>
          <g id="Group_107" data-name="Group 107" transform="translate(13.007 18.335)" opacity="0.3">
            <path id="Path_392" data-name="Path 392" d="M418,159.2l25.712,14.833,3.876,6.717-3.876,2.211L418,168.128Z" transform="translate(-418 -159.2)"/>
          </g>
          <path id="Path_393" data-name="Path 393" d="M445.658,171.873,443.712,173,418,158.164l1.946-1.124Z" transform="translate(-404.993 -139.829)" opacity="0.1"/>
          <path id="Path_394" data-name="Path 394" d="M467.42,186.674l1.946-1.124,3.866,6.7-1.935,1.139Z" transform="translate(-428.7 -153.506)" opacity="0.2"/>
          <path id="Path_395" data-name="Path 395" d="M435.068,141,409.356,126.14l-3.866,2.232,3.866,6.7,25.712,14.854Z" transform="translate(-398.992 -125.006)" fill="#2db0de"/>
          <path id="Path_396" data-name="Path 396" d="M412.92,125.094l1.889-1.134,25.754,14.88-1.93,1.113Z" transform="translate(-402.556 -123.96)" fill="#2db0de"/>
          <g id="Group_108" data-name="Group 108" transform="translate(10.364)" opacity="0.4">
            <path id="Path_397" data-name="Path 397" d="M412.92,125.094l1.889-1.134,25.754,14.88-1.93,1.113Z" transform="translate(-412.92 -123.96)" fill="#fff"/>
          </g>
          <path id="Path_398" data-name="Path 398" d="M464.27,161.488l-1.93,1.113v-8.928l1.93-1.113Z" transform="translate(-426.264 -137.68)" fill="#2db0de"/>
          <path id="Path_399" data-name="Path 399" d="M464.27,161.488l-1.93,1.113v-8.928l1.93-1.113Z" transform="translate(-426.264 -137.68)" opacity="0.1"/>
          <path id="Path_400" data-name="Path 400" d="M422.578,194.039,396.866,179.18,393,181.412l3.866,6.7,25.712,14.854Z" transform="translate(-393 -150.45)" fill="#2db0de"/>
          <path id="Path_401" data-name="Path 401" d="M400.43,178.134,402.324,177l25.749,14.88-1.93,1.113Z" transform="translate(-396.564 -149.404)" fill="#2db0de"/>
          <g id="Group_109" data-name="Group 109" transform="translate(3.866 27.596)" opacity="0.4">
            <path id="Path_402" data-name="Path 402" d="M400.43,178.134,402.324,177l25.749,14.88-1.93,1.113Z" transform="translate(-400.43 -177)" fill="#fff"/>
          </g>
          <path id="Path_403" data-name="Path 403" d="M451.78,214.528l-1.93,1.113v-8.928l1.93-1.113Z" transform="translate(-420.272 -163.124)" fill="#2db0de"/>
          <path id="Path_404" data-name="Path 404" d="M451.78,214.528l-1.93,1.113v-8.928l1.93-1.113Z" transform="translate(-420.272 -163.124)" opacity="0.1"/>
        </g>
      </g>
      <g id="freepik--question-marks--inject-2" transform="translate(162.234 109.67)">
        <g id="freepik--question-marks--inject-2-2" data-name="freepik--question-marks--inject-2">
          <path id="Path_405" data-name="Path 405" d="M307.592,79.457a9.641,9.641,0,0,1,2.7-.484,7.44,7.44,0,0,1,2.6.349,5.921,5.921,0,0,1,2.159,1.259,5.78,5.78,0,0,1,1.691,4.324,6.19,6.19,0,0,1-.411,1.795,9.831,9.831,0,0,1-.8,1.608c-.312.52-.609.994-.884,1.452a8.325,8.325,0,0,0-.676,1.368,2.456,2.456,0,0,0-.141,1.327,1.134,1.134,0,0,1-.078.619.656.656,0,0,1-.432.4l-2.144.708a.817.817,0,0,1-.624-.047.661.661,0,0,1-.39-.463A5.2,5.2,0,0,1,310,91.585a7.177,7.177,0,0,1,.494-1.821,10.523,10.523,0,0,1,.843-1.613q.489-.749.89-1.436a6.763,6.763,0,0,0,.6-1.3,1.878,1.878,0,0,0,0-1.207,2.237,2.237,0,0,0-1.488-1.462,4.037,4.037,0,0,0-2.627.1,3.9,3.9,0,0,0-2.731,3.564,1.562,1.562,0,0,1-.146.562.729.729,0,0,1-.468.328l-2.279.749a.64.64,0,0,1-.489-.026.614.614,0,0,1-.333-.39,4.575,4.575,0,0,1-.062-2.216,7.405,7.405,0,0,1,.937-2.378,8.845,8.845,0,0,1,1.837-2.123A7.7,7.7,0,0,1,307.592,79.457Zm6.42,15.655a.817.817,0,0,1,1.009.52l.822,2.487a.775.775,0,0,1-.047.609.791.791,0,0,1-.463.406l-2.425.8a.817.817,0,0,1-1.015-.52l-.822-2.482a.812.812,0,0,1,.52-1.015Z" transform="translate(-302.094 -78.966)" fill="#2db0de"/>
          <path id="Path_406" data-name="Path 406" d="M342.9,123.423a6.764,6.764,0,0,1,1.79-.635,5.14,5.14,0,0,1,1.8-.057,4.048,4.048,0,0,1,1.608.619,3.533,3.533,0,0,1,1.207,1.368,3.642,3.642,0,0,1,.437,1.384,4.432,4.432,0,0,1-.073,1.264,6.97,6.97,0,0,1-.364,1.2l-.437,1.087a6.178,6.178,0,0,0-.307,1.009,1.665,1.665,0,0,0,.057.921.764.764,0,0,1,0,.432.463.463,0,0,1-.25.317l-1.379.723a.588.588,0,0,1-.432.042.447.447,0,0,1-.317-.276,3.538,3.538,0,0,1-.354-1.4,5.054,5.054,0,0,1,.13-1.3,6.949,6.949,0,0,1,.4-1.191c.161-.38.307-.739.442-1.082a4.774,4.774,0,0,0,.265-.947,1.358,1.358,0,0,0-.13-.827,1.561,1.561,0,0,0-1.181-.827,2.794,2.794,0,0,0-1.779.364,2.7,2.7,0,0,0-1.457,2.737,1.042,1.042,0,0,1-.036.4.52.52,0,0,1-.281.276l-1.472.775a.448.448,0,0,1-.338.036.432.432,0,0,1-.271-.229,3.2,3.2,0,0,1-.291-1.5,5.022,5.022,0,0,1,.369-1.722,6.02,6.02,0,0,1,1.009-1.655A5.382,5.382,0,0,1,342.9,123.423Zm6.145,9.937a.556.556,0,0,1,.749.234l.843,1.6a.56.56,0,0,1-.234.749l-1.561.817a.565.565,0,0,1-.749-.229l-.838-1.6a.557.557,0,0,1,.229-.744Z" transform="translate(-320.222 -99.935)" fill="#2db0de"/>
          <g id="Group_110" data-name="Group 110" transform="translate(19.66 22.742)" opacity="0.2">
            <path id="Path_407" data-name="Path 407" d="M342.9,123.423a6.764,6.764,0,0,1,1.79-.635,5.14,5.14,0,0,1,1.8-.057,4.048,4.048,0,0,1,1.608.619,3.533,3.533,0,0,1,1.207,1.368,3.642,3.642,0,0,1,.437,1.384,4.432,4.432,0,0,1-.073,1.264,6.97,6.97,0,0,1-.364,1.2l-.437,1.087a6.178,6.178,0,0,0-.307,1.009,1.665,1.665,0,0,0,.057.921.764.764,0,0,1,0,.432.463.463,0,0,1-.25.317l-1.379.723a.588.588,0,0,1-.432.042.447.447,0,0,1-.317-.276,3.538,3.538,0,0,1-.354-1.4,5.054,5.054,0,0,1,.13-1.3,6.949,6.949,0,0,1,.4-1.191c.161-.38.307-.739.442-1.082a4.774,4.774,0,0,0,.265-.947,1.358,1.358,0,0,0-.13-.827,1.561,1.561,0,0,0-1.181-.827,2.794,2.794,0,0,0-1.779.364,2.7,2.7,0,0,0-1.457,2.737,1.042,1.042,0,0,1-.036.4.52.52,0,0,1-.281.276l-1.472.775a.448.448,0,0,1-.338.036.432.432,0,0,1-.271-.229,3.2,3.2,0,0,1-.291-1.5,5.022,5.022,0,0,1,.369-1.722,6.02,6.02,0,0,1,1.009-1.655A5.382,5.382,0,0,1,342.9,123.423Zm6.145,9.937a.556.556,0,0,1,.749.234l.843,1.6a.56.56,0,0,1-.234.749l-1.561.817a.565.565,0,0,1-.749-.229l-.838-1.6a.557.557,0,0,1,.229-.744Z" transform="translate(-339.882 -122.677)"/>
          </g>
          <path id="Path_408" data-name="Path 408" d="M363.983,97.609a.629.629,0,0,1,.385.317.645.645,0,0,1,.052.52l-.624,2.045a.671.671,0,0,1-.822.437l-2-.609a.64.64,0,0,1-.385-.323.624.624,0,0,1-.052-.52l.624-2.045a.679.679,0,0,1,.843-.437ZM367.1,84.118a7.909,7.909,0,0,1,2.034.952,6.008,6.008,0,0,1,1.561,1.457,4.859,4.859,0,0,1,.843,1.857,4.282,4.282,0,0,1-.125,2.159,4.337,4.337,0,0,1-.786,1.524,5.244,5.244,0,0,1-1.119,1.009,8.658,8.658,0,0,1-1.3.7l-1.29.562a6.411,6.411,0,0,0-1.093.593,1.951,1.951,0,0,0-.723.822.921.921,0,0,1-.343.375.52.52,0,0,1-.473.062l-1.769-.52a.671.671,0,0,1-.4-.323.552.552,0,0,1-.042-.52,4.3,4.3,0,0,1,.869-1.472,5.874,5.874,0,0,1,1.191-.983,7.964,7.964,0,0,1,1.327-.676c.453-.182.874-.364,1.27-.52a5.785,5.785,0,0,0,1.015-.578,1.561,1.561,0,0,0,.577-.806,1.837,1.837,0,0,0-.3-1.675,3.294,3.294,0,0,0-1.8-1.176,3.2,3.2,0,0,0-3.512,1.087,1.41,1.41,0,0,1-.359.312.64.64,0,0,1-.473,0l-1.883-.572a.583.583,0,0,1-.317-.25.52.52,0,0,1-.036-.421,3.746,3.746,0,0,1,1.009-1.509,5.952,5.952,0,0,1,1.748-1.145,7.175,7.175,0,0,1,2.227-.552A6.379,6.379,0,0,1,367.1,84.118Z" transform="translate(-329.693 -81.311)" fill="#2db0de"/>
          <g id="Group_111" data-name="Group 111" transform="translate(29.932 2.544)" opacity="0.6">
            <path id="Path_409" data-name="Path 409" d="M363.983,97.609a.629.629,0,0,1,.385.317.645.645,0,0,1,.052.52l-.624,2.045a.671.671,0,0,1-.822.437l-2-.609a.64.64,0,0,1-.385-.323.624.624,0,0,1-.052-.52l.624-2.045a.679.679,0,0,1,.843-.437ZM367.1,84.118a7.909,7.909,0,0,1,2.034.952,6.008,6.008,0,0,1,1.561,1.457,4.859,4.859,0,0,1,.843,1.857,4.282,4.282,0,0,1-.125,2.159,4.337,4.337,0,0,1-.786,1.524,5.244,5.244,0,0,1-1.119,1.009,8.658,8.658,0,0,1-1.3.7l-1.29.562a6.411,6.411,0,0,0-1.093.593,1.951,1.951,0,0,0-.723.822.921.921,0,0,1-.343.375.52.52,0,0,1-.473.062l-1.769-.52a.671.671,0,0,1-.4-.323.552.552,0,0,1-.042-.52,4.3,4.3,0,0,1,.869-1.472,5.874,5.874,0,0,1,1.191-.983,7.964,7.964,0,0,1,1.327-.676c.453-.182.874-.364,1.27-.52a5.785,5.785,0,0,0,1.015-.578,1.561,1.561,0,0,0,.577-.806,1.837,1.837,0,0,0-.3-1.675,3.294,3.294,0,0,0-1.8-1.176,3.2,3.2,0,0,0-3.512,1.087,1.41,1.41,0,0,1-.359.312.64.64,0,0,1-.473,0l-1.883-.572a.583.583,0,0,1-.317-.25.52.52,0,0,1-.036-.421,3.746,3.746,0,0,1,1.009-1.509,5.952,5.952,0,0,1,1.748-1.145,7.175,7.175,0,0,1,2.227-.552A6.379,6.379,0,0,1,367.1,84.118Z" transform="translate(-359.625 -83.855)" fill="#fff"/>
          </g>
        </g>
      </g>
      <g id="freepik--Character--inject-2" transform="translate(166.556 148.08)">
        <g id="freepik--character--inject-2-2" data-name="freepik--character--inject-2">
          <path id="Path_410" data-name="Path 410" d="M299.767,348.64a3.474,3.474,0,0,1-.143,1.65,3.808,3.808,0,0,1-1.451,1.583,6.676,6.676,0,0,0-1.2,1.322,5.678,5.678,0,0,1-1.259,1.423,2.621,2.621,0,0,1-1.983.1c-.516-.208-.688-.4-.649-1.188s2.573-1,2.573-1Z" transform="translate(-287.436 -284.183)" fill="#455a64"/>
          <path id="Path_411" data-name="Path 411" d="M293.444,349.048c-.217.073-.279.459-.324,1.224-.039.582-.325,1.426.526,1.809a2.169,2.169,0,0,0,2.252-.407c.591-.67.993-1.264,1.834-2.085.73-.71,1.48-.94,1.827-2.378.224-.918.071-1.316-.584-1.595-.905-.383-2.363.787-3.083.961C295.271,346.728,293.678,348.972,293.444,349.048Z" transform="translate(-287.415 -282.032)" fill="#2db0de"/>
          <path id="Path_412" data-name="Path 412" d="M293.444,349.048c-.217.073-.279.459-.324,1.224-.039.582-.325,1.426.526,1.809a2.169,2.169,0,0,0,2.252-.407c.591-.67.993-1.264,1.834-2.085.73-.71,1.48-.94,1.827-2.378.224-.918.071-1.316-.584-1.595-.905-.383-2.363.787-3.083.961C295.271,346.728,293.678,348.972,293.444,349.048Z" transform="translate(-287.415 -282.032)" opacity="0.2"/>
          <path id="Path_413" data-name="Path 413" d="M301.067,348.837l.123-.037a2.356,2.356,0,0,1,1.947,1.258c.117.257-.263.447-.48.245a2.521,2.521,0,0,0-1.947-1.252,1.068,1.068,0,0,1,.357-.214Z" transform="translate(-292.594 -284.294)" fill="#fafafa"/>
          <path id="Path_414" data-name="Path 414" d="M299.385,350.32a2.333,2.333,0,0,1,1.808,1.246c.117.254-.263.444-.48.245a2.388,2.388,0,0,0-1.623-1.191C299.181,350.528,299.281,350.409,299.385,350.32Z" transform="translate(-291.5 -285.349)" fill="#fafafa"/>
          <path id="Path_415" data-name="Path 415" d="M325.661,385.662c.127.655-.133.989-1.032,1.457a5.223,5.223,0,0,1-3.764.178c-1.46-.435-2.152-1.05-2.758-1.206s-2.119-.2-2.719-.373-.584-.471-.568-1.157Z" transform="translate(-302.121 -309.108)" fill="#455a64"/>
          <path id="Path_416" data-name="Path 416" d="M315.44,373.82a14.991,14.991,0,0,0-.474,1.53,4.017,4.017,0,0,0-.13,1.95c.195.419,1.022.725,2.3.741a7.661,7.661,0,0,1,2.982,1.047,4.949,4.949,0,0,0,2.862.432,3.685,3.685,0,0,0,2.528-1.148c.191-.441.25-.774-2.411-1.9a13.906,13.906,0,0,1-4.362-2.519Z" transform="translate(-302.08 -301.656)" fill="#2db0de"/>
          <g id="Group_112" data-name="Group 112" transform="translate(12.673 72.164)" opacity="0.2">
            <path id="Path_417" data-name="Path 417" d="M315.44,373.82a14.991,14.991,0,0,0-.474,1.53,4.017,4.017,0,0,0-.13,1.95c.195.419,1.022.725,2.3.741a7.661,7.661,0,0,1,2.982,1.047,4.949,4.949,0,0,0,2.862.432,3.685,3.685,0,0,0,2.528-1.148c.191-.441.25-.774-2.411-1.9a13.906,13.906,0,0,1-4.362-2.519Z" transform="translate(-314.752 -373.82)"/>
          </g>
          <path id="Path_418" data-name="Path 418" d="M332.42,385.053a3.465,3.465,0,0,1,2.161-2.755c1.707-.53,3.158.679,2.973,1.7C337.427,384.695,335.334,386.225,332.42,385.053Z" transform="translate(-314.014 -307.449)" fill="#fafafa"/>
          <path id="Path_419" data-name="Path 419" d="M332.743,380.514a2.254,2.254,0,0,0-1.3.511c-.548.416-.571.7-.571.7a.3.3,0,0,1-.333.055.262.262,0,0,1-.151-.285s.149-1.093,1.684-1.289A.642.642,0,0,1,332.743,380.514Z" transform="translate(-312.64 -306.082)" fill="#fafafa"/>
          <path id="Path_420" data-name="Path 420" d="M329.5,378.873a1.976,1.976,0,0,0-1.3.459c-.548.419-.558.756-.558.756a.3.3,0,0,1-.333.055.262.262,0,0,1-.151-.285s.146-1.1,1.681-1.289A.635.635,0,0,1,329.5,378.873Z" transform="translate(-310.458 -304.945)" fill="#fafafa"/>
          <path id="Path_421" data-name="Path 421" d="M326.107,376.852a1.993,1.993,0,0,0-1.331.373c-.578.383-.613.716-.613.716a.3.3,0,0,1-.333.03.264.264,0,0,1-.134-.29,1.741,1.741,0,0,1,1.775-1.178A.63.63,0,0,1,326.107,376.852Z" transform="translate(-308.116 -303.515)" fill="#fafafa"/>
          <path id="Path_422" data-name="Path 422" d="M294.292,352.93l-.032,1.475a2.576,2.576,0,0,0,2.525.11c.045-.089.2-1.53.2-1.53Z" transform="translate(-288.237 -287.16)" fill="#ffa8a7"/>
          <path id="Path_423" data-name="Path 423" d="M316.884,370.49s0,.7-.026,1.1.477,1,1.775.986c.909,0,1.551-.233,1.528-.94l.023-1.019Z" transform="translate(-303.501 -299.345)" fill="#ffa8a7"/>
          <path id="Path_424" data-name="Path 424" d="M289.922,256.2a11.744,11.744,0,0,1,.86-4.46s-.172-3.848-.62-8.571c-.681-7.178-.078-8.24,1.486-11.433,0,0,12.614-1.3,12.9,3.719.354,6.247.143,18.935-.081,21.121s-.175.165-.837,4.616c-.526,3.517-1.655,13.024-1.655,13.024a3.691,3.691,0,0,1-3.3-.125s-.8-11.674-.633-14.215a26.9,26.9,0,0,1,.4-3.887s-1.3-10.08-1.477-11.7c0,0-.269,2.893-.493,5.093s-.247,3.979-.834,8.522c-.461,3.569-1.561,11.267-1.561,11.267a3.3,3.3,0,0,1-2.781-.245S289.8,258.7,289.922,256.2Z" transform="translate(-285.282 -202.96)" fill="#455a64"/>
          <path id="Path_425" data-name="Path 425" d="M306.258,347.959s-.032-1.723-2.5-2.011l-.143.073a2.13,2.13,0,0,1,1.233-.86,1.733,1.733,0,0,1,1.886.551C307.157,346.244,306.693,347.631,306.258,347.959Z" transform="translate(-294.56 -281.72)" fill="#fafafa"/>
          <path id="Path_426" data-name="Path 426" d="M303.237,264.287l-.162-2.06a18.142,18.142,0,0,1-3.894-1.837,5.21,5.21,0,0,0,3.141,2.247l.393,2.023.032,4.729Z" transform="translate(-291.561 -222.946)" fill="#37474f"/>
          <path id="Path_427" data-name="Path 427" d="M282.847,141.06c-.691.814-5.8,8.571-6.549,10.031s-.928,2.4.253,3.572c1.775,1.766,6.25,6.027,6.25,6.027l2.505-5.638L280.66,152.3l4.543-9.07Z" transform="translate(-275.702 -140.142)" fill="#ffa8a7"/>
          <path id="Path_428" data-name="Path 428" d="M286.143,176.5a3.07,3.07,0,0,0-2.333.227,2.454,2.454,0,0,1,2.57-.695Z" transform="translate(-281.179 -164.347)" fill="#f28f8f"/>
          <path id="Path_429" data-name="Path 429" d="M289.963,180.9l-4.112-1.935c-1.516-.205-3.489,2.029-3.433,3.744l3.605,3Z" transform="translate(-280.237 -166.439)" fill="#455a64"/>
          <path id="Path_430" data-name="Path 430" d="M306.011,175.93l-.26,2.7h0c-.649.19-.529,1.044-.149,1.57l-.075.793,4.219.358.633-4.552Z" transform="translate(-295.689 -164.339)" fill="#ffa8a7"/>
          <path id="Path_431" data-name="Path 431" d="M291.149,186.514a3.968,3.968,0,0,1,3.43-2.036l.938.077c-.26.49.117.839.8,1.025a5.313,5.313,0,0,0,3.44-.156l.029-.23s1.795.484,2.324.67c1.486.526,1.976.8,3.515,4.567.649,1.613.082.158-1.519,4.2-.133,1-.282,2.568-.282,2.568a54.275,54.275,0,0,1,1.074,6.48s-.935,2-7.409,1.662c-5.014-.26-7.347-2.654-7.347-2.654.123-1.16.9-3.012,2.5-6.508C290.744,191.151,290.455,188.308,291.149,186.514Z" transform="translate(-285.454 -170.267)" fill="#37474f"/>
          <path id="Path_450" data-name="Path 450" d="M297.368,184.443s-2.1.875-2.518,2.143l-1.97-.233a4.564,4.564,0,0,1,2.5-1.91,3.831,3.831,0,0,1,1.986,0Z" transform="translate(-287.305 -170.155)" fill="#2db0de"/>
          <path id="Path_451" data-name="Path 451" d="M297.368,184.443s-2.1.875-2.518,2.143l-1.97-.233a4.564,4.564,0,0,1,2.5-1.91,3.831,3.831,0,0,1,1.986,0Z" transform="translate(-287.305 -170.155)" opacity="0.2"/>
          <path id="Path_452" data-name="Path 452" d="M316.478,190.225s.818-2.342,2.031-2.648a4.817,4.817,0,0,0-2.2-.627,5.59,5.59,0,0,0-1.882,2.173Z" transform="translate(-301.862 -171.986)" fill="#2db0de"/>
          <path id="Path_453" data-name="Path 453" d="M316.478,190.225s.818-2.342,2.031-2.648a4.817,4.817,0,0,0-2.2-.627,5.59,5.59,0,0,0-1.882,2.173Z" transform="translate(-301.862 -171.986)" opacity="0.2"/>
          <path id="Path_454" data-name="Path 454" d="M285.624,189a6.082,6.082,0,0,0-3.878,2.241c-.409.86-2.022,12.213-1.019,13.352,1.256,1.426,7.026,4.659,9.736,4.567a7.286,7.286,0,0,0,4.751-2.228c.552-.918-.195-13.468-.905-14.536C293.147,190.692,287.117,189.024,285.624,189Z" transform="translate(-278.878 -173.408)" fill="#2db0de"/>
          <path id="Path_456" data-name="Path 456" d="M294.786,207.379a7.738,7.738,0,0,1-4.355,1.8c-2.7.089-8.47-3.144-9.736-4.57-1-1.136.591-12.449,1.019-13.352a5.964,5.964,0,0,1,3.878-2.241A22.827,22.827,0,0,1,293,191.368l-1.155.735c-1.162.634-1.795,2.3-1.772,6.3s-.065,9.406.613,9.976,2.044.181,2.126.159A7.219,7.219,0,0,0,294.786,207.379Z" transform="translate(-278.855 -173.422)" opacity="0.1"/>
          <path id="Path_459" data-name="Path 459" d="M301.292,213.256l1.168.38a.208.208,0,0,0,.187-.016.184.184,0,0,0,.089-.156l.045-.53a.306.306,0,0,0-.195-.282l-1.172-.4a.2.2,0,0,0-.183.014.181.181,0,0,0-.089.151l-.042.557A.306.306,0,0,0,301.292,213.256Z" transform="translate(-292.858 -189.535)" fill="#37474f"/>
          <path id="Path_462" data-name="Path 462" d="M286.5,205.527l1.142.438a.208.208,0,0,0,.187-.006.186.186,0,0,0,.1-.15l.075-.53a.3.3,0,0,0-.175-.288l-1.149-.456a.2.2,0,0,0-.185,0,.183.183,0,0,0-.1.148l-.075.554a.283.283,0,0,0,.179.285Z" transform="translate(-282.872 -184.174)" fill="#37474f"/>
          <path id="Path_464" data-name="Path 464" d="M283.175,226.293c0,1.319-.039,1.864.023,2.5a1.52,1.52,0,0,0,.808,1.276c.678.453,3.6,1.9,4.465,2.293,1.058.471,2.21.787,2.194,0v-2.608c0-.612-.325-1-1.623-1.573-1.243-.542-4.011-2.011-4.777-2.339C283.616,225.574,283.178,225.9,283.175,226.293Z" transform="translate(-280.741 -198.904)" fill="#2db0de"/>
          <path id="Path_465" data-name="Path 465" d="M305.591,146.33s2.21-2.688.568-4.145c-1.947-1.723-4.527-1.687-7.9-.579a5.728,5.728,0,0,0-4.076,4.95c-.156,2.256,6.51,3.918,6.357,5.461Z" transform="translate(-288.185 -139.979)" fill="#263238"/>
          <path id="Path_466" data-name="Path 466" d="M331.09,162.64s.9,1.365.776,1.506a2.353,2.353,0,0,1-.73.275Z" transform="translate(-313.115 -155.117)" fill="#f28f8f"/>
          <path id="Path_467" data-name="Path 467" d="M309.265,147.567c.9.471,2.463,1.338,2.778,4.53.325,3.278-.477,4.4-.974,4.812a4.737,4.737,0,0,1-2.823.07,8.892,8.892,0,0,1-4.4-3.2c-1.227-2.017-1.415-4.671.094-5.669A5.859,5.859,0,0,1,309.265,147.567Z" transform="translate(-294.048 -144.378)" fill="#ffa8a7"/>
          <path id="Path_468" data-name="Path 468" d="M320.82,178.054a5.458,5.458,0,0,0,2.207-.077,4.238,4.238,0,0,1-2.174-.588Z" transform="translate(-306.178 -165.352)" fill="#f28f8f"/>
          <path id="Path_469" data-name="Path 469" d="M322.018,148.44a3.294,3.294,0,0,0,2.207-2.62c.341-2.078-2.414-2.96-2.414-2.96Z" transform="translate(-306.847 -141.391)" fill="#263238"/>
          <path id="Path_470" data-name="Path 470" d="M302.132,152.157c-.182.272-.892.53-1.642-.205a1.38,1.38,0,0,1,.354-2.378c1.077-.309,1.593.869,1.593.869,1.012-1.858.3-4.861.3-4.861a6.492,6.492,0,0,0-6.166-1.191,5.028,5.028,0,0,0-3.326,4.1c-.227,1.5-.841,4.187-.045,5.161s3.865,2.479,6.623,2.354,2.765-.64,2.765-.64l-.422-3.284A.272.272,0,0,1,302.132,152.157Z" transform="translate(-287.253 -142.249)" fill="#263238"/>
          <path id="Path_471" data-name="Path 471" d="M296.667,138.98c1.071-1.224,2.768-.94,4.089-.735s3.245.38,2.921,1.224-1.3,1.6-3.57,1.393-2.69,0-3.2.566C296.894,141.41,295.408,140.847,296.667,138.98Z" transform="translate(-289.522 -138.062)" fill="#ffa8a7"/>
          <path id="Path_448" data-name="Path 448" d="M14.482.632A2.1,2.1,0,0,0,13.943,0L14.2.859a2.284,2.284,0,0,1-.6,1.927c-.272.318-.787.678-.833.561-.062-.166.011-.969-.152-1.7-.2-.877-.659-.463-.77.191-.061.357-.395,1.265-.481,1.958a12.338,12.338,0,0,1-.155,2.188,40.346,40.346,0,0,1-3.063,4.4C6.99,8.7,5.437,6.513,4.081,4.632,2.188,1.988,1.8,1.433.322,1.351-.78,5.058,1.3,8.857,1.3,8.857S4.141,12.63,5.9,14.619c1.7,1.92,2.283,1.77,3.069,1.034A29.9,29.9,0,0,0,12.6,9.726c.844-1.854,1.757-3.25,2.263-4.232A4.74,4.74,0,0,0,14.482.632Z" transform="translate(14.494 19.278) rotate(-79)" fill="#ffa8a7"/>
          <path id="Path_449" data-name="Path 449" d="M3.692.03A3.05,3.05,0,0,1,6.008.64,13.7,13.7,0,0,1,7.636,2.614c1.328,1.935,3.8,5.529,3.8,5.529A5.862,5.862,0,0,1,7.733,11.3S5.313,8.515,4.4,7.142C3.988,6.518,3.332,5.808,2.57,4.853,1.212,4.05.257,3.608.035,2.717A1.47,1.47,0,0,1,1.059,1.058C1.577.817,2.453.459,3.692.03Z" transform="translate(14.926 23.265) rotate(-79)" fill="#455a64"/>
          <path id="Path_457" data-name="Path 457" d="M286.3,189a5.7,5.7,0,0,0-3.878,1.941c-.652.955-1.12,3.731-.649,4.549s3.664,2.449,5.841,3.275c1.736.67,2.645.5,3.245.083.389-.263.458-1.047.487-1.628.078-1.494-.052-2.293.9-3.171s2.658-1.616,2.947-.955c0,0,.386-.995-1.59-1.956A17.81,17.81,0,0,0,286.3,189Z" transform="translate(-279.673 -173.408)" fill="#2db0de"/>
          <path id="Path_458" data-name="Path 458" d="M301.452,214.72l1.149.41s-.153,3.3-.146,4.591c0,0-.269.554-.519.646s-.578-.53-.63-1S301.332,215.837,301.452,214.72Z" transform="translate(-292.986 -191.255)" fill="#455a64"/>
          <path id="Path_460" data-name="Path 460" d="M302.375,228.062a.527.527,0,0,1,.324.459.209.209,0,0,1-.091.2.239.239,0,0,1-.234.019.521.521,0,0,1-.325-.459A.225.225,0,0,1,302.375,228.062Z" transform="translate(-293.499 -200.499)" fill="#e0e0e0"/>
          <path id="Path_461" data-name="Path 461" d="M286.158,207l1.123.468s-.325,3.284-.4,4.573c0,0-.3.542-.552.612s-.548-.557-.578-1.025S285.979,208.108,286.158,207Z" transform="translate(-282.491 -185.899)" fill="#455a64"/>
          <path id="Path_463" data-name="Path 463" d="M286.911,220.369a.528.528,0,0,1,.3.474.21.21,0,0,1-.1.192.239.239,0,0,1-.226.016.51.51,0,0,1-.292-.474A.213.213,0,0,1,286.911,220.369Z" transform="translate(-283.056 -195.157)" fill="#e0e0e0"/>
          <path id="Path_455" data-name="Path 455" d="M313.229,196.69l-1.155.735c-1.165.634-1.795,2.3-1.775,6.3s-.062,9.406.617,9.979,2.044.181,2.126.159a5.713,5.713,0,0,0,2.356-1.586c.552-.918-.195-13.468-.905-14.536A3.926,3.926,0,0,0,313.229,196.69Z" transform="translate(-299.071 -178.744)" opacity="0.2"/>
        </g>
      </g>
    </g>
    <g id="Group_314" data-name="Group 314" transform="translate(19.949 19.294)">
      <ellipse id="freepik--shadow--inject-2-3" data-name="freepik--shadow--inject-2" cx="26.486" cy="15.272" rx="26.486" ry="15.272" transform="translate(99.56 668.118)" fill="#e0e0e0"/>
      <g id="freepik--Character--inject-2-3" data-name="freepik--Character--inject-2" transform="translate(103.92 572.796)">
        <path id="Path_235" data-name="Path 235" d="M280.676,147.157a2.852,2.852,0,0,0,.576-2.97c.885-.637,1.442-2.034.395-2.808,1.649-1.051,0-3.346-1.675-2.744.614-1.786-2.658-2.343-3.368-1-.729-1.464-3.1-.248-3.184,1.124-.637-.427-1.846-.462-1.993.471-.5-.732-2.4-.49-2.162.6a1.131,1.131,0,0,0-.691,2.136,1.449,1.449,0,0,0,.232,2.435c-.576.258-.035.955.468.869.239,1.691-.6,4.387,1.337,5.25" transform="translate(-258.357 -136.89)" fill="#263238"/>
        <path id="Path_236" data-name="Path 236" d="M275.75,163.62l2.26,3.12,3.184,3.3,1.958-2.569c.029-1.2.089-3.648.118-4.839,4.2-.388,3.012-5.9,2.961-10.226a5.469,5.469,0,0,0-5.517-5.227c-3.044.06-4.7,2.681-4.549,5.73l-.4,9.755" transform="translate(-263.698 -143.903)" fill="#ffbe9d"/>
        <path id="Path_237" data-name="Path 237" d="M291.276,193.079a6.8,6.8,0,0,1-3.766-1.229,3.6,3.6,0,0,0,3.744,1.987Z" transform="translate(-271.714 -174.353)" fill="#eb996e"/>
        <path id="Path_238" data-name="Path 238" d="M304.134,170.144c0,.513-.841.538-.834,0A.417.417,0,0,1,304.134,170.144Z" transform="translate(-282.477 -159.284)" fill="#263238"/>
        <path id="Path_239" data-name="Path 239" d="M303.123,166.548a2.321,2.321,0,0,0-1.643-.07C301.646,165.927,303.027,165.972,303.123,166.548Z" transform="translate(-281.237 -156.793)" fill="#263238"/>
        <path id="Path_240" data-name="Path 240" d="M290.874,169.239c0,.513-.841.538-.834,0A.418.418,0,0,1,290.874,169.239Z" transform="translate(-273.439 -158.669)" fill="#263238"/>
        <path id="Path_241" data-name="Path 241" d="M289.09,165.8a2.327,2.327,0,0,0-1.64.108C287.546,165.34,288.93,165.235,289.09,165.8Z" transform="translate(-271.673 -156.34)" fill="#263238"/>
        <path id="Path_242" data-name="Path 242" d="M297.169,170.367c-.115-.067.831,0,.981-.207-.14-.786-1.191-3.537-1.041-3.54a15.137,15.137,0,0,1,.856,2.254c.105.478.4.856.334,1.34C298.175,170.542,297.115,170.36,297.169,170.367Z" transform="translate(-278.247 -157.155)" fill="#263238"/>
        <path id="Path_243" data-name="Path 243" d="M288.8,160.792a10.785,10.785,0,0,1-2.05.146C286.916,160.336,288.549,160.219,288.8,160.792Z" transform="translate(-271.196 -152.928)" fill="#263238"/>
        <path id="Path_244" data-name="Path 244" d="M303.355,160.227a6.528,6.528,0,0,1-1.515-.105C301.891,159.543,303.375,159.645,303.355,160.227Z" transform="translate(-281.482 -152.462)" fill="#263238"/>
        <path id="Path_245" data-name="Path 245" d="M283.258,143.433l-.2-.1c.71-1.91-2.184-2.639-2.961-.955a1.592,1.592,0,0,0-1.824-.8c-.745.131-1.1,1.022-1.745,1.273-2.19-2.385-5.985,1.821-3.709,3.336a1.716,1.716,0,0,0,.7,2.614c.79,2.48,4.307.392,2.509-1.49A1.675,1.675,0,0,0,278.371,146c.611.917,3.352,1,2.617-.528A1.653,1.653,0,0,0,283.258,143.433Z" transform="translate(-261.219 -139.991)" fill="#263238"/>
        <path id="Path_246" data-name="Path 246" d="M277.393,164.315c.064.8.057,3.652-1.273,2.477a9.7,9.7,0,0,1-.283-3.582" transform="translate(-263.74 -154.831)" fill="#263238"/>
        <path id="Path_247" data-name="Path 247" d="M273.229,171.709c-2.843-.984-2.47,3.722,0,2.865C273.235,174.52,273.229,171.709,273.229,171.709Z" transform="translate(-260.619 -160.531)" fill="#ffbe9d"/>
        <path id="Path_248" data-name="Path 248" d="M273.72,175.212c-.863.583-1.022-1.875-.178-1.391.086.283.1-.264-.217-.194C272.4,173.789,272.946,175.97,273.72,175.212Z" transform="translate(-261.715 -161.927)" fill="#eb996e"/>
        <path id="Path_249" data-name="Path 249" d="M259.011,454.63l.14,6.014s-6.068,2.162-6.151,3.276l11.671.15.169-9.379Z" transform="translate(-248.191 -353.474)" fill="#2db0de"/>
        <g id="Group_89" data-name="Group 89" transform="translate(14.002 106.693)" opacity="0.6">
          <path id="Path_250" data-name="Path 250" d="M282.446,472.041a.478.478,0,0,1,.318.548.458.458,0,0,1-.541.318.5.5,0,0,1-.337-.583.471.471,0,0,1,.6-.274" transform="translate(-281.874 -472.023)" fill="#fff"/>
        </g>
        <g id="Group_90" data-name="Group 90" transform="translate(4.806 109.64)" opacity="0.6">
          <path id="Path_251" data-name="Path 251" d="M264.663,482.235l-.019-.955-11.184.21s-.522.22-.468.586Z" transform="translate(-252.988 -481.28)" fill="#fff"/>
        </g>
        <path id="Path_252" data-name="Path 252" d="M271.729,473.224c0,.057.283.086.564.274s.423.427.474.4-.025-.35-.366-.57S271.717,473.17,271.729,473.224Z" transform="translate(-260.957 -366.115)" fill="#263238"/>
        <path id="Path_253" data-name="Path 253" d="M267.86,474.811c0,.054.232.156.423.4s.242.5.3.5.1-.318-.146-.637S267.863,474.757,267.86,474.811Z" transform="translate(-258.32 -367.211)" fill="#263238"/>
        <path id="Path_254" data-name="Path 254" d="M264.7,477.327c.051,0,.134-.271,0-.583s-.408-.442-.43-.395.137.216.248.474S264.638,477.321,264.7,477.327Z" transform="translate(-255.868 -368.273)" fill="#263238"/>
        <path id="Path_255" data-name="Path 255" d="M272.095,468.572c.025.054.286-.022.608,0s.573.131.6.083-.207-.255-.586-.28S272.063,468.531,272.095,468.572Z" transform="translate(-261.205 -362.842)" fill="#263238"/>
        <g id="Group_91" data-name="Group 91" transform="translate(10.849 102.203)" opacity="0.3">
          <path id="Path_256" data-name="Path 256" d="M271.97,458.063l.025,1.073,5.734.022.025-1.238Z" transform="translate(-271.97 -457.92)"/>
        </g>
        <path id="Path_257" data-name="Path 257" d="M272.09,463.222a1.108,1.108,0,0,0,.583,0,2.59,2.59,0,0,0,.614-.178,2.44,2.44,0,0,0,.337-.175.683.683,0,0,0,.178-.134.251.251,0,0,0,.032-.3.318.318,0,0,0-.248-.134.756.756,0,0,0-.22.025,2.344,2.344,0,0,0-.366.121,2.14,2.14,0,0,0-.544.347c-.274.248-.369.458-.35.471s.162-.159.439-.363a2.508,2.508,0,0,1,.525-.287,2.468,2.468,0,0,1,.337-.1c.124-.032.229-.032.261.025s0,.029-.016.064a.449.449,0,0,1-.131.1,3.441,3.441,0,0,1-.318.175,3.377,3.377,0,0,1-.567.207A3.679,3.679,0,0,0,272.09,463.222Z" transform="translate(-261.203 -358.702)" fill="#263238"/>
        <path id="Path_258" data-name="Path 258" d="M270.713,461.479a.955.955,0,0,0,.159-.564,1.839,1.839,0,0,0-.216-1,.471.471,0,0,0-.366-.3.274.274,0,0,0-.248.159.888.888,0,0,0-.064.213,1.272,1.272,0,0,0,0,.395,1.3,1.3,0,0,0,.242.6c.223.318.462.379.465.357a2.392,2.392,0,0,1-.347-.433,1.308,1.308,0,0,1-.178-.551,1.209,1.209,0,0,1,.016-.338c.019-.124.067-.223.111-.21a.44.44,0,0,1,.2.194,1.988,1.988,0,0,1,.14.318,2.133,2.133,0,0,1,.105.586C270.744,461.256,270.681,461.47,270.713,461.479Z" transform="translate(-259.752 -356.876)" fill="#263238"/>
        <path id="Path_259" data-name="Path 259" d="M323.717,454.715l-.226,6.011s6.049,2.251,6.1,3.365l-11.658-.019-.032-9.382Z" transform="translate(-292.429 -353.515)" fill="#2db0de"/>
        <g id="Group_92" data-name="Group 92" transform="translate(27.128 106.69)" opacity="0.6">
          <path id="Path_260" data-name="Path 260" d="M323.431,472.026a.478.478,0,0,0-.318.541.458.458,0,0,0,.535.334.506.506,0,0,0,.347-.579.477.477,0,0,0-.6-.283" transform="translate(-323.104 -472.015)" fill="#fff"/>
        </g>
        <g id="Group_93" data-name="Group 93" transform="translate(25.503 109.602)" opacity="0.6">
          <path id="Path_261" data-name="Path 261" d="M318,482.115l.035-.955,11.178.372s.519.226.458.592Z" transform="translate(-318 -481.16)" fill="#fff"/>
        </g>
        <path id="Path_262" data-name="Path 262" d="M333.781,473.36c0,.057-.29.083-.57.264s-.43.423-.481.4.032-.353.376-.567S333.791,473.306,333.781,473.36Z" transform="translate(-302.529 -366.206)" fill="#263238"/>
        <path id="Path_263" data-name="Path 263" d="M338.2,475c0,.054-.236.15-.43.392s-.248.5-.318.493-.092-.318.153-.637S338.194,474.951,338.2,475Z" transform="translate(-305.722 -367.342)" fill="#263238"/>
        <path id="Path_264" data-name="Path 264" d="M341.926,477.57c-.051,0-.131-.271.019-.583s.411-.436.436-.388-.14.213-.258.471S341.983,477.567,341.926,477.57Z" transform="translate(-308.76 -368.442)" fill="#263238"/>
        <path id="Path_265" data-name="Path 265" d="M333.145,468.724c-.025.051-.287-.029-.608,0s-.573.121-.6.073.21-.251.592-.271S333.173,468.676,333.145,468.724Z" transform="translate(-301.994 -362.946)" fill="#263238"/>
        <g id="Group_94" data-name="Group 94" transform="translate(25.458 102.165)" opacity="0.3">
          <path id="Path_266" data-name="Path 266" d="M323.645,458.026,323.6,459.1l-5.737-.064-.006-1.235Z" transform="translate(-317.86 -457.8)"/>
        </g>
        <path id="Path_267" data-name="Path 267" d="M332.005,463.3a1.1,1.1,0,0,1-.583,0,2.585,2.585,0,0,1-.611-.188,2.856,2.856,0,0,1-.337-.178.711.711,0,0,1-.175-.137.252.252,0,0,1-.025-.318.318.318,0,0,1,.248-.13.862.862,0,0,1,.22.032,2.308,2.308,0,0,1,.363.124,2.126,2.126,0,0,1,.541.357c.267.252.36.465.341.474s-.156-.159-.433-.366a2.324,2.324,0,0,0-.519-.3,2.092,2.092,0,0,0-.338-.1c-.121-.035-.226-.035-.258.019s-.016.029,0,.067a.553.553,0,0,0,.127.1,2.825,2.825,0,0,0,.318.178,2.977,2.977,0,0,0,.567.216A3.7,3.7,0,0,1,332.005,463.3Z" transform="translate(-300.832 -358.737)" fill="#263238"/>
        <path id="Path_268" data-name="Path 268" d="M335.249,461.63a.923.923,0,0,1-.153-.564,1.91,1.91,0,0,1,.08-.637,2.124,2.124,0,0,1,.15-.357.487.487,0,0,1,.372-.293.274.274,0,0,1,.245.162.771.771,0,0,1,.06.216,1.345,1.345,0,0,1,0,.392,1.369,1.369,0,0,1-.252.6c-.229.318-.468.369-.471.35a2.466,2.466,0,0,0,.353-.43,1.274,1.274,0,0,0,.178-.885c-.019-.124-.067-.226-.111-.213a.448.448,0,0,0-.207.191,2.318,2.318,0,0,0-.143.318,2.132,2.132,0,0,0-.115.583C335.22,461.407,335.281,461.62,335.249,461.63Z" transform="translate(-304.149 -356.985)" fill="#263238"/>
        <path id="Path_269" data-name="Path 269" d="M279.183,296.4l5.524,55.541-7.138.334-8.484-45.58.105,45.3-7.58-.1L258.69,295.81Z" transform="translate(-252.069 -245.216)" fill="#263238"/>
        <path id="Path_270" data-name="Path 270" d="M265.564,310.109a1.614,1.614,0,0,1-.318.579,3.722,3.722,0,0,1-1.181,1.051,3.821,3.821,0,0,1-1.512.474,1.592,1.592,0,0,1-.653-.038c0-.029.248-.019.637-.08a4.228,4.228,0,0,0,2.614-1.48C265.434,310.313,265.539,310.1,265.564,310.109Z" transform="translate(-254.257 -254.962)" fill="#455a64"/>
        <path id="Path_271" data-name="Path 271" d="M314.545,310.808a2.192,2.192,0,0,1-.7.286,4.775,4.775,0,0,1-3.55-.433,2.1,2.1,0,0,1-.608-.446c.016-.022.252.143.662.341a5.411,5.411,0,0,0,1.7.5,5.5,5.5,0,0,0,1.767-.076C314.268,310.884,314.535,310.782,314.545,310.808Z" transform="translate(-286.833 -255.034)" fill="#455a64"/>
        <path id="Path_272" data-name="Path 272" d="M290.681,315.191a.3.3,0,0,1-.175.156.694.694,0,0,1-.637-.1,1.455,1.455,0,0,1-.465-.831c-.086-.347-.178-.716-.277-1.1-.194-.783-.357-1.493-.468-2.012a4.22,4.22,0,0,1-.15-.844,4.454,4.454,0,0,1,.261.818c.14.509.318,1.213.516,2,.1.388.185.758.267,1.1a1.372,1.372,0,0,0,.388.777.637.637,0,0,0,.544.131A1.153,1.153,0,0,0,290.681,315.191Z" transform="translate(-272.396 -255.202)" fill="#455a64"/>
        <path id="Path_273" data-name="Path 273" d="M291.953,310.372a.171.171,0,0,1,.111-.032.465.465,0,0,1,.29.118.538.538,0,0,1,.185.439.506.506,0,0,1-.407.42.5.5,0,0,1-.544-.207.522.522,0,0,1-.019-.474.449.449,0,0,1,.21-.232c.07-.032.111-.025.115-.016a.526.526,0,0,0-.216.29.42.42,0,0,0,.041.35.347.347,0,0,0,.379.127.357.357,0,0,0,.29-.277.42.42,0,0,0-.115-.318C292.118,310.375,291.953,310.4,291.953,310.372Z" transform="translate(-274.447 -255.12)" fill="#455a64"/>
        <path id="Path_274" data-name="Path 274" d="M275.193,466.348a8.075,8.075,0,0,1-1.086.016c-.665,0-1.592,0-2.607.019s-1.939.076-2.607.118a8.486,8.486,0,0,1-1.082.045.919.919,0,0,1,.286-.064c.185-.029.455-.064.786-.1.665-.07,1.592-.14,2.614-.166s1.945,0,2.617.029c.334.016.6.035.79.057A.878.878,0,0,1,275.193,466.348Z" transform="translate(-258.286 -361.366)" fill="#455a64"/>
        <path id="Path_275" data-name="Path 275" d="M324.2,464.484c0,.048-1.56.274-3.5.509s-3.5.392-3.521.347,1.563-.274,3.5-.509S324.2,464.439,324.2,464.484Z" transform="translate(-291.938 -360.186)" fill="#455a64"/>
        <path id="Path_276" data-name="Path 276" d="M318.427,395.28a28.314,28.314,0,0,1-1.487,2.623,27.727,27.727,0,0,1-1.63,2.547,27.621,27.621,0,0,1,1.487-2.626A26.117,26.117,0,0,1,318.427,395.28Z" transform="translate(-290.664 -313.019)" fill="#455a64"/>
        <path id="Path_277" data-name="Path 277" d="M278.27,398.23a42.224,42.224,0,0,1-2.209,4.845,22,22,0,0,1,1.028-2.458,21.686,21.686,0,0,1,1.181-2.388Z" transform="translate(-263.909 -315.03)" fill="#455a64"/>
        <path id="Path_278" data-name="Path 278" d="M276.914,403.126a5.658,5.658,0,0,1-.548-.707c-.318-.443-.783-1.054-1.305-1.71s-1.022-1.232-1.382-1.649a5.155,5.155,0,0,1-.57-.691,4.586,4.586,0,0,1,.656.611,21.274,21.274,0,0,1,1.423,1.627c.528.672.971,1.273,1.273,1.745A4.14,4.14,0,0,1,276.914,403.126Z" transform="translate(-261.898 -315.125)" fill="#455a64"/>
        <path id="Path_280" data-name="Path 280" d="M253.2,216.464l.47,10.657a7.035,7.035,0,0,0,1.207,3.95l21.264.02s-.106-4.461.081-6.486-1.635-20.881-1.635-20.881l-.522-5.221-5.514-1.34-.29-1.175L259.889,195l-.446,1.939-4.516,1.871C254.927,199.1,253.2,216.464,253.2,216.464Z" transform="translate(-248.327 -176.5)" fill="#2db0de"/>
        <path id="Path_281" data-name="Path 281" d="M317.888,206a8.054,8.054,0,0,1,2.958,2.91c1.07,1.91,4.489,12.754,4.629,14.107s.213,3.206,0,3.346.637,5.129.926,6.485a27.3,27.3,0,0,1,.7,6.59,22.208,22.208,0,0,0-.2,2.668l-4.7-1.4.162-1.646s-.936-2.865-1.592-4.909-3.279-21.228-3.279-21.228Z" transform="translate(-292.15 -183.998)" fill="#2db0de"/>
        <path id="Path_282" data-name="Path 282" d="M276.993,301.853a1.273,1.273,0,0,1-.226.025l-.637.041c-.56.035-1.375.073-2.378.108-2.012.073-4.775.124-7.857.1s-5.848-.118-7.857-.21c-1-.048-1.818-.089-2.378-.124l-.637-.048a.113.113,0,1,1,0-.025h.637l2.385.086c2.009.061,4.775.137,7.851.162s5.845,0,7.854-.048l2.378-.054h.637A.955.955,0,0,1,276.993,301.853Z" transform="translate(-249.418 -249.237)" fill="#263238"/>
        <path id="Path_285" data-name="Path 285" d="M290.287,196.9a.385.385,0,0,1,0,.086,1,1,0,0,0,.026.255c.016.236.038.563.07.981.054.853.127,2.085.207,3.613.159,3.05.357,7.265.506,11.923s.223,8.882.2,11.939c0,.764,0,1.455-.029,2.063s-.025,1.127-.051,1.554-.038.748-.051.984a1.175,1.175,0,0,1-.016.255.363.363,0,0,1,0,.086.442.442,0,0,1,0-.086V230.3q0-.357.019-.984c.016-.427.019-.955.022-1.557s0-1.3,0-2.06c0-3.053-.1-7.271-.251-11.932s-.318-8.873-.458-11.926c-.064-1.515-.118-2.747-.153-3.613-.019-.417-.032-.745-.041-.984v-.255A.351.351,0,0,1,290.287,196.9Z" transform="translate(-273.606 -177.795)" fill="#263238"/>
        <path id="Path_287" data-name="Path 287" d="M313.949,274.507a3.075,3.075,0,0,1-.637-.385,17.83,17.83,0,0,1-1.423-1.089,17.507,17.507,0,0,1-1.315-1.219,3.013,3.013,0,0,1-.484-.563,3.86,3.86,0,0,1,.567.481c.337.318.805.726,1.337,1.175s1.028.84,1.385,1.124A3.525,3.525,0,0,1,313.949,274.507Z" transform="translate(-287.105 -228.475)" fill="#263238"/>
        <path id="Path_288" data-name="Path 288" d="M323.034,252.63c.026.069-.163.152-.155.227.031.168.066.372.113.625.094.545.211,1.33.331,2.318a75.194,75.194,0,0,1,.554,7.722c.066,3.027.167,5.752.066,7.734-.055.993-.105,1.773-.148,2.345-.023.253-.039.443-.055.634a.857.857,0,0,1-.035.222,1.056,1.056,0,0,1,0-.226c0-.173,0-.381.02-.638.019-.59.051-1.379.086-2.34.062-1.981-.062-4.706-.132-7.725s-.277-5.74-.487-7.708c-.105-.98-.2-1.773-.269-2.323-.031-.253-.055-.443-.074-.634C322.831,252.789,323.031,252.7,323.034,252.63Z" transform="translate(-295.984 -221.94)" fill="#263238"/>
        <g id="Group_96" data-name="Group 96" transform="translate(8.502 48.407)" opacity="0.3">
          <path id="Path_295" data-name="Path 295" d="M264.708,290.869a5.412,5.412,0,0,0,2.6-.1,2.5,2.5,0,0,0,1.706-1.834,2.155,2.155,0,0,1-.812,2.174,2.98,2.98,0,0,1-2.334.509,1.71,1.71,0,0,1-1.273-.777" transform="translate(-264.6 -288.94)"/>
        </g>
        <g id="Group_97" data-name="Group 97" transform="translate(6.923 52.526)" opacity="0.3">
          <path id="Path_296" data-name="Path 296" d="M259.64,301.88a20.51,20.51,0,0,0,6.183,1.273,46.018,46.018,0,0,0,6.348.267,15.6,15.6,0,0,0,6.148-1.439s-7.586.213-9.911.124S259.64,301.88,259.64,301.88Z" transform="translate(-259.64 -301.88)"/>
        </g>
        <path id="Path_297" data-name="Path 297" d="M336.159,311.76a1.471,1.471,0,0,1,.051.684,1.5,1.5,0,0,1-.118.675,2.889,2.889,0,0,1,.067-1.359Z" transform="translate(-304.792 -256.088)" fill="#263238"/>
        <path id="Path_298" data-name="Path 298" d="M342.157,313a1.5,1.5,0,0,1,.105.767,1.554,1.554,0,0,1-.14.764,2.337,2.337,0,0,1-.025-.767A2.432,2.432,0,0,1,342.157,313Z" transform="translate(-308.909 -256.934)" fill="#263238"/>
        <path id="Path_299" data-name="Path 299" d="M290.21,196.71a1.939,1.939,0,0,0,.618.583c.226.14.522.258.844.427a2.437,2.437,0,0,1,.245.143.637.637,0,0,1,.226.232.369.369,0,0,1-.026.36,1.154,1.154,0,0,1-.21.248.978.978,0,0,1-.271.194.439.439,0,0,1-.353,0,1.1,1.1,0,0,1-.395-.452,5.9,5.9,0,0,1-.427-.847,2.864,2.864,0,0,1-.245-.844c.025,0,.124.318.353.8a7.487,7.487,0,0,0,.455.818,1.228,1.228,0,0,0,.318.385c.124.067.318-.035.446-.172s.274-.3.2-.42a1.025,1.025,0,0,0-.4-.318c-.318-.169-.6-.318-.834-.462A1.111,1.111,0,0,1,290.21,196.71Z" transform="translate(-273.554 -177.666)" fill="#263238"/>
        <path id="Path_304" data-name="Path 304" d="M346.163,271.183l27.659-40.715Z" transform="translate(-277.487 -186.786)" fill="#2db0de"/>
        <path id="Path_325" data-name="Path 325" d="M331.064,315.17l-.9,2.111v2.76s.5,1.557.825,1.525.936-.264.85-.637l.7.382.764-.057a16.645,16.645,0,0,0,2.1-2.349,6.924,6.924,0,0,0,.131-1.073l-.6-1.477Z" transform="translate(-300.786 -258.413)" fill="#ffbe9d"/>
        <path id="Path_326" data-name="Path 326" d="M334.2,325.57c.022,0,0,.153-.051.385a2.5,2.5,0,0,0-.105.885,3.351,3.351,0,0,0,.4,1.194c0,.016-.137-.076-.271-.283a1.911,1.911,0,0,1-.3-.9,2.04,2.04,0,0,1,.159-.933C334.126,325.707,334.18,325.563,334.2,325.57Z" transform="translate(-303.319 -265.501)" fill="#eb996e"/>
        <path id="Path_327" data-name="Path 327" d="M335.335,327.841c-.022,0-.076-.121-.15-.318-.038-.105-.08-.232-.121-.372a2.041,2.041,0,0,0-.156-.43.232.232,0,0,0-.3-.131.413.413,0,0,0-.22.239c-.07.194-.083.341-.111.337s-.051-.14,0-.376a.513.513,0,0,1,.271-.341.37.37,0,0,1,.286-.016.453.453,0,0,1,.22.2,1.827,1.827,0,0,1,.159.471c.035.146.064.277.086.385C335.341,327.7,335.357,327.835,335.335,327.841Z" transform="translate(-303.57 -266.076)" fill="#eb996e"/>
        <path id="Path_328" data-name="Path 328" d="M342.766,326.44a1.318,1.318,0,0,1,.118.805,1.337,1.337,0,0,1-.226.783,4.016,4.016,0,0,1,.06-.793A4.664,4.664,0,0,1,342.766,326.44Z" transform="translate(-309.304 -266.095)" fill="#eb996e"/>
        <path id="Path_329" data-name="Path 329" d="M337.112,324.84a1.761,1.761,0,0,1,.121.815,1.814,1.814,0,0,1-.092.818,2.31,2.31,0,0,1-.073-.815,2.511,2.511,0,0,1,.045-.818Z" transform="translate(-305.484 -265.004)" fill="#eb996e"/>
        <path id="Path_330" data-name="Path 330" d="M345.564,326.163c-.038-.016,0-.239,0-.525s0-.516.051-.528.127.232.115.535S345.611,326.185,345.564,326.163Z" transform="translate(-311.274 -265.187)" fill="#eb996e"/>
        <path id="Path_331" data-name="Path 331" d="M296.292,182.327a.385.385,0,0,0-.449.191.637.637,0,0,0,0,.516.239.239,0,0,0,.14.166.21.21,0,0,0,.159,0,.6.6,0,0,0,.131-.105,1.063,1.063,0,0,0,.169-.388c.038-.14,0-.344-.14-.372" transform="translate(-277.357 -167.851)" fill="#eb996e"/>
        <path id="Path_332" data-name="Path 332" d="M295.736,183.024a.078.078,0,0,1-.054.08.251.251,0,0,1-.229-.032.446.446,0,0,1-.178-.277,1.021,1.021,0,0,1-.019-.347.522.522,0,0,1,.468-.478c.2,0,.264.137.232.162s-.111.022-.194.07a.369.369,0,0,0-.178.3,1.6,1.6,0,0,0,0,.245.461.461,0,0,0,.029.153C295.64,182.97,295.711,182.989,295.736,183.024Z" transform="translate(-276.989 -167.618)" fill="#263238"/>
        <path id="Path_1108" data-name="Path 1108" d="M264.708,290.869a5.412,5.412,0,0,0,2.6-.1,2.5,2.5,0,0,0,1.706-1.834,2.155,2.155,0,0,1-.812,2.174,2.98,2.98,0,0,1-2.334.509,1.71,1.71,0,0,1-1.273-.777" transform="matrix(0.588, 0.809, -0.809, 0.588, 100.761, -336.736)" opacity="0.33"/>
      </g>
      <g id="freepik--speech-bubble--inject-2" transform="translate(131.441 575.407)">
        <path id="Path_333" data-name="Path 333" d="M324.34,160.587l1.719-3.031A8.134,8.134,0,1,1,328,159.718h0Z" transform="translate(-324.34 -145.131)" fill="#fff"/>
        <path id="Path_334" data-name="Path 334" d="M324.34,160.547l3.658-.9-.022.064h0a.038.038,0,0,1,0-.057.045.045,0,0,1,.051,0,8.064,8.064,0,0,0,3.862,1.592,7.575,7.575,0,0,0,1.273.057c.22,0,.439-.019.665-.038l.675-.105a8.178,8.178,0,0,0,2.693-1.07,8.064,8.064,0,0,0,3.639-5.24,8.167,8.167,0,0,0-.1-3.55,7.9,7.9,0,0,0-1.713-3.279,7.98,7.98,0,0,0-3.072-2.2,8.165,8.165,0,0,0-3.578-.554,7.876,7.876,0,0,0-3.285.955,8.122,8.122,0,0,0-2.439,2.073,8.246,8.246,0,0,0-1.372,2.588,8.755,8.755,0,0,0-.36,2.6,8.051,8.051,0,0,0,1.175,3.992.048.048,0,0,1,0,.041c-1.1,1.882-1.617,2.773-1.754,3.012.134-.242.637-1.146,1.684-3.05v.038a8.093,8.093,0,0,1-1.219-4.03,8.8,8.8,0,0,1,.35-2.646,8.252,8.252,0,0,1,3.852-4.74,8,8,0,0,1,3.349-.99,8.277,8.277,0,0,1,3.655.56,8.159,8.159,0,0,1,3.136,2.229,8.038,8.038,0,0,1,1.748,3.349,8.182,8.182,0,0,1-6.367,10.028l-.688.105c-.229,0-.452.022-.675.035a7.1,7.1,0,0,1-1.274-.067,8.106,8.106,0,0,1-3.913-1.646l.057-.061h0a.038.038,0,0,1,0,.057h-.016Z" transform="translate(-324.34 -145.091)" fill="#263238"/>
        <path id="Path_335" data-name="Path 335" d="M348.294,158.669l.417,4.034a.653.653,0,0,0,.637.589h0a.656.656,0,0,0,.669-.608l.287-4.085a.513.513,0,0,0-.541-.551l-.987.051a.516.516,0,0,0-.481.57Z" transform="translate(-340.666 -153.922)" fill="#2db0de"/>
        <path id="Path_336" data-name="Path 336" d="M350.677,178.853a.987.987,0,1,1-.637-1.245A.987.987,0,0,1,350.677,178.853Z" transform="translate(-340.98 -167.223)" fill="#2db0de"/>
      </g>
      <path id="Path_1097" data-name="Path 1097" d="M326.1,206.311a8.327,8.327,0,0,0-3.309,2.6c-1.07,1.91-3.489,12.754-3.629,14.107s-.213,3.206,0,3.346-.637,5.129-.926,6.485a27.3,27.3,0,0,0-.7,6.59,22.208,22.208,0,0,1,.2,2.668l4.7-1.4-.162-1.646s.936-2.865,1.592-4.909,3.279-21.228,3.279-21.228Z" transform="translate(-215.585 388.798)" fill="#2db0de"/>
      <path id="Path_1099" data-name="Path 1099" d="M324.023,252.64a.772.772,0,0,0-.057.211c-.035.164-.074.363-.126.609-.1.531-.235,1.295-.371,2.257a63.949,63.949,0,0,0-.619,7.519c-.074,2.948.044,5.611.157,7.54.061.967.118,1.726.166,2.283.026.246.044.432.061.617a.737.737,0,0,0,.039.216.9.9,0,0,0,0-.22c0-.168,0-.371-.022-.622-.022-.574-.057-1.342-.1-2.279-.07-1.929-.161-4.592-.083-7.532s.309-5.589.545-7.506c.118-.954.222-1.726.3-2.262.035-.246.061-.432.083-.617A.68.68,0,0,0,324.023,252.64Z" transform="translate(-213.838 351.429)" fill="#263238"/>
      <path id="Path_1100" data-name="Path 1100" d="M336.107,311.76a1.471,1.471,0,0,0-.051.685,1.5,1.5,0,0,0,.118.675,2.89,2.89,0,0,0-.067-1.359Z" transform="translate(-230.571 316.708)" fill="#263238"/>
      <path id="Path_1101" data-name="Path 1101" d="M342.193,313a1.5,1.5,0,0,0-.105.767,1.554,1.554,0,0,0,.14.764,2.337,2.337,0,0,0,.025-.767A2.432,2.432,0,0,0,342.193,313Z" transform="translate(-238.538 315.863)" fill="#263238"/>
      <path id="Path_1102" data-name="Path 1102" d="M334.63,315.17l.9,2.111v2.76s-.5,1.557-.825,1.525-.936-.264-.85-.637l-.7.382-.764-.057a16.645,16.645,0,0,1-2.1-2.349,6.924,6.924,0,0,1-.131-1.073l.6-1.477Z" transform="translate(-228.005 314.383)" fill="#ffbe9d"/>
      <path id="Path_1103" data-name="Path 1103" d="M334.125,325.57c-.022,0,0,.153.051.385a2.5,2.5,0,0,1,.105.885,3.352,3.352,0,0,1-.4,1.194c0,.016.137-.076.271-.283a1.911,1.911,0,0,0,.3-.9,2.04,2.04,0,0,0-.159-.933C334.2,325.707,334.147,325.563,334.125,325.57Z" transform="translate(-228.105 307.295)" fill="#eb996e"/>
      <path id="Path_1104" data-name="Path 1104" d="M334.254,327.841c.022,0,.076-.121.15-.318.038-.105.08-.232.121-.372a2.041,2.041,0,0,1,.156-.43.232.232,0,0,1,.3-.131.413.413,0,0,1,.22.239c.07.194.083.341.111.337s.051-.14,0-.376a.512.512,0,0,0-.271-.341.37.37,0,0,0-.286-.016.453.453,0,0,0-.22.2,1.827,1.827,0,0,0-.159.471c-.035.146-.064.277-.086.385C334.248,327.7,334.232,327.835,334.254,327.841Z" transform="translate(-229.116 306.72)" fill="#eb996e"/>
      <path id="Path_1105" data-name="Path 1105" d="M342.793,326.44a1.318,1.318,0,0,0-.118.805,1.337,1.337,0,0,0,.226.783,4.017,4.017,0,0,0-.06-.793A4.664,4.664,0,0,0,342.793,326.44Z" transform="translate(-239.352 306.701)" fill="#eb996e"/>
      <path id="Path_1106" data-name="Path 1106" d="M337.186,324.84a1.761,1.761,0,0,0-.121.815,1.814,1.814,0,0,0,.092.818,2.31,2.31,0,0,0,.073-.815,2.511,2.511,0,0,0-.045-.818Z" transform="translate(-231.911 307.792)" fill="#eb996e"/>
      <path id="Path_1107" data-name="Path 1107" d="M345.714,326.163c.038-.016,0-.239,0-.525s0-.516-.051-.528-.127.232-.115.535S345.666,326.185,345.714,326.163Z" transform="translate(-243.1 307.609)" fill="#eb996e"/>
      <path id="Path_1109" data-name="Path 1109" d="M310.09,274.507a3.075,3.075,0,0,0,.637-.385,17.83,17.83,0,0,0,1.423-1.089,17.507,17.507,0,0,0,1.315-1.219,3.012,3.012,0,0,0,.484-.563,3.861,3.861,0,0,0-.567.481c-.337.318-.805.726-1.337,1.175s-1.028.84-1.385,1.124A3.525,3.525,0,0,0,310.09,274.507Z" transform="translate(-199.03 344.321)" fill="#263238"/>
    </g>
  </g>
</svg>
