<svg xmlns="http://www.w3.org/2000/svg" width="116.971" height="113.448" viewBox="0 0 116.971 113.448">
  <g id="Group_324" data-name="Group 324" transform="translate(0 0)">
    <path id="Path_78" data-name="Path 78" d="M880.621,338.776v74.64a19.384,19.384,0,0,1-12.791,18.093c-.225.087-.451.166-.681.241a20.4,20.4,0,0,1-6.533,1.062H783.646a20.335,20.335,0,0,1-2.985-.219,19.57,19.57,0,0,1-17.011-19.177v-74.64c0-10.716,8.955-19.4,20-19.4h76.96C871.661,319.375,880.621,328.06,880.621,338.776Z" transform="translate(-763.65 -319.38)" fill="#d2e4ff"/>
    <g id="Group_49" data-name="Group 49" transform="translate(2.538 13.449)">
      <path id="Path_79" data-name="Path 79" d="M863.876,420.911s-.338,10.161-1.682,14.713L851.58,442.8l39.957,5.8-9.531-12.767s-2.877-13.624-1.353-18.661S863.876,420.911,863.876,420.911Z" transform="translate(-814.473 -386.986)" fill="#ffb27d"/>
      <path id="Path_80" data-name="Path 80" d="M878.72,430.94s3.156,7.376,9.112,7.214,7.3-6.69,7.3-6.69Z" transform="translate(-829.376 -395.612)" fill="#ed985f"/>
      <path id="Path_81" data-name="Path 81" d="M865.977,379.5s-1.921-9.3-3.264-12.12-2.457-15.391,12.408-16.042c0,0,5.7.651,8.829-1.194,0,0,0,1.845-.78,2.492a10.061,10.061,0,0,1,9.162,3.131c4.026,4.337-2.683,19.509-2.344,23.086Z" transform="translate(-820.186 -350.14)" fill="#2c3a64"/>
      <path id="Path_82" data-name="Path 82" d="M894.768,381.738V391.89a11.667,11.667,0,0,1-1.082,4.81h0a15.484,15.484,0,0,1-5.357,6.27,10.6,10.6,0,0,1-5.807,2.051,11.454,11.454,0,0,1-5.514-2.02,15.187,15.187,0,0,1-6.195-7.4v-.048l-.041-.127a9.568,9.568,0,0,1-.483-2.947V381.738a4.335,4.335,0,0,1,4.022-4.578h16.453A4.34,4.34,0,0,1,894.768,381.738Z" transform="translate(-824.747 -365.346)" fill="#ffb27d"/>
      <path id="Path_83" data-name="Path 83" d="M850.4,464.025s-9.383-1.959-13.585-2.435c-3.706,4.779-6.371,6.06-9.757,7.363C821.6,468.223,817,461.52,817,461.38a58.05,58.05,0,0,0-11.574,2.313h0c-.383.048-14.91,2.007-36.147,39.264a20.012,20.012,0,0,0,14.482,9.724c2.737-2.291,8.612-7.241,13.22-11.123-.049,1.255-.058,2.387-.031,3.375.081,2.667.179,5.158.237,7.808l57.966-.014c-.113-1.347-.252-2.472-.32-3.71-.2-3.861-.383-7.389-.555-10.607a.511.511,0,0,0,0-.083v-.1h0l2.931,2.466.663.555.586.494.821.7,1.506,1.264.7.59.37.315c.144.118.289.236.428.359s.216.175.32.266l.74.625.6.512.5.437q.9.774,1.8,1.5l.685.577c.234.2.451.4.7.586l.478.4.212.175c.239.206.473.407.7.59l.681.577.271.223c.095.083.185.157.28.232.225-.074.451-.153.681-.24a19.657,19.657,0,0,0,12.151-13.2C863.184,465.018,850.4,464.025,850.4,464.025Z" transform="translate(-769.28 -412.742)" fill="#f99746"/>
      <path id="Path_84" data-name="Path 84" d="M869.584,384.349s0-6.462,5.3-7.459,17.1,3.152,18.774-1.561-22.846-4.635-24.077-1.627S869.584,384.349,869.584,384.349Z" transform="translate(-824.059 -362.212)" fill="#2c3a64"/>
      <path id="Path_85" data-name="Path 85" d="M837.719,563.087h-6.867c-.059-2.65-.144-5.3-.226-7.967-.027-.988,0-2.12.032-3.375a7.343,7.343,0,0,1,.036-.874c.068.1.185.284.343.538C832.065,553.048,834.847,557.573,837.719,563.087Z" transform="translate(-802.961 -463.104)" fill="#ed7d2b"/>
      <path id="Path_86" data-name="Path 86" d="M896.5,420.153v4.473a10.608,10.608,0,0,1-5.807,2.051,11.458,11.458,0,0,1-5.514-2.02v-4.5a4.633,4.633,0,0,1,4.685-4.543h1.952A4.633,4.633,0,0,1,896.5,420.153Z" transform="translate(-832.923 -386.984)" fill="#2c3a64"/>
      <path id="Path_87" data-name="Path 87" d="M974.354,557.063c-.225.088-.451.166-.681.24-.095-.074-.185-.148-.279-.232l-.27-.223-.681-.586c-.225-.184-.451-.385-.7-.59l-.212-.175-.478-.4c-.226-.188-.451-.385-.7-.586l-.686-.577q-.874-.726-1.8-1.5l-.5-.437-.6-.511-.739-.625c-.1-.092-.217-.179-.32-.267s-.284-.241-.428-.358l-.37-.315-.7-.59-1.506-1.264-.82-.7-.586-.494-.663-.555-2.931-2.466-.054-.048.05-.035c.55-.376,5.559-3.585,8.72,1.836A132.275,132.275,0,0,0,974.354,557.063Z" transform="translate(-872.713 -458.384)" fill="#ed7d2b"/>
      <path id="Path_88" data-name="Path 88" d="M894.247,420.235c-2.209,4.888-7.376,8.386-11.163,8.307-3.639-.066-9.856-4.04-11.723-9.418v-.048l-.041-.127s3.909,3.231,6.493,1.631h10.853A5.493,5.493,0,0,0,894.247,420.235Z" transform="translate(-825.313 -388.864)" fill="#2c3a64"/>
      <path id="Path_89" data-name="Path 89" d="M895.992,422.313h-2.34c-.536,0-1.222-.853-1.222-1.373a2.628,2.628,0,0,1,1.222-.52h2.34a1.976,1.976,0,0,1,1.447.743A1.589,1.589,0,0,1,895.992,422.313Z" transform="translate(-836.905 -389.691)" fill="#ffb27d"/>
    </g>
  </g>
</svg>
