<svg id="single-02" xmlns="http://www.w3.org/2000/svg" width="80.988" height="97.185" viewBox="0 0 80.988 97.185">
  <path id="Path" d="M54.509,0A27.506,27.506,0,0,1,40.494,3.956,27.506,27.506,0,0,1,26.479,0,28.36,28.36,0,0,0,0,28.252v7.005l2.814.9c.543.17,13.537,4.24,37.679,4.24s37.137-4.07,37.679-4.24l2.814-.9V28.252A28.36,28.36,0,0,0,54.509,0Z" transform="translate(0 56.784)" fill="#2dc7ff"/>
  <path id="Path-2" data-name="Path" d="M24.3,52.642c13.683,0,24.3-15.238,24.3-28.346A24.3,24.3,0,1,0,0,24.3C0,37.4,10.613,52.642,24.3,52.642Z" transform="translate(16.198 0)" fill="#2dc7ff"/>
</svg>
