<svg xmlns="http://www.w3.org/2000/svg" xmlns:xlink="http://www.w3.org/1999/xlink" width="297.601" height="274.915" viewBox="0 0 297.601 274.915">
  <defs>
    <clipPath id="clip-path">
      <rect width="297.601" height="274.915" fill="none"/>
    </clipPath>
  </defs>
  <g id="Lost-girl" clip-path="url(#clip-path)">
    <g id="Lost-girl-2" data-name="Lost-girl" transform="translate(-31.9 -54.3)">
      <g id="freepik--Floor--inject-2" transform="translate(31.9 162.203)">
        <g id="freepik--floor--inject-2-2" data-name="freepik--floor--inject-2">
          <ellipse id="freepik--floor--inject-2-3" data-name="freepik--floor--inject-2" cx="144.64" cy="83.506" rx="144.64" ry="83.506" fill="#ebebeb"/>
          <path id="freepik--Road--inject-2" d="M346.188,314.125c-.033-19.148-11.406-38.289-34.111-53.785l-1.219-.819L106.83,377.317h0l1.259.62c26.836,13.151,60.081,19.754,93.313,19.774Z" transform="translate(-56.909 -230.699)" fill="#fafafa"/>
        </g>
      </g>
      <g id="freepik--Shadows--inject-2" transform="translate(45.618 170.438)">
        <ellipse id="freepik--Shadow--inject-2" cx="25.477" cy="14.71" rx="25.477" ry="14.71" transform="translate(72.673)" fill="#e0e0e0"/>
        <ellipse id="freepik--shadow--inject-2-2" data-name="freepik--shadow--inject-2" cx="37.409" cy="21.599" rx="37.409" ry="21.599" transform="translate(140.429 73.013)" opacity="0.05"/>
        <ellipse id="freepik--shadow--inject-2-3" data-name="freepik--shadow--inject-2" cx="29.434" cy="16.996" rx="29.434" ry="16.996" transform="translate(0 68.229)" fill="#e0e0e0"/>
      </g>
      <g id="freepik--Trees--inject-2" transform="translate(32.84 54.3)">
        <g id="freepik--Pine--inject-2" transform="translate(72.119)">
          <path id="Path_352" data-name="Path 352" d="M191,143.5v71.287a2.883,2.883,0,0,0,1.7,2.365,9.074,9.074,0,0,0,8.181,0,2.9,2.9,0,0,0,1.7-2.365V143.5Z" transform="translate(-158.061 -84.072)" fill="#b16668"/>
          <path id="Path_353" data-name="Path 353" d="M218.61,155.484,182.76,68.9h-5l-35.857,86.611a4.59,4.59,0,0,0,3.331,6.249l.586.113a4.577,4.577,0,0,1,3.651,5.063h0a4.59,4.59,0,0,0,5.9,4.95l1.772-.546a4.577,4.577,0,0,1,5.516,2.485l1.786,3.931a4.584,4.584,0,0,0,6.509,2.052l6.956-4.124a4.564,4.564,0,0,1,4.664,0l6.955,4.124a4.584,4.584,0,0,0,6.509-2.052l1.779-3.931a4.584,4.584,0,0,1,5.523-2.485l1.772.54a4.577,4.577,0,0,0,5.89-4.943h0a4.59,4.59,0,0,1,3.658-5.063l.586-.113a4.584,4.584,0,0,0,3.364-6.276Z" transform="translate(-141.559 -59.173)" fill="#2db0de"/>
          <path id="Path_354" data-name="Path 354" d="M218.61,155.484,182.76,68.9h-5l-35.857,86.611a4.59,4.59,0,0,0,3.331,6.249l.586.113a4.577,4.577,0,0,1,3.651,5.063h0a4.59,4.59,0,0,0,5.9,4.95l1.772-.546a4.577,4.577,0,0,1,5.516,2.485l1.786,3.931a4.584,4.584,0,0,0,6.509,2.052l6.956-4.124a4.564,4.564,0,0,1,4.664,0l6.955,4.124a4.584,4.584,0,0,0,6.509-2.052l1.779-3.931a4.584,4.584,0,0,1,5.523-2.485l1.772.54a4.577,4.577,0,0,0,5.89-4.943h0a4.59,4.59,0,0,1,3.658-5.063l.586-.113a4.584,4.584,0,0,0,3.364-6.276Z" transform="translate(-141.559 -59.173)" opacity="0.3"/>
          <path id="Path_355" data-name="Path 355" d="M177.567,78.861l4-9.1h5l6.622,15.423,21.639,52.253a2.665,2.665,0,0,1-2.259,2.145h0a3.464,3.464,0,0,0-2.878,3.818l.073.666A3.458,3.458,0,0,1,205.1,147.7l-1.772-.666a3.464,3.464,0,0,0-4.4,1.825l-2.2,4.937a3.478,3.478,0,0,1-4.943,1.566l-5.943-4a3.464,3.464,0,0,0-3.551,0l-6.629,4a3.478,3.478,0,0,1-4.943-1.566l-2.2-4.937a3.464,3.464,0,0,0-4.4-1.826l-1.772.666a3.464,3.464,0,0,1-4.664-3.638l.08-.666a3.464,3.464,0,0,0-2.878-3.818,2.612,2.612,0,0,1-1.919-1.279Z" transform="translate(-145.368 -59.46)" opacity="0.1"/>
          <path id="Path_356" data-name="Path 356" d="M214.19,128.581,186.335,63.71h-5l-28.581,64.871c-1.026,2.085-.44,4.57,1.859,4.95a3.464,3.464,0,0,1,2.878,3.818l-.08.666a3.471,3.471,0,0,0,4.664,3.644l1.772-.666a3.464,3.464,0,0,1,4.4,1.825l2.2,4.937a3.464,3.464,0,0,0,4.943,1.566l6.629-3.957a3.464,3.464,0,0,1,3.551,0l5.943,3.957a3.464,3.464,0,0,0,4.943-1.566l2.2-4.937a3.464,3.464,0,0,1,4.4-1.825l1.772.666a3.464,3.464,0,0,0,4.664-3.644l-.073-.666a3.471,3.471,0,0,1,2.878-3.824h0C214.636,133.152,215.222,130.667,214.19,128.581Z" transform="translate(-145.134 -57.441)" fill="#2db0de"/>
          <path id="Path_357" data-name="Path 357" d="M214.19,128.581,186.335,63.71h-5l-28.581,64.871c-1.026,2.085-.44,4.57,1.859,4.95a3.464,3.464,0,0,1,2.878,3.818l-.08.666a3.471,3.471,0,0,0,4.664,3.644l1.772-.666a3.464,3.464,0,0,1,4.4,1.825l2.2,4.937a3.464,3.464,0,0,0,4.943,1.566l6.629-3.957a3.464,3.464,0,0,1,3.551,0l5.943,3.957a3.464,3.464,0,0,0,4.943-1.566l2.2-4.937a3.464,3.464,0,0,1,4.4-1.825l1.772.666a3.464,3.464,0,0,0,4.664-3.644l-.073-.666a3.471,3.471,0,0,1,2.878-3.824h0C214.636,133.152,215.222,130.667,214.19,128.581Z" transform="translate(-145.134 -57.441)" opacity="0.2"/>
          <path id="Path_358" data-name="Path 358" d="M185.557,63.71h5l20.3,47.269a2.832,2.832,0,0,1-.513.36l-.153.087a3.145,3.145,0,0,0-1.586,2.991h0a3.118,3.118,0,0,1-3.9,3.285l-1.213-.32a3.118,3.118,0,0,0-3.544,1.546l-1.659,3.1a3.131,3.131,0,0,1-4.2,1.292l-4.584-2.4a3.125,3.125,0,0,0-2.891,0l-4.584,2.4a3.131,3.131,0,0,1-4.2-1.293l-1.659-3.1a3.125,3.125,0,0,0-3.551-1.546l-1.206.32a3.118,3.118,0,0,1-3.9-3.285,3.125,3.125,0,0,0-1.586-2.985l-.153-.087a3.152,3.152,0,0,1-.859-.726Z" transform="translate(-149.353 -57.441)" opacity="0.1"/>
          <path id="Path_359" data-name="Path 359" d="M211.1,99.924l-20.94-44.018L190,55.639a2.665,2.665,0,0,0-4.624,0l-.167.273-20.94,44.011a3.118,3.118,0,0,0,1.133,4.364l.153.087a3.131,3.131,0,0,1,1.586,2.985,3.118,3.118,0,0,0,3.9,3.285l1.206-.32a3.131,3.131,0,0,1,3.551,1.546l1.659,3.1a3.125,3.125,0,0,0,4.2,1.292l4.584-2.392a3.125,3.125,0,0,1,2.891,0l4.584,2.392a3.125,3.125,0,0,0,4.2-1.292l1.659-3.1a3.125,3.125,0,0,1,3.544-1.546l1.213.32a3.118,3.118,0,0,0,3.9-3.285h0a3.131,3.131,0,0,1,1.586-2.985l.153-.087a3.118,3.118,0,0,0,1.133-4.364Z" transform="translate(-148.982 -54.3)" fill="#2db0de"/>
          <path id="Path_360" data-name="Path 360" d="M211.1,99.924l-20.94-44.018L190,55.639a2.665,2.665,0,0,0-4.624,0l-.167.273-20.94,44.011a3.118,3.118,0,0,0,1.133,4.364l.153.087a3.131,3.131,0,0,1,1.586,2.985,3.118,3.118,0,0,0,3.9,3.285l1.206-.32a3.131,3.131,0,0,1,3.551,1.546l1.659,3.1a3.125,3.125,0,0,0,4.2,1.292l4.584-2.392a3.125,3.125,0,0,1,2.891,0l4.584,2.392a3.125,3.125,0,0,0,4.2-1.292l1.659-3.1a3.125,3.125,0,0,1,3.544-1.546l1.213.32a3.118,3.118,0,0,0,3.9-3.285h0a3.131,3.131,0,0,1,1.586-2.985l.153-.087a3.118,3.118,0,0,0,1.133-4.364Z" transform="translate(-148.982 -54.3)" opacity="0.1"/>
          <path id="Path_361" data-name="Path 361" d="M191.9,252.115a3.558,3.558,0,0,0-7.109,0v.2a1.819,1.819,0,0,0,1.039,1.332,5.576,5.576,0,0,0,5.03,0,1.832,1.832,0,0,0,1.039-1.332v-.2Z" transform="translate(-155.988 -119.187)" fill="#37474f"/>
          <path id="Path_362" data-name="Path 362" d="M191.063,253.87a1.832,1.832,0,0,0,1.039-1.332v-.2a3.551,3.551,0,0,0-1.852-3.018c0,.04,1.772,2.232.48,3.7-.893,1.013-4,1.2-5.33.4a2.4,2.4,0,0,0,.613.473,5.576,5.576,0,0,0,5.05-.02Z" transform="translate(-156.192 -119.391)" fill="#263238"/>
          <path id="Path_363" data-name="Path 363" d="M184.317,255.317a2.512,2.512,0,0,0-5.017,0v.14a1.286,1.286,0,0,0,.733.953,3.924,3.924,0,0,0,3.551,0,1.286,1.286,0,0,0,.733-.953.274.274,0,0,0,0-.073.227.227,0,0,0,0-.067Z" transform="translate(-154.156 -120.597)" fill="#455a64"/>
          <path id="Path_364" data-name="Path 364" d="M183.614,257.185a1.286,1.286,0,0,0,.733-.953.273.273,0,0,0,0-.073.227.227,0,0,0,0-.067,2.472,2.472,0,0,0-.167-.833c.06,1.073-.446,1.726-2.032,1.932a3.165,3.165,0,0,1-2.758-.72,1.426,1.426,0,0,0,.666.713,3.924,3.924,0,0,0,3.558,0Z" transform="translate(-154.186 -121.373)" fill="#37474f"/>
          <path id="Path_365" data-name="Path 365" d="M211.966,251.556a2.492,2.492,0,0,0-4.977,0,.227.227,0,0,0,0,.067.275.275,0,0,0,0,.073,1.253,1.253,0,0,0,.726.946,3.911,3.911,0,0,0,3.524,0,1.273,1.273,0,0,0,.726-.946v-.14Z" transform="translate(-163.397 -119.348)" fill="#455a64"/>
          <path id="Path_366" data-name="Path 366" d="M211.277,253.412a1.273,1.273,0,0,0,.726-.946v-.14a2.4,2.4,0,0,0-.167-.826c.06,1.066-.446,1.712-2,1.912a3.214,3.214,0,0,1-2.738-.706,1.439,1.439,0,0,0,.666.706A3.911,3.911,0,0,0,211.277,253.412Z" transform="translate(-163.435 -120.118)" fill="#37474f"/>
        </g>
        <g id="freepik--pine--inject-2-2" data-name="freepik--pine--inject-2" transform="translate(0 60.544)">
          <path id="Path_367" data-name="Path 367" d="M99.235,241.57v77.01a3.118,3.118,0,0,1-1.832,2.558,9.807,9.807,0,0,1-8.848,0,3.109,3.109,0,0,1-1.825-2.558V241.57Z" transform="translate(-51.14 -177.348)" fill="#b16668"/>
          <path id="Path_368" data-name="Path 368" d="M33.71,254.539,72.452,161h5.4L116.6,254.579a4.95,4.95,0,0,1-3.611,6.749l-.666.127a4.957,4.957,0,0,0-3.951,5.47h0a4.95,4.95,0,0,1-6.369,5.33l-1.912-.586a4.95,4.95,0,0,0-6,2.665l-1.925,4.251A4.95,4.95,0,0,1,85.13,280.8l-7.455-4.457a4.97,4.97,0,0,0-5.05,0L65.083,280.8a4.95,4.95,0,0,1-7.035-2.212l-1.925-4.251a4.95,4.95,0,0,0-6-2.665l-1.919.586a4.95,4.95,0,0,1-6.369-5.33h0a4.943,4.943,0,0,0-3.944-5.47l-.666-.127a4.95,4.95,0,0,1-3.518-6.789Z" transform="translate(-33.311 -150.457)" fill="#2db0de"/>
          <path id="Path_369" data-name="Path 369" d="M33.71,254.539,72.452,161h5.4L116.6,254.579a4.95,4.95,0,0,1-3.611,6.749l-.666.127a4.957,4.957,0,0,0-3.951,5.47h0a4.95,4.95,0,0,1-6.369,5.33l-1.912-.586a4.95,4.95,0,0,0-6,2.665l-1.925,4.251A4.95,4.95,0,0,1,85.13,280.8l-7.455-4.457a4.97,4.97,0,0,0-5.05,0L65.083,280.8a4.95,4.95,0,0,1-7.035-2.212l-1.925-4.251a4.95,4.95,0,0,0-6-2.665l-1.919.586a4.95,4.95,0,0,1-6.369-5.33h0a4.943,4.943,0,0,0-3.944-5.47l-.666-.127a4.95,4.95,0,0,1-3.518-6.789Z" transform="translate(-33.311 -150.457)" opacity="0.3"/>
          <path id="Path_370" data-name="Path 370" d="M86.487,171.714l-4.331-9.834h-5.4L69.6,178.536,46.22,235.006a2.878,2.878,0,0,0,2.438,2.312h0a3.751,3.751,0,0,1,3.111,4.131l-.08.72a3.744,3.744,0,0,0,5.05,3.931l1.912-.733a3.751,3.751,0,0,1,4.757,2l2.372,5.33a3.738,3.738,0,0,0,5.33,1.692l6.429-4.277a3.731,3.731,0,0,1,3.831,0l7.175,4.277a3.744,3.744,0,0,0,5.33-1.692l2.372-5.33a3.751,3.751,0,0,1,4.757-2l1.912.733a3.744,3.744,0,0,0,5.05-3.931l-.08-.72A3.751,3.751,0,0,1,111,237.318a2.812,2.812,0,0,0,2.072-1.379Z" transform="translate(-37.619 -150.75)" opacity="0.1"/>
          <path id="Path_371" data-name="Path 371" d="M46.606,225.441l30.107-70.1h5.4l30.86,70.1c1.106,2.259.473,4.943-2,5.33a3.751,3.751,0,0,0-3.111,4.131l.08.713a3.744,3.744,0,0,1-5.05,3.931l-1.912-.726a3.751,3.751,0,0,0-4.757,2l-2.372,5.33a3.751,3.751,0,0,1-5.33,1.692l-7.182-4.284a3.731,3.731,0,0,0-3.831,0l-6.429,4.284a3.751,3.751,0,0,1-5.33-1.692l-2.372-5.33a3.751,3.751,0,0,0-4.757-2l-1.932.746a3.744,3.744,0,0,1-5.05-3.931l.08-.72a3.744,3.744,0,0,0-3.111-4.124h0C46.133,230.4,45.493,227.693,46.606,225.441Z" transform="translate(-37.572 -148.568)" fill="#2db0de"/>
          <path id="Path_372" data-name="Path 372" d="M46.606,225.441l30.107-70.1h5.4l30.86,70.1c1.106,2.259.473,4.943-2,5.33a3.751,3.751,0,0,0-3.111,4.131l.08.713a3.744,3.744,0,0,1-5.05,3.931l-1.912-.726a3.751,3.751,0,0,0-4.757,2l-2.372,5.33a3.751,3.751,0,0,1-5.33,1.692l-7.182-4.284a3.731,3.731,0,0,0-3.831,0l-6.429,4.284a3.751,3.751,0,0,1-5.33-1.692l-2.372-5.33a3.751,3.751,0,0,0-4.757-2l-1.932.746a3.744,3.744,0,0,1-5.05-3.931l.08-.72a3.744,3.744,0,0,0-3.111-4.124h0C46.133,230.4,45.493,227.693,46.606,225.441Z" transform="translate(-37.572 -148.568)" opacity="0.2"/>
          <path id="Path_373" data-name="Path 373" d="M86.466,155.34h-5.4L59.13,206.414a3.277,3.277,0,0,0,.553.386l.167.093a3.371,3.371,0,0,1,1.712,3.231h0a3.378,3.378,0,0,0,4.224,3.551l1.332-.346a3.364,3.364,0,0,1,3.831,1.666l1.8,3.331a3.364,3.364,0,0,0,4.53,1.392l4.957-2.585a3.331,3.331,0,0,1,3.125,0l4.95,2.585a3.378,3.378,0,0,0,4.537-1.392l1.792-3.331a3.378,3.378,0,0,1,3.838-1.666l1.332.346a3.371,3.371,0,0,0,4.217-3.551,3.378,3.378,0,0,1,1.712-3.225l.173-.1a3.164,3.164,0,0,0,.919-.779Z" transform="translate(-41.928 -148.568)" opacity="0.1"/>
          <path id="Path_374" data-name="Path 374" d="M57.878,194.48,80.53,146.91l.173-.286a2.878,2.878,0,0,1,5,0l.187.293,22.652,47.563a3.378,3.378,0,0,1-1.219,4.717l-.173.093a3.378,3.378,0,0,0-1.712,3.225,3.371,3.371,0,0,1-4.217,3.551l-1.332-.346a3.378,3.378,0,0,0-3.838,1.666l-1.792,3.331a3.378,3.378,0,0,1-4.537,1.392l-4.95-2.585a3.331,3.331,0,0,0-3.125,0l-4.957,2.585a3.364,3.364,0,0,1-4.53-1.392l-1.8-3.331a3.364,3.364,0,0,0-3.831-1.666l-1.332.346a3.378,3.378,0,0,1-4.224-3.551h0a3.331,3.331,0,0,0-1.712-3.225l-.167-.1a3.371,3.371,0,0,1-1.213-4.71Z" transform="translate(-41.342 -145.175)" fill="#2db0de"/>
          <path id="Path_375" data-name="Path 375" d="M57.878,194.48,80.53,146.91l.173-.286a2.878,2.878,0,0,1,5,0l.187.293,22.652,47.563a3.378,3.378,0,0,1-1.219,4.717l-.173.093a3.378,3.378,0,0,0-1.712,3.225,3.371,3.371,0,0,1-4.217,3.551l-1.332-.346a3.378,3.378,0,0,0-3.838,1.666l-1.792,3.331a3.378,3.378,0,0,1-4.537,1.392l-4.95-2.585a3.331,3.331,0,0,0-3.125,0l-4.957,2.585a3.364,3.364,0,0,1-4.53-1.392l-1.8-3.331a3.364,3.364,0,0,0-3.831-1.666l-1.332.346a3.378,3.378,0,0,1-4.224-3.551h0a3.331,3.331,0,0,0-1.712-3.225l-.167-.1a3.371,3.371,0,0,1-1.213-4.71Z" transform="translate(-41.342 -145.175)" opacity="0.1"/>
          <path id="Path_376" data-name="Path 376" d="M100.64,358.944a3.844,3.844,0,0,1,7.682,0v.213a2,2,0,0,1-1.119,1.466,6,6,0,0,1-5.436,0,2,2,0,0,1-1.126-1.466Z" transform="translate(-55.783 -215.294)" fill="#37474f"/>
          <path id="Path_377" data-name="Path 377" d="M101.766,360.837a2,2,0,0,1-1.126-1.466v-.213a3.838,3.838,0,0,1,2-3.258c0,.033-1.912,2.405-.513,4,.966,1.093,4.284,1.293,5.736.433a3.19,3.19,0,0,1-.666.513,6,6,0,0,1-5.43-.007Z" transform="translate(-55.783 -215.507)" fill="#263238"/>
          <path id="Path_378" data-name="Path 378" d="M110,362.332a2.712,2.712,0,1,1,5.423,0,.3.3,0,0,1,0,.073.326.326,0,0,1,0,.08,1.379,1.379,0,0,1-.793,1.033,4.237,4.237,0,0,1-3.838,0,1.412,1.412,0,0,1-.793-1.033Z" transform="translate(-58.907 -216.749)" fill="#455a64"/>
          <path id="Path_379" data-name="Path 379" d="M110.753,364.425a1.412,1.412,0,0,1-.793-1.033v-.153a2.705,2.705,0,0,1,.187-.9c-.067,1.166.48,1.865,2.2,2.085a3.423,3.423,0,0,0,2.978-.773,1.553,1.553,0,0,1-.733.773,4.237,4.237,0,0,1-3.838,0Z" transform="translate(-58.894 -217.657)" fill="#37474f"/>
          <path id="Path_380" data-name="Path 380" d="M80.107,358.273a2.688,2.688,0,0,1,5.377,0,.407.407,0,0,1,0,.147,1.333,1.333,0,0,1-.786,1.026,4.2,4.2,0,0,1-3.8,0,1.379,1.379,0,0,1-.786-1.026A.407.407,0,0,1,80.107,358.273Z" transform="translate(-48.927 -215.402)" fill="#455a64"/>
          <path id="Path_381" data-name="Path 381" d="M80.893,360.345a1.379,1.379,0,0,1-.786-1.026.407.407,0,0,1,0-.147,2.6,2.6,0,0,1,.18-.893c-.067,1.153.48,1.852,2.179,2.072a3.4,3.4,0,0,0,2.958-.773,1.552,1.552,0,0,1-.726.766A4.2,4.2,0,0,1,80.893,360.345Z" transform="translate(-48.927 -216.302)" fill="#37474f"/>
        </g>
        <g id="freepik--Plants--inject-2" transform="translate(106.171 173.41)">
          <path id="Path_382" data-name="Path 382" d="M215.021,351.724l3.9-2.232s1.872-10.313.473-19.181c-2-12.465-10.453-16.762-13.538-15.523s-3.8,4.93,1.759,12.132C210.9,331.17,215.154,340.178,215.021,351.724Z" transform="translate(-196.28 -314.583)" fill="#2db0de"/>
          <path id="Path_383" data-name="Path 383" d="M215.021,351.724l3.9-2.232s1.872-10.313.473-19.181c-2-12.465-10.453-16.762-13.538-15.523s-3.8,4.93,1.759,12.132C210.9,331.17,215.154,340.178,215.021,351.724Z" transform="translate(-196.28 -314.583)" opacity="0.3"/>
          <path id="Path_384" data-name="Path 384" d="M218.564,347.672h-.04a.28.28,0,0,1-.24-.313c1.612-11.672-3.078-24.457-8.355-29.607a.28.28,0,0,1,0-.393.273.273,0,0,1,.393,0c5.37,5.25,10.153,18.242,8.514,30.087A.287.287,0,0,1,218.564,347.672Z" transform="translate(-198.404 -315.481)" fill="#fff"/>
          <path id="Path_385" data-name="Path 385" d="M200.585,363.327c-.613.36-1.885-.42-2.372-.746a5.857,5.857,0,0,1-1.959-2.245,5.5,5.5,0,0,1-.486-3.331,12.277,12.277,0,0,1,.42-1.759c.16-.573.326-1.139.486-1.712a4.251,4.251,0,0,0,.253-1.726,4.319,4.319,0,0,0-2.132-2.665c-.946-.666-2.132-1.812-2.125-3.218a4.977,4.977,0,0,1,1.239-2.951c.666-.853,1.472-1.606,2.085-2.505a3.458,3.458,0,0,0,.706-2.185,3.751,3.751,0,0,0-.473-1.366,19.247,19.247,0,0,1-1.5-2.738,2.778,2.778,0,0,1,.473-2.918,3.245,3.245,0,0,1,2.425-.6,5.569,5.569,0,0,1,2.252.793c2.232,1.239,3.511,3.891,5.883,4.844a21.913,21.913,0,0,0,2.865.7A3.558,3.558,0,0,1,211,338.623c.866,1.739-.746,3.877-.133,5.723.54,1.632,2.125,2.259,3.018,3.731a3.484,3.484,0,0,1,.413,2.139,10.327,10.327,0,0,1-.9,3.611,25.318,25.318,0,0,1-2,3.258C211.378,357.111,200.685,363.273,200.585,363.327Z" transform="translate(-192.67 -319.937)" fill="#2db0de"/>
          <path id="Path_386" data-name="Path 386" d="M200.585,363.327c-.613.36-1.885-.42-2.372-.746a5.857,5.857,0,0,1-1.959-2.245,5.5,5.5,0,0,1-.486-3.331,12.277,12.277,0,0,1,.42-1.759c.16-.573.326-1.139.486-1.712a4.251,4.251,0,0,0,.253-1.726,4.319,4.319,0,0,0-2.132-2.665c-.946-.666-2.132-1.812-2.125-3.218a4.977,4.977,0,0,1,1.239-2.951c.666-.853,1.472-1.606,2.085-2.505a3.458,3.458,0,0,0,.706-2.185,3.751,3.751,0,0,0-.473-1.366,19.247,19.247,0,0,1-1.5-2.738,2.778,2.778,0,0,1,.473-2.918,3.245,3.245,0,0,1,2.425-.6,5.569,5.569,0,0,1,2.252.793c2.232,1.239,3.511,3.891,5.883,4.844a21.913,21.913,0,0,0,2.865.7A3.558,3.558,0,0,1,211,338.623c.866,1.739-.746,3.877-.133,5.723.54,1.632,2.125,2.259,3.018,3.731a3.484,3.484,0,0,1,.413,2.139,10.327,10.327,0,0,1-.9,3.611,25.318,25.318,0,0,1-2,3.258C211.378,357.111,200.685,363.273,200.585,363.327Z" transform="translate(-192.67 -319.937)" opacity="0.15"/>
          <path id="Path_387" data-name="Path 387" d="M209.609,360.848h0a.286.286,0,0,1-.273-.293c.46-11.046-4.744-23.238-8.528-26.783a.273.273,0,0,1,0-.393.28.28,0,0,1,.393,0c3.864,3.618,9.174,15.99,8.708,27.216a.287.287,0,0,1-.3.253Z" transform="translate(-195.358 -320.83)" fill="#fff"/>
          <path id="Path_388" data-name="Path 388" d="M207.37,354.134a.212.212,0,0,1-.087,0,37.5,37.5,0,0,0-7.995-1.292.28.28,0,1,1,0-.553,38.169,38.169,0,0,1,8.155,1.332.293.293,0,0,1,.187.353A.28.28,0,0,1,207.37,354.134Z" transform="translate(-194.771 -327.167)" fill="#fff"/>
        </g>
      </g>
      <g id="freepik--Signals--inject-2" transform="translate(272.477 100.71)">
        <g id="freepik--Signal--inject-2">
          <path id="Path_389" data-name="Path 389" d="M437.023,125.4a1.272,1.272,0,0,0-.733-1.006,4,4,0,0,0-3.571,0,1.279,1.279,0,0,0-.74,1.006h0V251.867c0,.786,1.126,1.426,2.518,1.426s2.525-.666,2.525-1.426h0V125.4Z" transform="translate(-406.01 -123.963)" fill="#37474f"/>
          <ellipse id="Ellipse_8" data-name="Ellipse 8" cx="2.525" cy="1.432" rx="2.525" ry="1.432" transform="translate(25.963)" fill="#455a64"/>
          <path id="Path_390" data-name="Path 390" d="M458.367,184.615l-4.95-8.581L420.492,157.04,418,158.479v11.433l32.925,18.994,2.538-1.4Z" transform="translate(-401.344 -135.001)" fill="#2db0de"/>
          <path id="Path_391" data-name="Path 391" d="M418,159.2l32.925,18.994,4.95,8.574-4.95,2.858L418,170.633Z" transform="translate(-401.344 -135.722)" fill="#2db0de"/>
          <g id="Group_107" data-name="Group 107" transform="translate(16.656 23.478)" opacity="0.3">
            <path id="Path_392" data-name="Path 392" d="M418,159.2l32.925,18.994,4.963,8.6-4.963,2.831L418,170.633Z" transform="translate(-418 -159.2)"/>
          </g>
          <path id="Path_393" data-name="Path 393" d="M453.417,176.034l-2.492,1.439L418,158.479l2.492-1.439Z" transform="translate(-401.344 -135.001)" opacity="0.1"/>
          <path id="Path_394" data-name="Path 394" d="M467.42,186.989l2.492-1.439,4.95,8.581-2.478,1.459Z" transform="translate(-417.839 -144.517)" opacity="0.2"/>
          <path id="Path_395" data-name="Path 395" d="M443.365,145.168,410.44,126.14,405.49,129l4.95,8.581L443.365,156.6Z" transform="translate(-397.169 -124.688)" fill="#2db0de"/>
          <path id="Path_396" data-name="Path 396" d="M412.92,125.412l2.418-1.452,32.979,19.054-2.472,1.426Z" transform="translate(-399.649 -123.96)" fill="#2db0de"/>
          <g id="Group_108" data-name="Group 108" transform="translate(13.271)" opacity="0.4">
            <path id="Path_397" data-name="Path 397" d="M412.92,125.412l2.418-1.452,32.979,19.054-2.472,1.426Z" transform="translate(-412.92 -123.96)" fill="#fff"/>
          </g>
          <path id="Path_398" data-name="Path 398" d="M464.812,163.993l-2.472,1.426V153.986l2.472-1.426Z" transform="translate(-416.143 -133.506)" fill="#2db0de"/>
          <path id="Path_399" data-name="Path 399" d="M464.812,163.993l-2.472,1.426V153.986l2.472-1.426Z" transform="translate(-416.143 -133.506)" opacity="0.1"/>
          <path id="Path_400" data-name="Path 400" d="M430.875,198.208,397.95,179.18,393,182.038l4.95,8.581,32.925,19.021Z" transform="translate(-393 -142.391)" fill="#2db0de"/>
          <path id="Path_401" data-name="Path 401" d="M400.43,178.452,402.855,177l32.972,19.054-2.472,1.426Z" transform="translate(-395.48 -141.663)" fill="#2db0de"/>
          <g id="Group_109" data-name="Group 109" transform="translate(4.95 35.337)" opacity="0.4">
            <path id="Path_402" data-name="Path 402" d="M400.43,178.452,402.855,177l32.972,19.054-2.472,1.426Z" transform="translate(-400.43 -177)" fill="#fff"/>
          </g>
          <path id="Path_403" data-name="Path 403" d="M452.322,217.033l-2.472,1.426V207.026l2.472-1.426Z" transform="translate(-411.975 -151.209)" fill="#2db0de"/>
          <path id="Path_404" data-name="Path 404" d="M452.322,217.033l-2.472,1.426V207.026l2.472-1.426Z" transform="translate(-411.975 -151.209)" opacity="0.1"/>
        </g>
      </g>
      <g id="freepik--question-marks--inject-2" transform="translate(198.795 125.203)">
        <g id="freepik--question-marks--inject-2-2" data-name="freepik--question-marks--inject-2">
          <path id="Path_405" data-name="Path 405" d="M309.134,79.595a12.345,12.345,0,0,1,3.458-.62,9.527,9.527,0,0,1,3.331.446,7.582,7.582,0,0,1,2.765,1.612,7.4,7.4,0,0,1,2.165,5.536,7.928,7.928,0,0,1-.526,2.3,12.589,12.589,0,0,1-1.019,2.059c-.4.666-.779,1.273-1.133,1.859a10.659,10.659,0,0,0-.866,1.752,3.144,3.144,0,0,0-.18,1.7,1.452,1.452,0,0,1-.1.793.84.84,0,0,1-.553.506l-2.745.906a1.046,1.046,0,0,1-.8-.06.846.846,0,0,1-.5-.593,6.662,6.662,0,0,1-.22-2.665,9.188,9.188,0,0,1,.633-2.332,13.473,13.473,0,0,1,1.079-2.065q.626-.959,1.139-1.839a8.66,8.66,0,0,0,.773-1.659,2.4,2.4,0,0,0,0-1.546,2.865,2.865,0,0,0-1.905-1.872,5.17,5.17,0,0,0-3.364.127,5,5,0,0,0-3.5,4.564,2,2,0,0,1-.187.72.933.933,0,0,1-.6.42l-2.918.959a.819.819,0,0,1-.626-.033.786.786,0,0,1-.426-.5,5.856,5.856,0,0,1-.08-2.838,9.481,9.481,0,0,1,1.2-3.045,11.327,11.327,0,0,1,2.352-2.718,9.861,9.861,0,0,1,3.351-1.872Zm8.221,20.047a1.046,1.046,0,0,1,1.292.666l1.053,3.185a.993.993,0,0,1-.06.779,1.013,1.013,0,0,1-.593.52l-3.1,1.026a1.046,1.046,0,0,1-1.3-.666l-1.053-3.178a1.039,1.039,0,0,1,.666-1.3Z" transform="translate(-302.094 -78.966)" fill="#2db0de"/>
          <path id="Path_406" data-name="Path 406" d="M343.752,123.632a8.661,8.661,0,0,1,2.292-.813,6.583,6.583,0,0,1,2.305-.073,5.183,5.183,0,0,1,2.059.793,4.524,4.524,0,0,1,1.546,1.752,4.664,4.664,0,0,1,.56,1.772,5.676,5.676,0,0,1-.093,1.619,8.923,8.923,0,0,1-.466,1.539l-.56,1.392a7.908,7.908,0,0,0-.393,1.292,2.132,2.132,0,0,0,.073,1.179.979.979,0,0,1,0,.553.593.593,0,0,1-.32.406l-1.766.926a.753.753,0,0,1-.553.053.573.573,0,0,1-.406-.353,4.531,4.531,0,0,1-.453-1.792,6.471,6.471,0,0,1,.167-1.659,8.906,8.906,0,0,1,.506-1.526c.207-.486.393-.946.566-1.386a6.115,6.115,0,0,0,.34-1.213,1.739,1.739,0,0,0-.167-1.059,2,2,0,0,0-1.512-1.059,3.578,3.578,0,0,0-2.279.466,3.451,3.451,0,0,0-1.865,3.5,1.333,1.333,0,0,1-.047.513.666.666,0,0,1-.36.353l-1.885.993a.573.573,0,0,1-.433.047.553.553,0,0,1-.346-.293,4.1,4.1,0,0,1-.373-1.925,6.429,6.429,0,0,1,.473-2.205,7.708,7.708,0,0,1,1.292-2.119,6.89,6.89,0,0,1,2.1-1.679Zm7.868,12.725a.712.712,0,0,1,.959.3l1.079,2.045a.717.717,0,0,1-.3.959l-2,1.046a.723.723,0,0,1-.959-.293l-1.073-2.052a.713.713,0,0,1,.293-.953Z" transform="translate(-314.707 -93.555)" fill="#2db0de"/>
          <g id="Group_110" data-name="Group 110" transform="translate(25.176 29.122)" opacity="0.2">
            <path id="Path_407" data-name="Path 407" d="M343.752,123.632a8.661,8.661,0,0,1,2.292-.813,6.583,6.583,0,0,1,2.305-.073,5.183,5.183,0,0,1,2.059.793,4.524,4.524,0,0,1,1.546,1.752,4.664,4.664,0,0,1,.56,1.772,5.676,5.676,0,0,1-.093,1.619,8.923,8.923,0,0,1-.466,1.539l-.56,1.392a7.908,7.908,0,0,0-.393,1.292,2.132,2.132,0,0,0,.073,1.179.979.979,0,0,1,0,.553.593.593,0,0,1-.32.406l-1.766.926a.753.753,0,0,1-.553.053.573.573,0,0,1-.406-.353,4.531,4.531,0,0,1-.453-1.792,6.471,6.471,0,0,1,.167-1.659,8.906,8.906,0,0,1,.506-1.526c.207-.486.393-.946.566-1.386a6.115,6.115,0,0,0,.34-1.213,1.739,1.739,0,0,0-.167-1.059,2,2,0,0,0-1.512-1.059,3.578,3.578,0,0,0-2.279.466,3.451,3.451,0,0,0-1.865,3.5,1.333,1.333,0,0,1-.047.513.666.666,0,0,1-.36.353l-1.885.993a.573.573,0,0,1-.433.047.553.553,0,0,1-.346-.293,4.1,4.1,0,0,1-.373-1.925,6.429,6.429,0,0,1,.473-2.205,7.708,7.708,0,0,1,1.292-2.119,6.89,6.89,0,0,1,2.1-1.679Zm7.868,12.725a.712.712,0,0,1,.959.3l1.079,2.045a.717.717,0,0,1-.3.959l-2,1.046a.723.723,0,0,1-.959-.293l-1.073-2.052a.713.713,0,0,1,.293-.953Z" transform="translate(-339.882 -122.677)"/>
          </g>
          <path id="Path_408" data-name="Path 408" d="M365.2,101.467a.806.806,0,0,1,.493.406.826.826,0,0,1,.067.666l-.8,2.618a.859.859,0,0,1-1.053.56l-2.558-.78a.82.82,0,0,1-.493-.413.8.8,0,0,1-.067-.666l.8-2.618a.87.87,0,0,1,1.079-.56Zm4-17.275a10.127,10.127,0,0,1,2.605,1.219,7.7,7.7,0,0,1,2,1.865,6.223,6.223,0,0,1,1.079,2.378,5.483,5.483,0,0,1-.16,2.765,5.556,5.556,0,0,1-1.006,1.952,6.717,6.717,0,0,1-1.432,1.292,11.08,11.08,0,0,1-1.659.893l-1.652.72a8.213,8.213,0,0,0-1.4.76,2.5,2.5,0,0,0-.926,1.053,1.179,1.179,0,0,1-.44.48.666.666,0,0,1-.606.08l-2.265-.666a.859.859,0,0,1-.506-.413.706.706,0,0,1-.053-.666,5.5,5.5,0,0,1,1.113-1.885,7.522,7.522,0,0,1,1.526-1.259,10.2,10.2,0,0,1,1.7-.866c.58-.233,1.119-.466,1.626-.666a7.4,7.4,0,0,0,1.3-.74,2,2,0,0,0,.739-1.033,2.352,2.352,0,0,0-.386-2.145A4.217,4.217,0,0,0,368.09,87.8a4.1,4.1,0,0,0-4.5,1.392,1.805,1.805,0,0,1-.46.4.82.82,0,0,1-.606,0l-2.412-.733a.746.746,0,0,1-.406-.32.666.666,0,0,1-.047-.54,4.8,4.8,0,0,1,1.293-1.932,7.621,7.621,0,0,1,2.239-1.466,9.187,9.187,0,0,1,2.851-.706A8.168,8.168,0,0,1,369.2,84.192Z" transform="translate(-321.296 -80.598)" fill="#2db0de"/>
          <g id="Group_111" data-name="Group 111" transform="translate(38.329 3.257)" opacity="0.6">
            <path id="Path_409" data-name="Path 409" d="M365.2,101.467a.806.806,0,0,1,.493.406.826.826,0,0,1,.067.666l-.8,2.618a.859.859,0,0,1-1.053.56l-2.558-.78a.82.82,0,0,1-.493-.413.8.8,0,0,1-.067-.666l.8-2.618a.87.87,0,0,1,1.079-.56Zm4-17.275a10.127,10.127,0,0,1,2.605,1.219,7.7,7.7,0,0,1,2,1.865,6.223,6.223,0,0,1,1.079,2.378,5.483,5.483,0,0,1-.16,2.765,5.556,5.556,0,0,1-1.006,1.952,6.717,6.717,0,0,1-1.432,1.292,11.08,11.08,0,0,1-1.659.893l-1.652.72a8.213,8.213,0,0,0-1.4.76,2.5,2.5,0,0,0-.926,1.053,1.179,1.179,0,0,1-.44.48.666.666,0,0,1-.606.08l-2.265-.666a.859.859,0,0,1-.506-.413.706.706,0,0,1-.053-.666,5.5,5.5,0,0,1,1.113-1.885,7.522,7.522,0,0,1,1.526-1.259,10.2,10.2,0,0,1,1.7-.866c.58-.233,1.119-.466,1.626-.666a7.4,7.4,0,0,0,1.3-.74,2,2,0,0,0,.739-1.033,2.352,2.352,0,0,0-.386-2.145A4.217,4.217,0,0,0,368.09,87.8a4.1,4.1,0,0,0-4.5,1.392,1.805,1.805,0,0,1-.46.4.82.82,0,0,1-.606,0l-2.412-.733a.746.746,0,0,1-.406-.32.666.666,0,0,1-.047-.54,4.8,4.8,0,0,1,1.293-1.932,7.621,7.621,0,0,1,2.239-1.466,9.187,9.187,0,0,1,2.851-.706A8.168,8.168,0,0,1,369.2,84.192Z" transform="translate(-359.625 -83.855)" fill="#fff"/>
          </g>
        </g>
      </g>
      <g id="freepik--Character--inject-2" transform="translate(204.329 174.387)">
        <g id="freepik--character--inject-2-2" data-name="freepik--character--inject-2">
          <path id="Path_410" data-name="Path 410" d="M301.645,348.64a4.449,4.449,0,0,1-.183,2.113,4.876,4.876,0,0,1-1.858,2.026,8.547,8.547,0,0,0-1.542,1.693,7.272,7.272,0,0,1-1.612,1.823,3.356,3.356,0,0,1-2.539.125c-.661-.267-.881-.517-.831-1.521s3.3-1.286,3.3-1.286Z" transform="translate(-285.855 -266.102)" fill="#455a64"/>
          <path id="Path_411" data-name="Path 411" d="M293.557,350.032c-.278.094-.357.588-.416,1.568-.05.745-.416,1.827.673,2.316a2.778,2.778,0,0,0,2.884-.521c.756-.858,1.272-1.619,2.348-2.669.935-.909,1.895-1.2,2.34-3.046.287-1.176.091-1.685-.748-2.042-1.159-.49-3.025,1.007-3.948,1.231C295.9,347.061,293.856,349.934,293.557,350.032Z" transform="translate(-285.836 -264.217)" fill="#2db0de"/>
          <path id="Path_412" data-name="Path 412" d="M293.557,350.032c-.278.094-.357.588-.416,1.568-.05.745-.416,1.827.673,2.316a2.778,2.778,0,0,0,2.884-.521c.756-.858,1.272-1.619,2.348-2.669.935-.909,1.895-1.2,2.34-3.046.287-1.176.091-1.685-.748-2.042-1.159-.49-3.025,1.007-3.948,1.231C295.9,347.061,293.856,349.934,293.557,350.032Z" transform="translate(-285.836 -264.217)" opacity="0.2"/>
          <path id="Path_413" data-name="Path 413" d="M301.167,348.847l.158-.047a3.017,3.017,0,0,1,2.493,1.611c.15.329-.337.572-.615.314a3.228,3.228,0,0,0-2.493-1.6,1.368,1.368,0,0,1,.457-.274Z" transform="translate(-290.318 -266.199)" fill="#fafafa"/>
          <path id="Path_414" data-name="Path 414" d="M299.468,350.32a2.988,2.988,0,0,1,2.315,1.6c.15.325-.337.568-.615.314a3.058,3.058,0,0,0-2.078-1.525C299.206,350.587,299.335,350.434,299.468,350.32Z" transform="translate(-289.371 -267.123)" fill="#fafafa"/>
          <path id="Path_415" data-name="Path 415" d="M328.7,385.971c.162.839-.17,1.266-1.321,1.866a6.688,6.688,0,0,1-4.82.227c-1.87-.557-2.755-1.344-3.532-1.544s-2.714-.251-3.482-.478-.748-.6-.727-1.482Z" transform="translate(-298.56 -287.942)" fill="#455a64"/>
          <path id="Path_416" data-name="Path 416" d="M315.632,373.82a19.229,19.229,0,0,0-.607,1.96,5.144,5.144,0,0,0-.166,2.5c.249.537,1.309.929,2.951.949a9.811,9.811,0,0,1,3.819,1.341,6.337,6.337,0,0,0,3.665.553c1.463-.137,2.992-.905,3.237-1.47s.32-.992-3.088-2.438c-.033,0-3.96-1.462-5.585-3.226Z" transform="translate(-298.525 -281.412)" fill="#2db0de"/>
          <g id="Group_112" data-name="Group 112" transform="translate(16.228 92.408)" opacity="0.2">
            <path id="Path_417" data-name="Path 417" d="M315.632,373.82a19.229,19.229,0,0,0-.607,1.96,5.144,5.144,0,0,0-.166,2.5c.249.537,1.309.929,2.951.949a9.811,9.811,0,0,1,3.819,1.341,6.337,6.337,0,0,0,3.665.553c1.463-.137,2.992-.905,3.237-1.47s.32-.992-3.088-2.438c-.033,0-3.96-1.462-5.585-3.226Z" transform="translate(-314.752 -373.82)"/>
          </g>
          <path id="Path_418" data-name="Path 418" d="M332.42,385.862s.353-2.779,2.768-3.528c2.186-.678,4.043.87,3.807,2.183C338.832,385.4,336.152,387.363,332.42,385.862Z" transform="translate(-308.85 -286.489)" fill="#fafafa"/>
          <path id="Path_419" data-name="Path 419" d="M333.4,380.6a2.886,2.886,0,0,0-1.662.655c-.7.533-.731.9-.731.9a.377.377,0,0,1-.426.071.336.336,0,0,1-.193-.365s.191-1.4,2.157-1.65A.822.822,0,0,1,333.4,380.6Z" transform="translate(-307.662 -285.291)" fill="#fafafa"/>
          <path id="Path_420" data-name="Path 420" d="M330.158,378.96a2.531,2.531,0,0,0-1.662.588c-.7.537-.715.968-.715.968a.377.377,0,0,1-.426.071.336.336,0,0,1-.193-.365s.187-1.4,2.153-1.65A.813.813,0,0,1,330.158,378.96Z" transform="translate(-305.774 -284.294)" fill="#fafafa"/>
          <path id="Path_421" data-name="Path 421" d="M326.786,376.95a2.552,2.552,0,0,0-1.7.478c-.74.49-.785.917-.785.917a.383.383,0,0,1-.427.038.338.338,0,0,1-.171-.371,2.229,2.229,0,0,1,2.273-1.509A.806.806,0,0,1,326.786,376.95Z" transform="translate(-303.748 -283.041)" fill="#fafafa"/>
          <path id="Path_422" data-name="Path 422" d="M294.3,352.93l-.042,1.889a3.3,3.3,0,0,0,3.233.141c.058-.114.262-1.96.262-1.96Z" transform="translate(-286.548 -268.71)" fill="#ffa8a7"/>
          <path id="Path_423" data-name="Path 423" d="M316.892,370.49s0,.894-.033,1.407.611,1.286,2.273,1.262c1.164,0,1.986-.3,1.957-1.2l.029-1.305Z" transform="translate(-299.755 -279.387)" fill="#ffa8a7"/>
          <path id="Path_424" data-name="Path 424" d="M289.933,263.106a15.037,15.037,0,0,1,1.1-5.711s-.22-4.927-.794-10.975c-.873-9.191-.1-10.552,1.9-14.64,0,0,16.153-1.662,16.514,4.762.453,8,.183,24.247-.1,27.045s-.224.212-1.072,5.911c-.673,4.5-2.119,16.678-2.119,16.678a4.726,4.726,0,0,1-4.226-.161s-1.022-14.949-.81-18.2a34.433,34.433,0,0,1,.515-4.978s-1.662-12.907-1.891-14.985c0,0-.345,3.7-.632,6.522s-.316,5.1-1.068,10.912c-.59,4.57-2,14.428-2,14.428a4.23,4.23,0,0,1-3.561-.314S289.771,266.308,289.933,263.106Z" transform="translate(-283.991 -194.929)" fill="#455a64"/>
          <path id="Path_425" data-name="Path 425" d="M307,348.763s-.042-2.207-3.2-2.575l-.183.094a2.728,2.728,0,0,1,1.579-1.1,2.219,2.219,0,0,1,2.414.706C308.15,346.568,307.555,348.344,307,348.763Z" transform="translate(-292.018 -263.943)" fill="#fafafa"/>
          <path id="Path_426" data-name="Path 426" d="M304.374,265.38l-.208-2.638a23.234,23.234,0,0,1-4.987-2.352,6.672,6.672,0,0,0,4.023,2.877l.5,2.591.042,6.056Z" transform="translate(-289.423 -212.442)" fill="#37474f"/>
          <path id="Path_427" data-name="Path 427" d="M284.852,141.06c-.885,1.043-7.43,10.975-8.386,12.845s-1.188,3.069.324,4.574c2.273,2.262,8,7.718,8,7.718l3.208-7.22-5.951-3.528,5.818-11.614Z" transform="translate(-275.702 -139.885)" fill="#ffa8a7"/>
          <path id="Path_428" data-name="Path 428" d="M286.8,176.662a3.931,3.931,0,0,0-2.988.29,3.142,3.142,0,0,1,3.291-.89Z" transform="translate(-280.441 -161.094)" fill="#f28f8f"/>
          <path id="Path_429" data-name="Path 429" d="M292.08,181.451l-5.265-2.477c-1.941-.263-4.467,2.6-4.4,4.794l4.617,3.841Z" transform="translate(-279.626 -162.928)" fill="#455a64"/>
          <path id="Path_430" data-name="Path 430" d="M306.213,175.93l-.332,3.453h0c-.831.243-.677,1.337-.191,2.011l-.1,1.015,5.4.459.81-5.828Z" transform="translate(-292.995 -161.087)" fill="#ffa8a7"/>
          <path id="Path_431" data-name="Path 431" d="M291.432,187.086a5.081,5.081,0,0,1,4.392-2.607l1.2.1c-.332.627.15,1.074,1.022,1.313a6.8,6.8,0,0,0,4.4-.2l.037-.294s2.3.619,2.975.858c1.9.674,2.531,1.023,4.5,5.848.831,2.066.105.2-1.945,5.374-.17,1.278-.362,3.289-.362,3.289a69.49,69.49,0,0,1,1.376,8.3s-1.2,2.56-9.487,2.128c-6.42-.333-9.408-3.4-9.408-3.4.158-1.486,1.155-3.857,3.2-8.333C290.913,193.025,290.543,189.383,291.432,187.086Z" transform="translate(-284.14 -166.282)" fill="#37474f"/>
          <path id="Path_450" data-name="Path 450" d="M298.627,184.48s-2.684,1.121-3.225,2.744l-2.522-.3a5.845,5.845,0,0,1,3.2-2.446,4.906,4.906,0,0,1,2.543,0Z" transform="translate(-285.741 -166.184)" fill="#2db0de"/>
          <path id="Path_451" data-name="Path 451" d="M298.627,184.48s-2.684,1.121-3.225,2.744l-2.522-.3a5.845,5.845,0,0,1,3.2-2.446,4.906,4.906,0,0,1,2.543,0Z" transform="translate(-285.741 -166.184)" opacity="0.2"/>
          <path id="Path_452" data-name="Path 452" d="M317.052,191.144s1.047-3,2.6-3.39a6.169,6.169,0,0,0-2.813-.8,7.158,7.158,0,0,0-2.41,2.783Z" transform="translate(-298.336 -167.788)" fill="#2db0de"/>
          <path id="Path_453" data-name="Path 453" d="M317.052,191.144s1.047-3,2.6-3.39a6.169,6.169,0,0,0-2.813-.8,7.158,7.158,0,0,0-2.41,2.783Z" transform="translate(-298.336 -167.788)" opacity="0.2"/>
          <path id="Path_454" data-name="Path 454" d="M287.089,189c-1.5-.02-4.442,1.768-4.966,2.869s-2.589,15.639-1.3,17.1c1.608,1.827,9,5.966,12.467,5.848a9.33,9.33,0,0,0,6.084-2.853c.706-1.176-.249-17.246-1.159-18.614C296.721,191.167,289,189.031,287.089,189Z" transform="translate(-278.45 -169.034)" fill="#2db0de"/>
          <path id="Path_456" data-name="Path 456" d="M298.829,212.53a9.908,9.908,0,0,1-5.577,2.309c-3.453.114-10.846-4.025-12.467-5.852-1.28-1.454.756-15.941,1.3-17.1s3.47-2.885,4.966-2.869a29.23,29.23,0,0,1,9.491,3.006l-1.479.941c-1.488.811-2.3,2.948-2.269,8.067s-.083,12.045.785,12.774,2.618.231,2.722.2A9.244,9.244,0,0,0,298.829,212.53Z" transform="translate(-278.43 -169.046)" opacity="0.1"/>
          <path id="Path_459" data-name="Path 459" d="M301.345,213.541l1.5.486a.267.267,0,0,0,.239-.02.236.236,0,0,0,.114-.2l.058-.678a.392.392,0,0,0-.249-.361l-1.5-.51a.262.262,0,0,0-.235.018.232.232,0,0,0-.115.194l-.054.713A.391.391,0,0,0,301.345,213.541Z" transform="translate(-290.546 -183.165)" fill="#37474f"/>
          <path id="Path_462" data-name="Path 462" d="M286.547,205.811l1.463.561a.267.267,0,0,0,.24-.007.238.238,0,0,0,.126-.193l.1-.678a.389.389,0,0,0-.224-.368l-1.471-.584a.263.263,0,0,0-.237.006.234.234,0,0,0-.125.19l-.1.709a.362.362,0,0,0,.229.365Z" transform="translate(-281.905 -178.468)" fill="#37474f"/>
          <path id="Path_464" data-name="Path 464" d="M283.178,226.447c0,1.689-.05,2.387.029,3.2a1.946,1.946,0,0,0,1.035,1.634c.869.58,4.613,2.438,5.718,2.936,1.355.6,2.83,1.007,2.809,0v-3.34c0-.784-.416-1.282-2.078-2.015-1.592-.694-5.136-2.575-6.117-2.995C283.743,225.526,283.182,225.942,283.178,226.447Z" transform="translate(-280.062 -191.375)" fill="#2db0de"/>
          <path id="Path_465" data-name="Path 465" d="M308.792,147.874s2.83-3.441.727-5.307c-2.493-2.207-5.8-2.16-10.115-.741a7.335,7.335,0,0,0-5.219,6.338c-.2,2.889,8.336,5.017,8.141,6.993Z" transform="translate(-286.502 -139.742)" fill="#263238"/>
          <path id="Path_466" data-name="Path 466" d="M331.09,162.64s1.155,1.748.993,1.928a3.012,3.012,0,0,1-.935.353Z" transform="translate(-308.073 -153.007)" fill="#f28f8f"/>
          <path id="Path_467" data-name="Path 467" d="M311.061,147.68c1.155.6,3.154,1.713,3.557,5.8.416,4.2-.611,5.629-1.247,6.162a6.066,6.066,0,0,1-3.615.09c-1.367-.439-4.305-1.9-5.639-4.1-1.571-2.583-1.812-5.981.121-7.259A7.5,7.5,0,0,1,311.061,147.68Z" transform="translate(-291.576 -143.596)" fill="#ffa8a7"/>
          <path id="Path_468" data-name="Path 468" d="M320.82,178.241a6.99,6.99,0,0,0,2.826-.1,5.427,5.427,0,0,1-2.784-.753Z" transform="translate(-302.071 -161.975)" fill="#f28f8f"/>
          <path id="Path_469" data-name="Path 469" d="M322.076,150.005a4.218,4.218,0,0,0,2.826-3.355c.436-2.661-3.092-3.79-3.092-3.79Z" transform="translate(-302.649 -140.98)" fill="#263238"/>
          <path id="Path_470" data-name="Path 470" d="M304.749,154.418c-.233.349-1.143.678-2.1-.263s-.927-2.65.453-3.046,2.04,1.113,2.04,1.113c1.3-2.379.382-6.224.382-6.224a8.314,8.314,0,0,0-7.9-1.525,6.439,6.439,0,0,0-4.259,5.256c-.291,1.925-1.076,5.362-.058,6.608s4.949,3.175,8.482,3.014,3.541-.819,3.541-.819l-.54-4.206A.35.35,0,0,1,304.749,154.418Z" transform="translate(-285.696 -141.731)" fill="#263238"/>
          <path id="Path_471" data-name="Path 471" d="M296.809,139.237c1.371-1.568,3.545-1.2,5.236-.941s4.156.486,3.74,1.568-1.662,2.05-4.571,1.783-3.445,0-4.1.725C297.1,142.35,295.2,141.628,296.809,139.237Z" transform="translate(-287.659 -138.062)" fill="#ffa8a7"/>
          <path id="Path_448" data-name="Path 448" d="M18.6,1.011A2.693,2.693,0,0,0,17.907.2l.332,1.1a2.924,2.924,0,0,1-.771,2.467c-.349.407-1.008.869-1.067.719-.079-.213.014-1.241-.2-2.181-.254-1.123-.844-.593-.986.244-.078.458-.506,1.62-.616,2.508a15.8,15.8,0,0,1-.2,2.8,51.664,51.664,0,0,1-3.922,5.634C9,11.343,7.015,8.541,5.278,6.133c-2.423-3.386-2.921-4.1-4.813-4.2-1.41,4.747,1.251,9.611,1.251,9.611s3.64,4.831,5.9,7.378c2.177,2.458,2.923,2.267,3.93,1.324s3.569-5.215,4.65-7.588,2.25-4.162,2.9-5.419A6.069,6.069,0,0,0,18.6,1.011Z" transform="translate(18.351 24.699) rotate(-79)" fill="#ffa8a7"/>
          <path id="Path_449" data-name="Path 449" d="M4.761.1A3.906,3.906,0,0,1,7.727.88,17.54,17.54,0,0,1,9.811,3.407c1.7,2.477,4.871,7.08,4.871,7.08a7.506,7.506,0,0,1-4.747,4.039s-3.1-3.562-4.264-5.32C5.14,8.406,4.3,7.5,3.325,6.275,1.586,5.246.363,4.68.079,3.539A1.883,1.883,0,0,1,1.39,1.415C2.054,1.107,3.175.648,4.761.1Z" transform="translate(19.048 29.813) rotate(-79)" fill="#455a64"/>
          <path id="Path_457" data-name="Path 457" d="M287.623,189a7.293,7.293,0,0,0-4.966,2.485c-.835,1.223-1.434,4.778-.831,5.825s4.692,3.136,7.48,4.194c2.223.858,3.387.635,4.156.106.5-.337.586-1.341.623-2.085.1-1.913-.066-2.936,1.155-4.061s3.4-2.07,3.773-1.223c0,0,.495-1.274-2.036-2.5C292.809,189.706,289.651,189,287.623,189Z" transform="translate(-279.138 -169.034)" fill="#2db0de"/>
          <path id="Path_458" data-name="Path 458" d="M301.5,214.72l1.471.525s-.2,4.221-.187,5.879c0,0-.345.709-.665.827s-.74-.678-.806-1.278S301.344,216.151,301.5,214.72Z" transform="translate(-290.656 -184.673)" fill="#455a64"/>
          <path id="Path_460" data-name="Path 460" d="M302.466,228.068a.675.675,0,0,1,.416.588.268.268,0,0,1-.116.261.306.306,0,0,1-.3.025.667.667,0,0,1-.416-.588A.288.288,0,0,1,302.466,228.068Z" transform="translate(-291.101 -192.773)" fill="#e0e0e0"/>
          <path id="Path_461" data-name="Path 461" d="M286.271,207l1.438.6s-.416,4.206-.507,5.856c0,0-.382.694-.706.784s-.7-.713-.74-1.313S286.043,208.419,286.271,207Z" transform="translate(-281.576 -179.979)" fill="#455a64"/>
          <path id="Path_463" data-name="Path 463" d="M287,220.376a.677.677,0,0,1,.378.608.269.269,0,0,1-.127.246.306.306,0,0,1-.289.021.653.653,0,0,1-.374-.608A.272.272,0,0,1,287,220.376Z" transform="translate(-282.065 -188.092)" fill="#e0e0e0"/>
          <path id="Path_455" data-name="Path 455" d="M314.052,196.69l-1.479.941c-1.492.811-2.3,2.948-2.273,8.063s-.079,12.045.79,12.778,2.618.231,2.722.2a7.316,7.316,0,0,0,3.017-2.03c.706-1.176-.249-17.246-1.159-18.614A5.027,5.027,0,0,0,314.052,196.69Z" transform="translate(-295.922 -173.71)" opacity="0.2"/>
        </g>
      </g>
    </g>
  </g>
</svg>
