<svg xmlns="http://www.w3.org/2000/svg" xmlns:xlink="http://www.w3.org/1999/xlink" width="370.791" height="270" viewBox="0 0 370.791 270">
  <defs>
    <clipPath id="clip-path">
      <rect width="370.791" height="270" fill="none"/>
    </clipPath>
  </defs>
  <g id="searcher_man" clip-path="url(#clip-path)">
    <g id="searcher_man-2" data-name="searcher_man" transform="translate(-32 5.274)">
      <g id="freepik--background-complete--inject-2" transform="translate(33.689 -1.716)">
        <path id="Path_217" data-name="Path 217" d="M143.877,443.276c-.367-7.324-.831-13.856-5.178-19.761s-14.023-8.446-19.017-3.09a22.141,22.141,0,0,0-38.056-17.307c-2.157-8.257-11.148-7.313-19.664-7.831S43.97,406.45,40.879,421.12c0,0-5.178,21.746-4.563,21.951S143.877,443.276,143.877,443.276Z" transform="translate(-35.654 -177.088)" fill="#f5f5f5"/>
        <path id="Path_218" data-name="Path 218" d="M431.264,417.956c-4.272-5.286-12.529-7.923-18.052-3.97a19.486,19.486,0,0,0-27.366-15.759c.825-10.183-6.979-20.344-17.032-22.172s-20.937,4.924-23.731,14.74c-14.33-1.834-29.124,8.958-31.772,23.165a21.374,21.374,0,0,0-19.416,2.082c-5.625,3.775-9.827,11.617-9.924,18.381l153.189-.135C436.42,427.54,435.541,423.247,431.264,417.956Z" transform="translate(-149.762 -168.098)" fill="#ebebeb"/>
        <path id="Path_219" data-name="Path 219" d="M422.438,14.769c-1.463,10.443-4.4,45.957-4.4,45.957a4.57,4.57,0,0,1-3.177,4c-2.977.82-6.122-12.027-6.122-12.027s-4.118-3.012-3.09,1.359,7.2,16.126,7.2,16.126l3.808,12.777,2.066,31.363-4.994,153.852,16.666.049s-1.758-146.463-1.365-152.811,10.118-17.694,13.354-24.988-.41-4.185-.41-4.185L428.462,104.4s4.107-66.957,7.1-89.627S423.9,4.327,422.438,14.769Z" transform="translate(-205.819 -1.957)" fill="#e0e0e0"/>
        <path id="Path_220" data-name="Path 220" d="M40.781,14.25C43.334,29.824,50.2,68.788,53.008,76.129s5.647,15.819,5.647,15.819,15.462-27.53,20.2-36.362,8.63-8.571,3.344,1.807S61.481,98.161,61.481,98.161s11.326,13.554,11.865,25.419,0,31.632,0,31.632L83.4,268H67.128V155.778s3.392-28.812,1.694-33.892-11.294-21.466-11.294-21.466-10.3-12.993-11.639-25.985S38.654,29.292,36.374,14.25,38.227-1.324,40.781,14.25Z" transform="translate(-35.712 -1.703)" fill="#e0e0e0"/>
        <path id="Path_221" data-name="Path 221" d="M248.671,14.846c-6.658,10.967-12.815,28.466-14.74,43.875l-8.144-21.455c-2.875,2.157,5.739,30.613,5.739,30.613s-6.472,31.821-6.364,48.206-.043,81.473-.043,81.473L209.59,268.33l17.593.059s7.632-60.686,7.152-66.954-.431-86.774-.431-86.774,3.371-38.088,6.256-49.172,13.9-37.705,20.4-50.639S255.329,3.878,248.671,14.846Z" transform="translate(-115.498 -1.947)" fill="#ebebeb"/>
        <path id="Path_222" data-name="Path 222" d="M661.139,14.466C656.6,25.993,650.131,42.4,649.025,57.823L639.76,36.967c-2.756,2.308,7.351,30.1,7.351,30.1s-4.779,31.945-3.813,48.217,4.266,80.9,4.266,80.9l-11.774,71.08,17.572-.874s4.417-60.681,3.608-66.878-5.021-86.16-5.021-86.16,1.359-38.007,3.651-49.172S667.485,27.3,672.443,14.449,665.676,2.938,661.139,14.466Z" transform="translate(-311.831 -1.767)" fill="#ebebeb"/>
        <path id="Path_223" data-name="Path 223" d="M126.436,135.87a15.112,15.112,0,0,0-11.526,13.839A13.733,13.733,0,0,0,126.6,136.345" transform="translate(-71.883 -57.593)" fill="#f5f5f5"/>
        <path id="Path_224" data-name="Path 224" d="M561.63,40.77A9.843,9.843,0,0,0,571,47.781a8.931,8.931,0,0,0-9.072-7.146" transform="translate(-277.669 -13.719)" fill="#e0e0e0"/>
        <path id="Path_225" data-name="Path 225" d="M587.2,102.537a10.706,10.706,0,0,0,12.728.2,9.705,9.705,0,0,0-12.54-.507" transform="translate(-289.448 -41.152)" fill="#f5f5f5"/>
        <path id="Path_226" data-name="Path 226" d="M221.176,185.46a8.451,8.451,0,0,0,5.178,8.629,7.664,7.664,0,0,0-4.9-8.629" transform="translate(-120.816 -80.437)" fill="#e0e0e0"/>
        <path id="Path_227" data-name="Path 227" d="M151.736,176.16a8.457,8.457,0,0,0,5.178,8.629,7.664,7.664,0,0,0-4.9-8.629" transform="translate(-88.828 -76.153)" fill="#e0e0e0"/>
        <path id="Path_228" data-name="Path 228" d="M395.237,47.27a8.452,8.452,0,0,0,1.548,9.929,7.664,7.664,0,0,0-1.289-9.821" transform="translate(-200.575 -16.778)" fill="#e0e0e0"/>
        <path id="Path_229" data-name="Path 229" d="M347.5,74.485A22.739,22.739,0,0,1,329.635,37.67a22.744,22.744,0,1,0,33.4,30.683A22.652,22.652,0,0,1,347.5,74.485Z" transform="translate(-167.472 -12.356)" fill="#e0e0e0"/>
        <path id="Path_230" data-name="Path 230" d="M218.64,66.9l1.871.707-1.828.712a1.963,1.963,0,0,0-1.138,1.16l-.6,1.7-.572-1.7a1.958,1.958,0,0,0-1.17-1.2L213.36,67.6l1.812-.663a1.936,1.936,0,0,0,1.165-1.187l.6-1.753.539,1.672A1.936,1.936,0,0,0,218.64,66.9Z" transform="translate(-117.235 -24.485)" fill="#e0e0e0"/>
        <path id="Path_231" data-name="Path 231" d="M492.151,105.365l1.866.707-1.823.69a1.941,1.941,0,0,0-1.143,1.16l-.615,1.726-.572-1.7a1.957,1.957,0,0,0-1.17-1.2l-1.834-.669,1.812-.663a1.963,1.963,0,0,0,1.165-1.187l.6-1.731.539,1.672a1.931,1.931,0,0,0,1.176,1.2Z" transform="translate(-243.225 -42.216)" fill="#e0e0e0"/>
        <path id="Path_232" data-name="Path 232" d="M507.188,71.65l.933.351-.911.345a.982.982,0,0,0-.572.582l-.307.863-.286-.852a.965.965,0,0,0-.583-.6L504.54,72l.906-.329a.987.987,0,0,0,.588-.593l.3-.868.28.836a.96.96,0,0,0,.577.6Z" transform="translate(-251.37 -27.346)" fill="#e0e0e0"/>
        <path id="Path_233" data-name="Path 233" d="M198.838,107.025l.933.356-.911.345a.976.976,0,0,0-.572.577l-.307.863-.286-.852a.965.965,0,0,0-.588-.6l-.917-.334.906-.334a.96.96,0,0,0,.582-.593l.3-.863.275.836A.971.971,0,0,0,198.838,107.025Z" transform="translate(-109.325 -43.644)" fill="#e0e0e0"/>
        <path id="Path_234" data-name="Path 234" d="M360.841,52.035l.933.351-.912.351a.976.976,0,0,0-.572.577l-.307.863-.264-.852a.971.971,0,0,0-.582-.6l-.917-.34.906-.329a.992.992,0,0,0,.582-.593l.3-.863.281.831a.96.96,0,0,0,.555.6Z" transform="translate(-183.966 -18.312)" fill="#e0e0e0"/>
      </g>
      <g id="freepik--Character--inject-2" transform="translate(143.046 77.111)">
        <path id="Path_235" data-name="Path 235" d="M289.534,154.284c1.456-1.305,1.44-3.322.976-5.032,1.5-1.079,2.443-3.446.669-4.757,2.794-1.78,0-5.668-2.837-4.649,1.041-3.026-4.5-3.97-5.706-1.694-1.235-2.481-5.248-.421-5.393,1.9-1.079-.723-3.128-.782-3.376.8-.847-1.24-4.072-.831-3.662,1.025a1.915,1.915,0,0,0-1.17,3.619,2.454,2.454,0,0,0,.394,4.126c-.976.437-.059,1.618.793,1.472.4,2.864-1.014,7.432,2.265,8.894" transform="translate(-251.723 -136.89)" fill="#263238"/>
        <path id="Path_236" data-name="Path 236" d="M275.75,175.031l3.829,5.286,5.393,5.593,3.317-4.352c.049-2.039.151-6.181.2-8.2,7.119-.658,5.1-9.994,5.016-17.324a9.266,9.266,0,0,0-9.347-8.856c-5.156.1-7.955,4.541-7.707,9.708l-.68,16.525" transform="translate(-255.332 -141.63)" fill="#ffbe9d"/>
        <path id="Path_237" data-name="Path 237" d="M293.89,193.932a11.515,11.515,0,0,1-6.38-2.082s1.386,3.619,6.343,3.365Z" transform="translate(-260.75 -162.208)" fill="#eb996e"/>
        <path id="Path_238" data-name="Path 238" d="M304.713,170.421c0,.868-1.424.911-1.413,0A.707.707,0,0,1,304.713,170.421Z" transform="translate(-268.024 -152.024)" fill="#263238"/>
        <path id="Path_239" data-name="Path 239" d="M304.263,166.866a3.932,3.932,0,0,0-2.783-.119C301.761,165.815,304.1,165.89,304.263,166.866Z" transform="translate(-267.185 -150.341)" fill="#263238"/>
        <path id="Path_240" data-name="Path 240" d="M291.453,169.515c0,.868-1.424.911-1.413,0A.707.707,0,0,1,291.453,169.515Z" transform="translate(-261.915 -151.608)" fill="#263238"/>
        <path id="Path_241" data-name="Path 241" d="M290.228,166.053a3.942,3.942,0,0,0-2.778.183C287.612,165.282,289.958,165.1,290.228,166.053Z" transform="translate(-260.722 -150.034)" fill="#263238"/>
        <path id="Path_242" data-name="Path 242" d="M297.221,172.968c-.194-.113,1.408,0,1.661-.351-.237-1.332-2.017-5.992-1.764-6a25.642,25.642,0,0,1,1.451,3.819c.178.809.68,1.451.566,2.271C298.926,173.264,297.13,172.957,297.221,172.968Z" transform="translate(-265.165 -150.585)" fill="#263238"/>
        <path id="Path_243" data-name="Path 243" d="M290.223,161.051a18.272,18.272,0,0,1-3.473.248C287.03,160.279,289.8,160.08,290.223,161.051Z" transform="translate(-260.4 -147.729)" fill="#263238"/>
        <path id="Path_244" data-name="Path 244" d="M304.407,160.569a11.059,11.059,0,0,1-2.567-.178C301.926,159.409,304.44,159.582,304.407,160.569Z" transform="translate(-267.351 -147.414)" fill="#263238"/>
        <path id="Path_245" data-name="Path 245" d="M290.994,144.816l-.345-.162c1.2-3.236-3.7-4.471-5.016-1.618a2.7,2.7,0,0,0-3.09-1.359c-1.262.221-1.861,1.731-2.956,2.157-3.711-4.04-10.14,3.085-6.283,5.652a2.907,2.907,0,0,0,1.192,4.428c1.338,4.2,7.3.663,4.25-2.524a2.837,2.837,0,0,0,3.97-2.233c1.036,1.553,5.679,1.694,4.433-.9A2.8,2.8,0,0,0,290.994,144.816Z" transform="translate(-253.657 -138.986)" fill="#263238"/>
        <path id="Path_246" data-name="Path 246" d="M278.491,165.082c.108,1.348.1,6.186-2.157,4.2-.809-1.861-.421-4.072-.48-6.068" transform="translate(-255.361 -149.014)" fill="#263238"/>
        <path id="Path_247" data-name="Path 247" d="M274.613,171.8c-4.816-1.667-4.185,6.3,0,4.854C274.624,176.566,274.613,171.8,274.613,171.8Z" transform="translate(-253.252 -152.867)" fill="#ffbe9d"/>
        <path id="Path_248" data-name="Path 248" d="M274.329,176.317c-1.462.987-1.731-3.177-.3-2.357.146.48.167-.448-.367-.329C272.1,173.906,273.019,177.6,274.329,176.317Z" transform="translate(-253.993 -153.81)" fill="#eb996e"/>
        <path id="Path_249" data-name="Path 249" d="M263.183,454.63l.237,10.188s-10.28,3.662-10.42,5.55l19.772.254.286-15.889Z" transform="translate(-244.852 -283.26)" fill="#2db0de"/>
        <g id="Group_89" data-name="Group 89" transform="translate(23.721 180.751)" opacity="0.6">
          <path id="Path_250" data-name="Path 250" d="M282.843,472.054a.809.809,0,0,1,.539.928.777.777,0,0,1-.917.539.847.847,0,0,1-.572-.987.8.8,0,0,1,1.014-.464" transform="translate(-281.874 -472.023)" fill="#fff"/>
        </g>
        <g id="Group_90" data-name="Group 90" transform="translate(8.141 185.743)" opacity="0.6">
          <path id="Path_251" data-name="Path 251" d="M272.767,482.9l-.032-1.618-18.947.356s-.885.372-.793.992Z" transform="translate(-252.988 -481.28)" fill="#fff"/>
        </g>
        <path id="Path_252" data-name="Path 252" d="M271.729,473.258c0,.1.48.146.955.464s.717.723.8.685-.043-.593-.62-.965S271.708,473.167,271.729,473.258Z" transform="translate(-253.48 -291.803)" fill="#263238"/>
        <path id="Path_253" data-name="Path 253" d="M267.86,474.83c0,.092.394.264.717.674s.41.847.507.847.162-.539-.248-1.079S267.865,474.738,267.86,474.83Z" transform="translate(-251.698 -292.544)" fill="#263238"/>
        <path id="Path_254" data-name="Path 254" d="M265,478.012c.086,0,.227-.458,0-.987s-.69-.75-.728-.669.232.367.421.8S264.9,478,265,478.012Z" transform="translate(-250.041 -293.261)" fill="#263238"/>
        <path id="Path_255" data-name="Path 255" d="M272.1,468.711c.043.092.485-.038,1.03,0s.971.221,1.019.14-.351-.431-.992-.475S272.042,468.641,272.1,468.711Z" transform="translate(-253.647 -289.591)" fill="#263238"/>
        <g id="Group_91" data-name="Group 91" transform="translate(18.379 173.144)" opacity="0.3">
          <path id="Path_256" data-name="Path 256" d="M271.97,458.163l.043,1.818,9.714.038.043-2.1Z" transform="translate(-271.97 -457.92)"/>
        </g>
        <path id="Path_257" data-name="Path 257" d="M272.09,463.864a1.877,1.877,0,0,0,.987,0,4.387,4.387,0,0,0,1.041-.3,4.138,4.138,0,0,0,.572-.3,1.159,1.159,0,0,0,.3-.227.426.426,0,0,0,.054-.512.54.54,0,0,0-.421-.226,1.283,1.283,0,0,0-.372.043,3.978,3.978,0,0,0-.62.2,3.625,3.625,0,0,0-.922.588c-.464.421-.626.777-.593.8s.275-.27.744-.615a4.253,4.253,0,0,1,.89-.485,4.192,4.192,0,0,1,.572-.167c.21-.054.388-.054.442.043s0,.048-.027.108a.762.762,0,0,1-.221.167,5.853,5.853,0,0,1-.539.3,5.723,5.723,0,0,1-.96.351A6.233,6.233,0,0,0,272.09,463.864Z" transform="translate(-253.646 -286.793)" fill="#263238"/>
        <path id="Path_258" data-name="Path 258" d="M271.234,462.77a1.618,1.618,0,0,0,.27-.955,3.117,3.117,0,0,0-.367-1.688.8.8,0,0,0-.62-.507.464.464,0,0,0-.421.27,1.5,1.5,0,0,0-.108.361,2.156,2.156,0,0,0,0,.669,2.194,2.194,0,0,0,.41,1.025c.377.539.782.642.787.6a4.051,4.051,0,0,1-.588-.734,2.217,2.217,0,0,1-.3-.933,2.05,2.05,0,0,1,.027-.572c.032-.21.113-.378.189-.356a.745.745,0,0,1,.345.329,3.363,3.363,0,0,1,.237.539,3.612,3.612,0,0,1,.178.992C271.288,462.392,271.18,462.754,271.234,462.77Z" transform="translate(-252.666 -285.559)" fill="#263238"/>
        <path id="Path_259" data-name="Path 259" d="M327.754,454.733l-.383,10.183s10.247,3.813,10.334,5.7l-19.751-.032L317.9,454.69Z" transform="translate(-274.749 -283.288)" fill="#2db0de"/>
        <g id="Group_92" data-name="Group 92" transform="translate(45.958 180.746)" opacity="0.6">
          <path id="Path_260" data-name="Path 260" d="M323.657,472.034a.809.809,0,0,0-.539.917.777.777,0,0,0,.906.566.858.858,0,0,0,.588-.982.809.809,0,0,0-1.009-.48" transform="translate(-323.104 -472.015)" fill="#fff"/>
        </g>
        <g id="Group_93" data-name="Group 93" transform="translate(43.205 185.679)" opacity="0.6">
          <path id="Path_261" data-name="Path 261" d="M318,482.778l.059-1.618,18.936.631s.879.383.777,1Z" transform="translate(-318 -481.16)" fill="#fff"/>
        </g>
        <path id="Path_262" data-name="Path 262" d="M334.52,473.4c0,.1-.491.14-.965.448s-.728.717-.814.68.054-.6.636-.96S334.536,473.3,334.52,473.4Z" transform="translate(-281.575 -291.864)" fill="#263238"/>
        <path id="Path_263" data-name="Path 263" d="M338.749,475.026c0,.092-.4.254-.728.663s-.421.841-.539.836-.156-.539.259-1.079S338.744,474.934,338.749,475.026Z" transform="translate(-283.733 -292.632)" fill="#263238"/>
        <path id="Path_264" data-name="Path 264" d="M341.973,478.251c-.086,0-.221-.458.032-.987s.7-.739.739-.658-.237.361-.437.8S342.07,478.245,341.973,478.251Z" transform="translate(-285.786 -293.376)" fill="#263238"/>
        <path id="Path_265" data-name="Path 265" d="M333.986,468.862c-.043.086-.485-.049-1.03,0s-.971.2-1.019.124.356-.426,1-.458S334.035,468.781,333.986,468.862Z" transform="translate(-281.214 -289.661)" fill="#263238"/>
        <g id="Group_94" data-name="Group 94" transform="translate(43.129 173.08)" opacity="0.3">
          <path id="Path_266" data-name="Path 266" d="M327.66,458.183,327.59,460l-9.719-.108-.011-2.093Z" transform="translate(-317.86 -457.8)"/>
        </g>
        <path id="Path_267" data-name="Path 267" d="M333.239,463.963a1.872,1.872,0,0,1-.987,0,4.379,4.379,0,0,1-1.036-.318,4.841,4.841,0,0,1-.572-.3,1.2,1.2,0,0,1-.3-.232.426.426,0,0,1-.043-.539.539.539,0,0,1,.421-.221,1.463,1.463,0,0,1,.372.054,3.908,3.908,0,0,1,.615.21,3.6,3.6,0,0,1,.917.6c.453.426.609.788.577.8s-.264-.27-.733-.62a3.934,3.934,0,0,0-.879-.5,3.546,3.546,0,0,0-.572-.173c-.2-.059-.383-.059-.437.032s-.027.049,0,.113a.938.938,0,0,0,.216.167,4.808,4.808,0,0,0,.539.3,5.05,5.05,0,0,0,.96.367A6.248,6.248,0,0,1,333.239,463.963Z" transform="translate(-280.428 -286.816)" fill="#263238"/>
        <path id="Path_268" data-name="Path 268" d="M335.356,462.914a1.564,1.564,0,0,1-.259-.955,3.235,3.235,0,0,1,.135-1.079,3.6,3.6,0,0,1,.253-.6.825.825,0,0,1,.631-.5.464.464,0,0,1,.415.275,1.305,1.305,0,0,1,.1.367,2.277,2.277,0,0,1,0,.663,2.319,2.319,0,0,1-.426,1.025c-.388.539-.793.626-.8.593a4.171,4.171,0,0,0,.6-.728,2.158,2.158,0,0,0,.3-1.5c-.032-.21-.113-.383-.189-.361a.759.759,0,0,0-.351.324,3.94,3.94,0,0,0-.243.539,3.614,3.614,0,0,0-.194.987C335.308,462.536,335.41,462.9,335.356,462.914Z" transform="translate(-282.67 -285.632)" fill="#263238"/>
        <path id="Path_269" data-name="Path 269" d="M293.407,296.808l9.358,94.093-12.092.566L276.3,314.25,276.477,391l-12.842-.167L258.69,295.81Z" transform="translate(-247.473 -210.098)" fill="#263238"/>
        <path id="Path_270" data-name="Path 270" d="M268.108,310.109a2.733,2.733,0,0,1-.539.982,6.3,6.3,0,0,1-2,1.78,6.471,6.471,0,0,1-2.562.8,2.7,2.7,0,0,1-1.106-.065c0-.049.421-.032,1.079-.135a7.162,7.162,0,0,0,4.428-2.508C267.887,310.454,268.065,310.088,268.108,310.109Z" transform="translate(-248.952 -216.685)" fill="#455a64"/>
        <path id="Path_271" data-name="Path 271" d="M317.915,311.22a3.714,3.714,0,0,1-1.181.485,8.09,8.09,0,0,1-6.014-.734,3.557,3.557,0,0,1-1.03-.755c.027-.038.426.243,1.122.577a9.168,9.168,0,0,0,2.88.847,9.324,9.324,0,0,0,2.993-.129C317.446,311.35,317.9,311.177,317.915,311.22Z" transform="translate(-270.967 -216.733)" fill="#455a64"/>
        <path id="Path_272" data-name="Path 272" d="M292.188,318.475a.5.5,0,0,1-.3.264,1.176,1.176,0,0,1-1.079-.167,2.465,2.465,0,0,1-.787-1.408c-.146-.588-.3-1.213-.469-1.866-.329-1.327-.6-2.53-.793-3.409a7.149,7.149,0,0,1-.254-1.429,7.544,7.544,0,0,1,.442,1.386c.237.863.539,2.055.874,3.382.162.658.313,1.284.453,1.871a2.324,2.324,0,0,0,.658,1.316,1.078,1.078,0,0,0,.922.221,1.946,1.946,0,0,0,.329-.162Z" transform="translate(-261.21 -216.847)" fill="#455a64"/>
        <path id="Path_273" data-name="Path 273" d="M292.253,310.394a.29.29,0,0,1,.189-.054.787.787,0,0,1,.491.2.911.911,0,0,1,.313.744.857.857,0,0,1-.69.712.847.847,0,0,1-.922-.351.885.885,0,0,1-.032-.8.761.761,0,0,1,.356-.394c.119-.054.189-.043.194-.027a.891.891,0,0,0-.367.491.712.712,0,0,0,.07.593.588.588,0,0,0,.642.216.6.6,0,0,0,.491-.469.712.712,0,0,0-.194-.539C292.534,310.4,292.253,310.442,292.253,310.394Z" transform="translate(-262.597 -216.791)" fill="#455a64"/>
        <path id="Path_274" data-name="Path 274" d="M280.317,466.446a13.69,13.69,0,0,1-1.839.027c-1.127,0-2.7,0-4.417.032s-3.285.129-4.417.2a14.386,14.386,0,0,1-1.834.076,1.557,1.557,0,0,1,.485-.108c.313-.048.771-.108,1.332-.167,1.127-.119,2.7-.237,4.428-.28s3.3,0,4.433.049c.566.027,1.019.059,1.338.1A1.487,1.487,0,0,1,280.317,466.446Z" transform="translate(-251.675 -288.593)" fill="#455a64"/>
        <path id="Path_275" data-name="Path 275" d="M329.078,464.489c0,.081-2.643.464-5.933.863s-5.933.663-5.965.588,2.648-.464,5.933-.863S329.072,464.413,329.078,464.489Z" transform="translate(-274.417 -287.796)" fill="#455a64"/>
        <path id="Path_276" data-name="Path 276" d="M320.59,395.28a47.958,47.958,0,0,1-2.519,4.444,46.962,46.962,0,0,1-2.761,4.315,46.8,46.8,0,0,1,2.519-4.449A44.247,44.247,0,0,1,320.59,395.28Z" transform="translate(-273.556 -255.92)" fill="#455a64"/>
        <path id="Path_277" data-name="Path 277" d="M279.8,398.23a71.526,71.526,0,0,1-3.743,8.209,37.283,37.283,0,0,1,1.742-4.164,36.739,36.739,0,0,1,2-4.045Z" transform="translate(-255.475 -257.279)" fill="#455a64"/>
        <path id="Path_278" data-name="Path 278" d="M279.555,406.428a9.588,9.588,0,0,1-.928-1.2c-.539-.75-1.327-1.785-2.211-2.9s-1.731-2.087-2.341-2.794a8.741,8.741,0,0,1-.965-1.17,7.772,7.772,0,0,1,1.111,1.036,36.05,36.05,0,0,1,2.411,2.756c.9,1.138,1.645,2.157,2.157,2.956A7.009,7.009,0,0,1,279.555,406.428Z" transform="translate(-254.116 -257.343)" fill="#455a64"/>
        <path id="Path_279" data-name="Path 279" d="M251.116,206.53s-6.4,3.463-7.7,4.212c-1.408.82-5.577,9.05-5.108,13.241s.8,3.457.464,4.185-1.467,5.787-.5,7.847,4.622,6.181,6.753,6.58,13.03-14.729,14.292-17.771a12.345,12.345,0,0,0,.6-6.364l-5.566-2.476h0Z" transform="translate(-237.893 -168.97)" fill="#2db0de"/>
        <path id="Path_280" data-name="Path 280" d="M253.2,231.362v18.052c0,2.4,2.842,6.693,2.842,6.693h35.03s1.516-7.578,1.262-10.986-2.9-35.343-2.9-35.343l-.885-8.845-9.341-2.271-.491-1.99L264.532,195l-.755,3.285-6.046,3.188C257.73,201.963,253.2,231.362,253.2,231.362Z" transform="translate(-244.944 -163.659)" fill="#2db0de"/>
        <path id="Path_281" data-name="Path 281" d="M318.164,206a13.645,13.645,0,0,1,5.01,4.93c1.812,3.236,7.6,21.606,7.842,23.9s.361,5.431,0,5.669,1.079,8.689,1.569,10.986,1.553,8.268,1.192,11.164a37.624,37.624,0,0,0-.345,4.52l-7.966-2.378.275-2.788s-1.586-4.854-2.7-8.317-5.555-35.963-5.555-35.963Z" transform="translate(-274.56 -168.726)" fill="#2db0de"/>
        <path id="Path_282" data-name="Path 282" d="M292.4,301.952a2.155,2.155,0,0,1-.383.043l-1.079.07c-.949.059-2.33.124-4.029.183-3.409.124-8.09.21-13.311.162s-9.908-.2-13.311-.356c-1.7-.081-3.08-.151-4.029-.21l-1.079-.081a1.616,1.616,0,0,1-.378-.043,1.627,1.627,0,0,1,.383,0h1.079l4.04.146c3.4.1,8.09.232,13.3.275s9.9,0,13.306-.081l4.029-.092h1.079a1.622,1.622,0,0,1,.383-.016Z" transform="translate(-245.681 -212.815)" fill="#263238"/>
        <path id="Path_283" data-name="Path 283" d="M266.976,228.83a1.135,1.135,0,0,1,.113.28,8.178,8.178,0,0,1,.243.825,10.651,10.651,0,0,1,.286,3.15,14.077,14.077,0,0,1-1.079,4.563,23.948,23.948,0,0,1-2.869,4.973,39.069,39.069,0,0,1-7.346,7.362c-1.046.825-1.915,1.467-2.524,1.9l-.7.485a1.47,1.47,0,0,1-.259.156,2.232,2.232,0,0,1,.227-.2l.669-.539c.588-.458,1.435-1.116,2.465-1.958a41.891,41.891,0,0,0,7.243-7.378,24.531,24.531,0,0,0,2.858-4.908,14.239,14.239,0,0,0,1.122-4.477,11.44,11.44,0,0,0-.194-3.112C267.073,229.235,266.949,228.841,266.976,228.83Z" transform="translate(-244.779 -179.243)" fill="#263238"/>
        <path id="Path_284" data-name="Path 284" d="M257.07,223.08a2.721,2.721,0,0,1-.491.458c-.318.286-.777.707-1.311,1.251-1.079,1.079-2.405,2.756-4.045,4.45a18.267,18.267,0,0,1-4.854,3.6,15.8,15.8,0,0,1-1.677.739,2.6,2.6,0,0,1-.642.194c0-.049.885-.372,2.227-1.106A20.007,20.007,0,0,0,251,229.045c1.618-1.683,2.977-3.339,4.1-4.4a17.413,17.413,0,0,1,1.386-1.2A3.449,3.449,0,0,1,257.07,223.08Z" transform="translate(-240.729 -176.594)" fill="#263238"/>
        <path id="Path_285" data-name="Path 285" d="M290.288,196.9a.653.653,0,0,1,0,.146,1.7,1.7,0,0,0,.043.432c.027.4.065.955.119,1.661.092,1.445.216,3.533.351,6.122.27,5.167.6,12.308.857,20.2s.378,15.048.345,20.225c0,1.294,0,2.465-.049,3.495s-.043,1.909-.086,2.632-.065,1.267-.086,1.667a1.992,1.992,0,0,1-.027.431.613.613,0,0,1,0,.146.746.746,0,0,1,0-.146v-.431q0-.6.032-1.667c.027-.723.032-1.618.038-2.637s0-2.2,0-3.49c0-5.172-.167-12.319-.426-20.214s-.539-15.031-.777-20.2c-.108-2.567-.2-4.655-.259-6.122-.032-.707-.054-1.262-.07-1.667v-.432A.6.6,0,0,1,290.288,196.9Z" transform="translate(-262.028 -164.534)" fill="#263238"/>
        <path id="Path_286" data-name="Path 286" d="M268.366,272.21a7.6,7.6,0,0,1-1.2,1.176,23.539,23.539,0,0,1-3.29,2.362,23.841,23.841,0,0,1-3.641,1.775,7.354,7.354,0,0,1-1.618.491,15.392,15.392,0,0,1,1.526-.674,33.13,33.13,0,0,0,3.576-1.834,32.238,32.238,0,0,0,3.306-2.276A14.1,14.1,0,0,1,268.366,272.21Z" transform="translate(-247.441 -199.226)" fill="#263238"/>
        <path id="Path_287" data-name="Path 287" d="M316.627,276.767a5.212,5.212,0,0,1-1.079-.653,30.206,30.206,0,0,1-2.411-1.844,29.68,29.68,0,0,1-2.228-2.066,5.1,5.1,0,0,1-.82-.955,6.542,6.542,0,0,1,.96.814c.572.539,1.364,1.23,2.265,1.99s1.742,1.424,2.346,1.9A5.968,5.968,0,0,1,316.627,276.767Z" transform="translate(-271.151 -198.784)" fill="#263238"/>
        <path id="Path_288" data-name="Path 288" d="M322.829,252.64a.974.974,0,0,1,.07.264c.043.2.092.453.156.76.129.663.291,1.618.458,2.821a80.665,80.665,0,0,1,.766,9.4c.092,3.684-.054,7.011-.194,9.422-.076,1.208-.146,2.157-.205,2.853-.032.307-.054.539-.075.771a.926.926,0,0,1-.049.27,1.132,1.132,0,0,1,0-.275c0-.21,0-.464.027-.777.027-.717.07-1.677.119-2.848.086-2.411.2-5.739.1-9.411s-.383-6.984-.674-9.379c-.146-1.192-.275-2.157-.372-2.826-.043-.307-.076-.539-.1-.771A.858.858,0,0,1,322.829,252.64Z" transform="translate(-277.019 -190.211)" fill="#263238"/>
        <path id="Path_289" data-name="Path 289" d="M275.12,230.205a4.389,4.389,0,0,1,.421-1.219,4.63,4.63,0,0,1,.507-1.187,2.33,2.33,0,0,1-.248,1.284C275.541,229.769,275.185,230.243,275.12,230.205Z" transform="translate(-255.042 -178.768)" fill="#263238"/>
        <path id="Path_290" data-name="Path 290" d="M269.661,227.84c-.065-.043.183-.539.539-1.079s.728-.987.793-.944-.189.539-.539,1.079S269.726,227.883,269.661,227.84Z" transform="translate(-252.523 -177.854)" fill="#263238"/>
        <path id="Path_291" data-name="Path 291" d="M265.936,225.661c-.049-.054.324-.475.874-.885s1.079-.647,1.106-.577-.394.4-.938.8A4.05,4.05,0,0,1,265.936,225.661Z" transform="translate(-250.81 -177.104)" fill="#263238"/>
        <path id="Path_292" data-name="Path 292" d="M248.6,236.064a16.226,16.226,0,0,0-3.446-.62,14.216,14.216,0,0,0-3.463.539,3.3,3.3,0,0,1,.96-.421,7.735,7.735,0,0,1,5,.065A2.961,2.961,0,0,1,248.6,236.064Z" transform="translate(-239.642 -182.168)" fill="#263238"/>
        <path id="Path_293" data-name="Path 293" d="M256.616,220.028c-.043,0-.259-.48-.75-1.192a9.265,9.265,0,0,0-2.389-2.362,9.11,9.11,0,0,0-3.08-1.332c-.858-.21-1.4-.21-1.4-.254s.135-.032.383-.038a5.677,5.677,0,0,1,1.041.1,8.161,8.161,0,0,1,3.2,1.294,8.273,8.273,0,0,1,2.389,2.465,6.088,6.088,0,0,1,.475.933Q256.648,220.02,256.616,220.028Z" transform="translate(-243.01 -172.803)" fill="#263238"/>
        <g id="Group_95" data-name="Group 95" transform="translate(7.91 56.291)" opacity="0.3">
          <path id="Path_294" data-name="Path 294" d="M252.56,258.055c3.4.771,7.044-.739,9.5-3.236a20.829,20.829,0,0,0,4.827-9.169c.442-1.58.96-3,.1-4.39a29.569,29.569,0,0,1-2.438,5.334,26,26,0,0,1-3.063,4.088,38.81,38.81,0,0,1-8.921,7.346" transform="translate(-252.56 -241.26)"/>
        </g>
        <g id="Group_96" data-name="Group 96" transform="translate(14.404 82.007)" opacity="0.3">
          <path id="Path_295" data-name="Path 295" d="M264.783,292.208a9.168,9.168,0,0,0,4.412-.162,4.228,4.228,0,0,0,2.891-3.107,3.651,3.651,0,0,1-1.375,3.684,5.048,5.048,0,0,1-3.953.863,2.9,2.9,0,0,1-2.157-1.316" transform="translate(-264.6 -288.94)"/>
        </g>
        <g id="Group_97" data-name="Group 97" transform="translate(11.729 88.986)" opacity="0.3">
          <path id="Path_296" data-name="Path 296" d="M259.64,301.88a34.746,34.746,0,0,0,10.474,2.157,77.961,77.961,0,0,0,10.754.453,26.427,26.427,0,0,0,10.415-2.438s-12.852.361-16.79.21S259.64,301.88,259.64,301.88Z" transform="translate(-259.64 -301.88)"/>
        </g>
        <path id="Path_297" data-name="Path 297" d="M336.244,311.76a2.492,2.492,0,0,1,.086,1.16,2.547,2.547,0,0,1-.2,1.143,4.895,4.895,0,0,1,.113-2.3Z" transform="translate(-283.104 -217.445)" fill="#263238"/>
        <path id="Path_298" data-name="Path 298" d="M342.213,313a2.546,2.546,0,0,1,.178,1.3,2.632,2.632,0,0,1-.237,1.294,3.961,3.961,0,0,1-.043-1.3A4.12,4.12,0,0,1,342.213,313Z" transform="translate(-285.886 -218.017)" fill="#263238"/>
        <path id="Path_299" data-name="Path 299" d="M290.21,196.71a3.284,3.284,0,0,0,1.046.987c.383.237.884.437,1.429.723a4.14,4.14,0,0,1,.415.243,1.079,1.079,0,0,1,.383.394.626.626,0,0,1-.043.609,1.956,1.956,0,0,1-.356.421,1.657,1.657,0,0,1-.458.329.745.745,0,0,1-.6,0,1.867,1.867,0,0,1-.669-.766,10,10,0,0,1-.723-1.435,4.854,4.854,0,0,1-.415-1.429c.043,0,.21.539.6,1.354a12.682,12.682,0,0,0,.771,1.386,2.079,2.079,0,0,0,.539.653c.21.113.539-.059.755-.291s.464-.5.345-.712a1.736,1.736,0,0,0-.674-.539c-.539-.286-1.025-.539-1.413-.782A1.882,1.882,0,0,1,290.21,196.71Z" transform="translate(-261.993 -164.447)" fill="#263238"/>
        <g id="Group_98" data-name="Group 98" transform="translate(3.448 53.74)" opacity="0.3">
          <path id="Path_300" data-name="Path 300" d="M249.806,236.53a5.447,5.447,0,0,1-2.47,1.305,11.586,11.586,0,0,0-2.648.96.874.874,0,0,0-.334.291.356.356,0,0,0,0,.415c.129.14.361.1.539.049a9.87,9.87,0,0,0,4.892-3.02" transform="translate(-244.286 -236.53)"/>
        </g>
        <path id="Path_301" data-name="Path 301" d="M280.42,210.152l-10.048-4.762c-.723-.458-.744-1.747-.356-2.616a1.116,1.116,0,0,1,1.375-.577l10.959,3.872Z" transform="translate(-252.575 -166.946)" fill="#263238"/>
        <path id="Path_302" data-name="Path 302" d="M295.951,212.655c-.76,2.157-.539,4.158.442,4.514s2.432-1.079,3.193-3.236.566-4.158-.437-4.52S296.711,210.513,295.951,212.655Z" transform="translate(-264.428 -170.273)" fill="#455a64"/>
        <path id="Path_303" data-name="Path 303" d="M289.52,213.522,293.242,217a6.413,6.413,0,0,1,2.724-7.551H291.4Z" transform="translate(-261.676 -170.315)" fill="#263238"/>
        <path id="Path_304" data-name="Path 304" d="M298.364,210.09l-2.384,6.321L381,313.589l46.858-68.976Z" transform="translate(-264.651 -170.61)" fill="#2db0de"/>
        <g id="Group_99" data-name="Group 99" transform="translate(31.329 39.48)" opacity="0.8">
          <path id="Path_305" data-name="Path 305" d="M298.364,210.09l-2.384,6.321L381,313.589l46.858-68.976Z" transform="translate(-295.98 -210.09)" fill="#fff"/>
        </g>
        <path id="Path_306" data-name="Path 306" d="M453.436,296.888a1.618,1.618,0,1,1-1.618-1.618A1.618,1.618,0,0,1,453.436,296.888Z" transform="translate(-335.695 -209.849)" fill="#2db0de"/>
        <g id="Group_100" data-name="Group 100" transform="translate(114.506 85.421)" opacity="0.6">
          <path id="Path_307" data-name="Path 307" d="M453.436,296.888a1.618,1.618,0,1,1-1.618-1.618A1.618,1.618,0,0,1,453.436,296.888Z" transform="translate(-450.2 -295.27)" fill="#fff"/>
        </g>
        <path id="Path_308" data-name="Path 308" d="M392.787,259.794a.8.8,0,1,1-.8-.8.8.8,0,0,1,.8.8Z" transform="translate(-308.506 -193.136)" fill="#2db0de"/>
        <g id="Group_101" data-name="Group 101" transform="translate(82.674 65.854)" opacity="0.6">
          <path id="Path_309" data-name="Path 309" d="M392.787,259.794a.8.8,0,1,1-.8-.8.8.8,0,0,1,.8.8Z" transform="translate(-391.18 -258.99)" fill="#fff"/>
        </g>
        <path id="Path_310" data-name="Path 310" d="M409.717,296.094a.8.8,0,1,1-.8-.8A.8.8,0,0,1,409.717,296.094Z" transform="translate(-316.305 -209.858)" fill="#2db0de"/>
        <g id="Group_102" data-name="Group 102" transform="translate(91.805 85.432)" opacity="0.6">
          <path id="Path_311" data-name="Path 311" d="M409.717,296.094a.8.8,0,1,1-.8-.8A.8.8,0,0,1,409.717,296.094Z" transform="translate(-408.11 -295.29)" fill="#fff"/>
        </g>
        <circle id="Ellipse_4" data-name="Ellipse 4" cx="0.804" cy="0.804" r="0.804" transform="translate(118.95 74.871)" fill="#2db0de"/>
        <g id="Group_103" data-name="Group 103" transform="translate(118.95 74.871)" opacity="0.6">
          <circle id="Ellipse_5" data-name="Ellipse 5" cx="0.804" cy="0.804" r="0.804" fill="#fff"/>
        </g>
        <path id="Path_312" data-name="Path 312" d="M333.557,227.244a.8.8,0,1,1-.8-.8A.8.8,0,0,1,333.557,227.244Z" transform="translate(-281.221 -178.142)" fill="#2db0de"/>
        <g id="Group_104" data-name="Group 104" transform="translate(50.729 48.298)" opacity="0.6">
          <path id="Path_313" data-name="Path 313" d="M333.557,227.244a.8.8,0,1,1-.8-.8A.8.8,0,0,1,333.557,227.244Z" transform="translate(-331.95 -226.44)" fill="#fff"/>
        </g>
        <ellipse id="Ellipse_6" data-name="Ellipse 6" cx="41.761" cy="12.804" rx="41.761" ry="12.804" transform="translate(106.294 136.137) rotate(-55.49)" fill="#2db0de"/>
        <g id="Group_105" data-name="Group 105" transform="translate(106.294 67.313)" opacity="0.7">
          <ellipse id="Ellipse_7" data-name="Ellipse 7" cx="41.761" cy="12.804" rx="41.761" ry="12.804" transform="translate(0 68.825) rotate(-55.49)" fill="#fff"/>
        </g>
        <path id="Path_314" data-name="Path 314" d="M295.929,216.411s2.9-1.343,2.384-6.321C298.3,210.09,295.314,211.9,295.929,216.411Z" transform="translate(-264.59 -170.61)" fill="#fafafa"/>
        <path id="Path_315" data-name="Path 315" d="M301.359,207.386l-.4,7.011-.324-7.011-6.111-.324,6.1-.324.361-6.909.3,6.914,7.826.345Z" transform="translate(-263.979 -165.884)" fill="#fff"/>
        <path id="Path_316" data-name="Path 316" d="M304.1,210.856l-1.58-2.546,1.969,2.271Z" transform="translate(-267.664 -169.79)" fill="#fff"/>
        <path id="Path_317" data-name="Path 317" d="M306.5,210.917l2.12-2.087-1.785,2.432Z" transform="translate(-269.498 -170.03)" fill="#fff"/>
        <path id="Path_318" data-name="Path 318" d="M306.868,213.64l1.58,2.546-1.969-2.271Z" transform="translate(-269.488 -172.245)" fill="#fff"/>
        <path id="Path_319" data-name="Path 319" d="M304.335,213.68l-2.125,2.087L304,213.34Z" transform="translate(-267.521 -172.107)" fill="#fff"/>
        <path id="Path_320" data-name="Path 320" d="M280,203.609a4.3,4.3,0,0,0-1.893-.431s.453-.307-.539-1.079c-.34-.27-2.379.032-2.379.032a1,1,0,0,0-.739-.955,2.368,2.368,0,0,0-1.262,0c-.685.2-1.4.421-1.429,1.127l-.259,1.429h-.027a6.383,6.383,0,0,0-1.224-.043,12.189,12.189,0,0,0-.324,1.65,7.492,7.492,0,0,0,.809,2.6l-.119,1.893-2.535,3.236,5.836,2.842s1.079-1.845,1.742-2.74,2.157-1.575,2.432-2.287a28.679,28.679,0,0,0,1.251-4.352,1.7,1.7,0,0,1,1.079-1.348S280.528,204.019,280,203.609Z" transform="translate(-251.799 -166.465)" fill="#ffbe9d"/>
        <path id="Path_321" data-name="Path 321" d="M274.246,204.66a5.6,5.6,0,0,1-.1,2.093c-.194,1.138-.286,2.055-.34,2.06a5.237,5.237,0,0,1,.092-2.1A19.173,19.173,0,0,1,274.246,204.66Z" transform="translate(-254.406 -168.109)" fill="#eb996e"/>
        <path id="Path_322" data-name="Path 322" d="M278,205.546a3.784,3.784,0,0,1,.049-.539,4.587,4.587,0,0,1,.146-1.321,1.117,1.117,0,0,1,.5-.615,1.617,1.617,0,0,1,.6-.167c.334-.027.539-.054.539,0s-.189.124-.512.2a1.8,1.8,0,0,0-.512.189.96.96,0,0,0-.378.5,7.932,7.932,0,0,0-.2,1.257A1.082,1.082,0,0,1,278,205.546Z" transform="translate(-256.369 -167.285)" fill="#eb996e"/>
        <path id="Path_323" data-name="Path 323" d="M284.7,204.521a1.371,1.371,0,0,1-.566.081h-.6a1.72,1.72,0,0,0-.69.113,1.078,1.078,0,0,0-.539.388,1.5,1.5,0,0,0-.194.539c-.054.34-.129.539-.167.539a1.884,1.884,0,0,1,0-.572,1.279,1.279,0,0,1,.173-.626,1.241,1.241,0,0,1,.637-.5,1.85,1.85,0,0,1,.777-.108l.62.032C284.5,204.451,284.708,204.489,284.7,204.521Z" transform="translate(-258.174 -167.975)" fill="#eb996e"/>
        <path id="Path_324" data-name="Path 324" d="M288.087,205.984c0,.038-.243.043-.62.07a1.866,1.866,0,0,0-1.278.491,2.211,2.211,0,0,0-.5,1.3c-.043.372-.059.615-.1.615a1.4,1.4,0,0,1-.081-.626,2.1,2.1,0,0,1,.491-1.462,1.564,1.564,0,0,1,.766-.437,2.329,2.329,0,0,1,.7-.059,1.3,1.3,0,0,1,.62.108Z" transform="translate(-259.827 -168.667)" fill="#eb996e"/>
        <path id="Path_325" data-name="Path 325" d="M331.692,315.17l-1.532,3.576v4.676s.852,2.637,1.4,2.583,1.586-.448,1.44-1.079l1.192.647,1.294-.1s3.387-3.285,3.56-3.98a11.725,11.725,0,0,0,.221-1.818l-1.014-2.5Z" transform="translate(-280.397 -219.016)" fill="#ffbe9d"/>
        <path id="Path_326" data-name="Path 326" d="M334.428,325.57c.038,0,0,.259-.086.653a4.234,4.234,0,0,0-.178,1.5,5.675,5.675,0,0,0,.685,2.023c0,.027-.232-.129-.458-.48a3.237,3.237,0,0,1-.507-1.521,3.458,3.458,0,0,1,.27-1.58C334.3,325.8,334.391,325.559,334.428,325.57Z" transform="translate(-282.109 -223.807)" fill="#eb996e"/>
        <path id="Path_327" data-name="Path 327" d="M336.092,328.833c-.038,0-.129-.2-.254-.539-.065-.178-.135-.394-.2-.631a3.459,3.459,0,0,0-.264-.728.394.394,0,0,0-.512-.221.7.7,0,0,0-.372.4c-.119.329-.14.577-.189.572s-.086-.237,0-.636a.868.868,0,0,1,.458-.577.626.626,0,0,1,.485-.027.766.766,0,0,1,.372.34,3.1,3.1,0,0,1,.27.8c.059.248.108.469.146.653C336.1,328.59,336.13,328.822,336.092,328.833Z" transform="translate(-282.278 -224.195)" fill="#eb996e"/>
        <path id="Path_328" data-name="Path 328" d="M342.842,326.44a2.233,2.233,0,0,1,.2,1.365,2.265,2.265,0,0,1-.383,1.327,6.8,6.8,0,0,1,.1-1.343A7.9,7.9,0,0,1,342.842,326.44Z" transform="translate(-286.154 -224.208)" fill="#eb996e"/>
        <path id="Path_329" data-name="Path 329" d="M337.154,324.84a2.983,2.983,0,0,1,.2,1.381,3.074,3.074,0,0,1-.156,1.386,3.914,3.914,0,0,1-.124-1.381,4.253,4.253,0,0,1,.076-1.386Z" transform="translate(-283.572 -223.471)" fill="#eb996e"/>
        <path id="Path_330" data-name="Path 330" d="M345.575,326.895c-.065-.027,0-.4,0-.89s0-.874.086-.9.216.394.194.906S345.656,326.932,345.575,326.895Z" transform="translate(-287.485 -223.595)" fill="#eb996e"/>
        <path id="Path_331" data-name="Path 331" d="M296.642,182.338a.653.653,0,0,0-.761.324,1.079,1.079,0,0,0,0,.874.4.4,0,0,0,.237.28.356.356,0,0,0,.27,0,1.008,1.008,0,0,0,.221-.178,1.8,1.8,0,0,0,.286-.658c.065-.237,0-.582-.237-.631" transform="translate(-264.563 -157.814)" fill="#eb996e"/>
        <path id="Path_332" data-name="Path 332" d="M296.074,183.755a.132.132,0,0,1-.092.135.426.426,0,0,1-.388-.054.755.755,0,0,1-.3-.469,1.728,1.728,0,0,1-.032-.588.885.885,0,0,1,.793-.809c.34,0,.448.232.394.275s-.189.038-.329.119a.626.626,0,0,0-.3.5,2.694,2.694,0,0,0,0,.415.782.782,0,0,0,.049.259C295.913,183.664,296.031,183.7,296.074,183.755Z" transform="translate(-264.314 -157.656)" fill="#263238"/>
      </g>
      <g id="freepik--speech-bubble--inject-2" transform="translate(189.671 81.534)">
        <path id="Path_333" data-name="Path 333" d="M324.34,171.3l2.912-5.135a13.78,13.78,0,1,1,3.3,3.662h0Z" transform="translate(-324.34 -145.118)" fill="#fff"/>
        <path id="Path_334" data-name="Path 334" d="M324.34,171.275l6.2-1.532-.038.108h0a.065.065,0,0,1,0-.1.076.076,0,0,1,.086,0,13.661,13.661,0,0,0,6.542,2.7,12.832,12.832,0,0,0,2.157.1c.372,0,.744-.032,1.127-.065l1.143-.178a13.855,13.855,0,0,0,4.563-1.812,13.661,13.661,0,0,0,6.165-8.878,13.836,13.836,0,0,0-.162-6.014,13.376,13.376,0,0,0-2.9-5.555,13.52,13.52,0,0,0-5.2-3.721,13.833,13.833,0,0,0-6.062-.938A13.343,13.343,0,0,0,332.387,147a13.759,13.759,0,0,0-4.131,3.511,13.968,13.968,0,0,0-2.325,4.385,14.831,14.831,0,0,0-.609,4.412,13.64,13.64,0,0,0,1.99,6.763.081.081,0,0,1,0,.07c-1.855,3.188-2.74,4.7-2.972,5.1.227-.41,1.079-1.942,2.853-5.167v.065a13.71,13.71,0,0,1-2.066-6.828,14.917,14.917,0,0,1,.593-4.482,13.98,13.98,0,0,1,6.526-8.031,13.559,13.559,0,0,1,5.674-1.677,14.023,14.023,0,0,1,6.192.949,13.823,13.823,0,0,1,5.312,3.775,13.618,13.618,0,0,1,2.961,5.674A13.861,13.861,0,0,1,341.6,172.516l-1.165.178c-.388,0-.766.038-1.143.059a12.04,12.04,0,0,1-2.157-.113,13.732,13.732,0,0,1-6.628-2.788l.1-.1h0a.065.065,0,0,1,0,.1h-.027Z" transform="translate(-324.34 -145.091)" fill="#263238"/>
        <path id="Path_335" data-name="Path 335" d="M348.3,159.1l.706,6.833a1.106,1.106,0,0,0,1.079,1h0a1.111,1.111,0,0,0,1.133-1.03l.485-6.92a.868.868,0,0,0-.917-.933l-1.672.086a.874.874,0,0,0-.814.965Z" transform="translate(-335.373 -151.059)" fill="#2db0de"/>
        <path id="Path_336" data-name="Path 336" d="M352.014,179.75a1.672,1.672,0,1,1-1.079-2.109A1.672,1.672,0,0,1,352.014,179.75Z" transform="translate(-335.585 -160.048)" fill="#2db0de"/>
      </g>
      <g id="freepik--Trees--inject-2" transform="translate(58.814 -5.274)">
        <path id="Path_337" data-name="Path 337" d="M137.606,9.435c-1.8,12.391-4.935,46.232-4.935,46.232s-.588,5.976-3.576,4.245c-3.409-1.969-6.294-10.986-6.294-10.986l-.685-1.618-3.236,1.37,7.955,17.016,4.18,13.484,2.125,33.169-6.472,153.119,18.645-.049s-1.154-145.233-.674-151.97,19.247-20.092,27.841-26.509,6.666-8.547-.07-4.045-28.342,18.925-28.342,18.925,6.788-69.571,8.263-92.394S139.409-2.957,137.606,9.435Z" transform="translate(-98.836 4.055)" fill="#263238"/>
        <path id="Path_338" data-name="Path 338" d="M107.7,47.4l-7.028-16.353s8-18.449,10.6-24.405,1.049-5.837-1.807,0S98.141,29.439,98.141,29.439s-2.931-14.414-3.894-19.1-2.64-5.166-1.942-.038,2.934,20.754,2.934,20.754l5.437,10.614s-10.034-1.539-13.6-2.125-4.757,1.527-.928,2.125,15.765,2.7,15.765,2.7l2.427,3.84" transform="translate(-83.787 5.441)" fill="#263238"/>
        <path id="Path_339" data-name="Path 339" d="M585.057,7.022c-3,15.43-9.169,53.265-12.076,60.746s-5.755,16.11-5.755,16.11-15.319-27.53-20.576-37.036-7.829-9.011-3.4,1.828,21.1,41.529,21.1,41.529-11.51,13.807-12.087,25.888,0,32.226,0,32.226L542.023,263.235h16.568V148.9s-3.452-29.351-1.726-34.518,11.509-21.865,11.509-21.865,10.49-13.235,11.866-26.471,6.975-43.918,9.681-58.621S588.053-8.408,585.057,7.022Z" transform="translate(-293.773 5.19)" fill="#263238"/>
      </g>
      <g id="freepik--Plants--inject-2" transform="translate(51.204 219.15)">
        <path id="Path_340" data-name="Path 340" d="M583.222,422.373a25.629,25.629,0,0,0-23.828-5.582c-2.616-10.927-14.843-18.543-25.8-16.078s-18.747,14.562-16.434,25.576a23.326,23.326,0,0,0-22.323,1.915c-6.472,4.385-10.4,9.422-10.026,17.216l106.2.151A25.64,25.64,0,0,0,583.222,422.373Z" transform="translate(-259.783 -400.247)" fill="#455a64"/>
        <path id="Path_341" data-name="Path 341" d="M549.55,456.5a9.627,9.627,0,0,1,.583-1.942,13.277,13.277,0,0,1,3.1-4.557,13.1,13.1,0,0,1,7.292-3.592,13.629,13.629,0,0,1,9.584,2.465,12.618,12.618,0,0,1,2.815,2.745l-.248.065a17.869,17.869,0,0,1,3.3-7.966,19.207,19.207,0,0,1,2.481-2.794,19.486,19.486,0,0,1,2.562-1.963A16.94,16.94,0,0,1,585.19,437c.539-.178.933-.243,1.2-.318a2.157,2.157,0,0,1,.426-.081,3.287,3.287,0,0,1-.41.129c-.27.092-.68.173-1.187.361a18.018,18.018,0,0,0-4.11,2.023,19.416,19.416,0,0,0-2.508,1.974,19.645,19.645,0,0,0-2.433,2.772,17.8,17.8,0,0,0-3.236,7.863l-.054.334-.2-.27a12.522,12.522,0,0,0-2.751-2.7,13.441,13.441,0,0,0-9.352-2.427,13.047,13.047,0,0,0-7.19,3.479,13.766,13.766,0,0,0-3.139,4.46,13.341,13.341,0,0,0-.512,1.4l-.119.372A.4.4,0,0,1,549.55,456.5Z" transform="translate(-289.619 -416.994)" fill="#263238"/>
        <g id="Group_106" data-name="Group 106" transform="translate(263.162 19.609)" opacity="0.3">
          <path id="Path_342" data-name="Path 342" d="M573.435,443.538a10.07,10.07,0,0,0-10.577-1.359,14.382,14.382,0,0,0-7.319,8.171c2.5-2.972,6.558-4.158,10.425-3.872a11.839,11.839,0,0,1,9.476,5.345,20.016,20.016,0,0,1,11.725-14.5l1.3-.437C582.755,435.7,576.154,438.349,573.435,443.538Z" transform="translate(-555.54 -436.604)"/>
        </g>
        <path id="Path_343" data-name="Path 343" d="M659.742,417.21a6.094,6.094,0,0,0-3.592,2.594,3.859,3.859,0,0,0,4.315.992,7.815,7.815,0,0,0,3.667-3A6.083,6.083,0,0,0,659.742,417.21Z" transform="translate(-338.725 -407.981)" fill="#455a64"/>
        <path id="Path_344" data-name="Path 344" d="M655.447,400.47a9,9,0,0,0-5.733,10.932c2.405.178,4.482-1.618,5.437-3.829A11.723,11.723,0,0,0,655.447,400.47Z" transform="translate(-335.606 -400.35)" fill="#455a64"/>
        <path id="Path_345" data-name="Path 345" d="M77.844,429.23a5.733,5.733,0,0,1,3.775,2.422,10.247,10.247,0,0,1,1.618,4.272,17.871,17.871,0,0,1-1.391,9.039c-2.993-1.4-4.59-4.892-5.291-6.709-1.079-2.88-1.348-8.748,1.262-9.023" transform="translate(-71.37 -413.599)" fill="#2db0de"/>
        <path id="Path_346" data-name="Path 346" d="M94.64,459.127a4.9,4.9,0,0,1-.14-4.887,6.51,6.51,0,0,1,3.986-3.053,2.745,2.745,0,0,1,2.3.162,2.093,2.093,0,0,1,.76,1.979,4.223,4.223,0,0,1-.938,1.99c-1.564,2.017-3.441,3.678-5.987,3.829" transform="translate(-79.726 -423.631)" fill="#2db0de"/>
        <path id="Path_347" data-name="Path 347" d="M93.612,471.112a2.1,2.1,0,0,1-.1-.62c-.043-.4-.092-.976-.129-1.694a20.791,20.791,0,0,1,.34-5.614,10.49,10.49,0,0,1,2.551-4.994A6.792,6.792,0,0,1,97.6,457.11a1.919,1.919,0,0,1,.539-.28,14.183,14.183,0,0,0-1.715,1.532,11.078,11.078,0,0,0-2.4,4.908,24.6,24.6,0,0,0-.431,5.528A18.808,18.808,0,0,1,93.612,471.112Z" transform="translate(-79.452 -426.313)" fill="#263238"/>
        <path id="Path_348" data-name="Path 348" d="M80.9,437.49a6.048,6.048,0,0,1,.378.96c.227.626.539,1.537.9,2.664.739,2.254,1.7,5.393,2.7,8.867s1.791,6.666,2.341,8.969c.275,1.154.485,2.093.62,2.74a5.709,5.709,0,0,1,.178,1.019,6.082,6.082,0,0,1-.3-.987c-.189-.7-.431-1.618-.728-2.7-.6-2.292-1.451-5.453-2.432-8.937s-1.909-6.618-2.589-8.888l-.8-2.7a6.279,6.279,0,0,1-.264-1.014Z" transform="translate(-73.73 -417.404)" fill="#263238"/>
        <path id="Path_349" data-name="Path 349" d="M78.535,465.6a11.456,11.456,0,0,0-8.176-6.515,2.419,2.419,0,0,0-2.53.626,2.378,2.378,0,0,0,.469,2.562,9.784,9.784,0,0,0,10.247,3.576" transform="translate(-67.606 -427.312)" fill="#2db0de"/>
        <path id="Path_350" data-name="Path 350" d="M74.55,464a2.16,2.16,0,0,1,.6.059,5.117,5.117,0,0,1,.685.146,8.419,8.419,0,0,1,.9.27,12.014,12.014,0,0,1,2.2,1.025,14.026,14.026,0,0,1,2.362,1.812,13.625,13.625,0,0,1,1.888,2.3,11.871,11.871,0,0,1,1.079,2.157,7.417,7.417,0,0,1,.3.885,4.559,4.559,0,0,1,.167.68,2.05,2.05,0,0,1,.081.593c-.065,0-.227-.82-.76-2.071a13.482,13.482,0,0,0-1.138-2.087,14.628,14.628,0,0,0-1.861-2.233,14.854,14.854,0,0,0-2.292-1.785,13.438,13.438,0,0,0-2.12-1.079C75.381,464.2,74.539,464.063,74.55,464Z" transform="translate(-70.805 -429.614)" fill="#263238"/>
      </g>
      <g id="freepik--Floor--inject-2" transform="translate(32 264.321)">
        <path id="Path_351" data-name="Path 351" d="M402.791,484.151c0,.075-83.015.14-185.4.14S32,484.227,32,484.151,114.977,484,217.393,484,402.791,484.075,402.791,484.151Z" transform="translate(-32 -484)" fill="#263238"/>
      </g>
    </g>
  </g>
</svg>
