<svg xmlns="http://www.w3.org/2000/svg" width="22.057" height="19.032" viewBox="0 0 22.057 19.032">
  <g id="Group_269" data-name="Group 269" transform="translate(0 -35.111)">
    <path id="Path_1067" data-name="Path 1067" d="M22.057,44.627a2.1,2.1,0,0,1-1.314,1.967l-17.8,7.385a2.13,2.13,0,0,1-2.88-2.494l1.584-6.212.165-.646-.165-.646L.067,37.769a2.13,2.13,0,0,1,2.88-2.494l17.8,7.385A2.1,2.1,0,0,1,22.057,44.627Z" transform="translate(0)" fill="#84dbff"/>
    <path id="Path_1068" data-name="Path 1068" d="M1.651,256.647.067,262.859a2.13,2.13,0,0,0,2.88,2.494l17.8-7.385A2.1,2.1,0,0,0,22.057,256H1.816Z" transform="translate(0 -211.374)" fill="#54c9eb"/>
    <path id="Path_1069" data-name="Path 1069" d="M46.732,241.646a.646.646,0,0,1-.646.646H38.331l.165-.646L38.331,241h7.755A.646.646,0,0,1,46.732,241.646Z" transform="translate(-36.68 -197.019)" fill="#efefef"/>
    <path id="Path_1070" data-name="Path 1070" d="M38.331,256.647h7.755a.646.646,0,0,0,.646-.646H38.5Z" transform="translate(-36.68 -211.374)" fill="#c5d8df"/>
  </g>
</svg>
