<svg id="icon_shop" data-name="icon / shop" xmlns="http://www.w3.org/2000/svg" width="22.827" height="22.827" viewBox="0 0 22.827 22.827">
  <g id="shop">
    <path id="Path" d="M22.691,5.444,19.837.481A.944.944,0,0,0,19.022,0H3.8a.944.944,0,0,0-.815.481L.136,5.444A1.025,1.025,0,0,0,0,5.955a3.884,3.884,0,0,0,3.788,3.97H3.8A3.692,3.692,0,0,0,6.339,8.907a3.666,3.666,0,0,0,5.071,0,3.666,3.666,0,0,0,5.076,0,3.675,3.675,0,0,0,4.091.676,3.974,3.974,0,0,0,2.249-3.629A1.025,1.025,0,0,0,22.691,5.444Z" transform="translate(0)" fill="#c8c8d3"/>
    <path id="Path-2" data-name="Path" d="M16.184.623A5.521,5.521,0,0,1,13.636,0l-.014.007A5.443,5.443,0,0,1,9.281.315,5.669,5.669,0,0,1,8.558,0l-.01,0a5.434,5.434,0,0,1-4.34.307A5.656,5.656,0,0,1,3.486,0,5.5,5.5,0,0,1,.943.623,5.61,5.61,0,0,1,0,.534V10.548a.972.972,0,0,0,.951.992H6.658V5.586h3.8V11.54h5.707a.972.972,0,0,0,.951-.992V.53A5.507,5.507,0,0,1,16.184.623Z" transform="translate(2.853 11.286)" fill="#c8c8d3"/>
  </g>
</svg>
