<svg id="alarm" xmlns="http://www.w3.org/2000/svg" width="19.059" height="24.074" viewBox="0 0 19.059 24.074">
  <path id="Path" d="M18.921,18.538a13.405,13.405,0,0,1-1.768-6.51v-4A7.833,7.833,0,0,0,9.529,0,7.833,7.833,0,0,0,1.906,8.027v4A13.406,13.406,0,0,1,.138,18.538a1.049,1.049,0,0,0-.015,1.012.946.946,0,0,0,.83.511H18.106a.946.946,0,0,0,.83-.511A1.049,1.049,0,0,0,18.921,18.538Z" transform="translate(0 0)" fill="#040f0f"/>
  <path id="Path-2" data-name="Path" d="M4.082,2.746A4.117,4.117,0,0,0,6.018,0H0A4.329,4.329,0,0,0,1.64,2.572,2.348,2.348,0,0,0,4.082,2.746Z" transform="translate(7.022 21.065)" fill="#040f0f"/>
</svg>
