<svg xmlns="http://www.w3.org/2000/svg" width="31.339" height="30.235" viewBox="0 0 31.339 30.235">
  <g id="Group_207" data-name="Group 207" transform="translate(0 0)">
    <g id="Group_203" data-name="Group 203" transform="translate(16.932 16.713)">
      <g id="freepik--magnifying-glass--inject-4" transform="translate(0)">
        <path id="Path_649" data-name="Path 649" d="M355.159,300.931c3.239,2.981,8.877,8.194,11.508,10.66a1.717,1.717,0,0,0,2.373-.022h0a1.717,1.717,0,0,0-.022-2.493L357.6,298.535S357.622,298.545,355.159,300.931Z" transform="translate(-355.159 -298.535)" fill="#fff"/>
      </g>
    </g>
    <g id="Group_209" data-name="Group 209">
      <g id="Path_872" data-name="Path 872" fill="none">
        <path d="M11.6,0A11.6,11.6,0,1,1,0,11.6,11.6,11.6,0,0,1,11.6,0Z" stroke="none"/>
        <path d="M 11.5975456237793 2.999996185302734 C 6.856836318969727 2.999996185302734 2.999996185302734 6.856836318969727 2.999996185302734 11.5975456237793 C 2.999996185302734 16.3382453918457 6.856836318969727 20.1950855255127 11.5975456237793 20.1950855255127 C 16.3382453918457 20.1950855255127 20.1950855255127 16.3382453918457 20.1950855255127 11.5975456237793 C 20.1950855255127 6.856836318969727 16.3382453918457 2.999996185302734 11.5975456237793 2.999996185302734 M 11.5975456237793 -3.814697265625e-06 C 18.00269508361816 -3.814697265625e-06 23.1950855255127 5.19239616394043 23.1950855255127 11.5975456237793 C 23.1950855255127 18.00269508361816 18.00269508361816 23.1950855255127 11.5975456237793 23.1950855255127 C 5.19239616394043 23.1950855255127 -3.814697265625e-06 18.00269508361816 -3.814697265625e-06 11.5975456237793 C -3.814697265625e-06 5.19239616394043 5.19239616394043 -3.814697265625e-06 11.5975456237793 -3.814697265625e-06 Z" stroke="none" fill="#fff"/>
      </g>
      <g id="icon_add" data-name="icon / add" transform="translate(6.223 6.244)">
        <path id="Path" d="M10.388,4.751H6.447V.652A.823.823,0,0,0,5.608,0,.818.818,0,0,0,4.77.647v4.1l-4.013,0A.831.831,0,0,0,0,5.566a.886.886,0,0,0,.758.866l4.013,0v4a.758.758,0,0,0,.838.767.757.757,0,0,0,.839-.762v-4h3.941a.854.854,0,0,0,.8-.866A.8.8,0,0,0,10.388,4.751Z" transform="translate(0 0)" fill="#fff"/>
      </g>
    </g>
  </g>
</svg>
