<svg xmlns="http://www.w3.org/2000/svg" width="25" height="23.788" viewBox="0 0 25 23.788">
  <g id="Group_276" data-name="Group 276" transform="translate(0)">
    <g id="Group_273" data-name="Group 273" transform="translate(0 0)">
      <path id="Path_1074" data-name="Path 1074" d="M10.569,265.061a1.95,1.95,0,0,1-.044-.748l.392-2.9a4.185,4.185,0,0,1,1.188-2.4l3.554-3.554A21.1,21.1,0,0,0,.982,257.376,1.85,1.85,0,0,0,0,259.01v4.1a1.953,1.953,0,0,0,1.953,1.953Z" transform="translate(0 -241.623)" fill="#90a7b2"/>
      <path id="Path_1075" data-name="Path 1075" d="M101.214,11.119a5.86,5.86,0,1,0,5.86,5.86A5.859,5.859,0,0,0,101.214,11.119Z" transform="translate(-90.158 -11.119)" fill="#90a7b2" fill-rule="evenodd"/>
    </g>
    <g id="Group_275" data-name="Group 275" transform="translate(0 0)">
      <path id="Path_1076" data-name="Path 1076" d="M214.553,209.928a3.07,3.07,0,0,0-.871,1.759l-.392,2.9a.837.837,0,0,0,.942.942l2.9-.392a3.07,3.07,0,0,0,1.759-.871l6.866-6.866a3.069,3.069,0,1,0-4.341-4.341Z" transform="translate(-201.659 -191.752)" fill="#2196f3" fill-rule="evenodd"/>
    </g>
  </g>
</svg>
