<svg width="25" height="24" viewBox="0 0 25 24" fill="none" xmlns="http://www.w3.org/2000/svg">
<path fill-rule="evenodd" clip-rule="evenodd" d="M12.287 2C6.90173 2 2.53613 6.20819 2.53613 11.3993C2.53613 16.5903 6.90173 20.7985 12.287 20.7985C14.5902 20.7985 16.707 20.0287 18.3754 18.7415L21.5447 21.7886L21.6291 21.8586C21.9233 22.0685 22.3405 22.0446 22.6067 21.7873C22.8996 21.5043 22.899 21.0459 22.6054 20.7636L19.4733 17.7523C21.0658 16.0794 22.0378 13.8487 22.0378 11.3993C22.0378 6.20819 17.6722 2 12.287 2ZM12.287 3.44774C16.8427 3.44774 20.5359 7.00776 20.5359 11.3993C20.5359 15.7908 16.8427 19.3508 12.287 19.3508C7.73121 19.3508 4.03802 15.7908 4.03802 11.3993C4.03802 7.00776 7.73121 3.44774 12.287 3.44774Z" fill="#ADADAD"/>
</svg>
