<svg xmlns="http://www.w3.org/2000/svg" width="23.278" height="19.73" viewBox="0 0 23.278 19.73">
  <g id="Group_259" data-name="Group 259" transform="translate(0.75 -40.955)">
    <path id="Path_1063" data-name="Path 1063" d="M21.035,47.248l-4.93-4.93a1.774,1.774,0,0,0-1.226-.613c-.559,0-1.211.425-1.211,1.623v1.678A14.306,14.306,0,0,0,0,59.3a.638.638,0,0,0,1.148.383,16.314,16.314,0,0,1,12.52-6.566v1.652c0,1.2.652,1.623,1.211,1.623h0a1.774,1.774,0,0,0,1.226-.613l4.93-4.93a2.55,2.55,0,0,0,0-3.6Z" transform="translate(0)" fill="none" stroke="#040f0f" stroke-width="1.5"/>
  </g>
</svg>
